<?xml version="1.0" encoding="UTF-8"?>
<svg version="1.1" xmlns="http://www.w3.org/2000/svg" width="512" height="512">
<path d="M0 0 C3.41915974 3.00471614 6.7874738 6.30570385 7.30078125 10.984375 C7.32527344 11.83515625 7.34976562 12.6859375 7.375 13.5625 C7.41238281 14.40296875 7.44976562 15.2434375 7.48828125 16.109375 C6.5533567 22.04485929 1.85153346 26.27008099 -2.25683594 30.35888672 C-2.77435928 30.87670212 -3.29188263 31.39451752 -3.8250885 31.92802429 C-5.51931523 33.62086914 -7.2204915 35.30653834 -8.921875 36.9921875 C-10.1048684 38.1714467 -11.287418 39.35115126 -12.46954346 40.53128052 C-15.56893355 43.62306618 -18.67428434 46.70879602 -21.78094482 49.79327393 C-24.95526445 52.94706621 -28.12386871 56.10658936 -31.29296875 59.265625 C-37.50225499 65.45351764 -43.71785449 71.63501996 -49.9375 77.8125 C-48.17223465 77.81796844 -48.17223465 77.81796844 -46.37130737 77.82354736 C-35.27703775 77.86049929 -24.18304565 77.91827438 -13.08898735 77.99640274 C-7.38548512 78.03590054 -1.68213782 78.06807786 4.02148438 78.08349609 C9.52651002 78.09864729 15.0311098 78.13306607 20.53594589 78.18080902 C22.63542859 78.19563858 24.73497209 78.20354191 26.83450699 78.20438385 C29.77701393 78.20675046 32.71834105 78.23380618 35.66064453 78.26660156 C36.96076729 78.25905602 36.96076729 78.25905602 38.28715515 78.25135803 C44.62808826 78.36059653 48.03620352 80.20362372 52.875 84.375 C55.29150787 87.30024637 55.27952526 90.49193492 55.375 94.125 C55.41238281 95.04925781 55.44976563 95.97351563 55.48828125 96.92578125 C54.34049451 104.70756474 47.16406778 109.633577 41.6287384 114.55815125 C40.14241913 115.89735165 38.65611636 117.23657056 37.17035709 118.57639222 C35.56161079 120.0255557 33.95034136 121.47186969 32.33853912 122.91763306 C26.4236259 128.22621072 20.53607243 133.56500955 14.6530304 138.90885925 C14.02775025 139.47670243 13.40247011 140.04454561 12.75824209 140.62959616 C2.82809466 149.65505114 -7.00126862 158.78274574 -16.76716614 167.98554993 C-17.43251228 168.61247996 -18.09785843 169.23941 -18.78336658 169.88533791 C-25.67354751 176.38094633 -32.55072493 182.89015385 -39.4163201 189.41173945 C-42.94628821 192.76394619 -46.47937667 196.11284633 -50.0144043 199.4597168 C-50.71766507 200.12564772 -51.42092584 200.79157865 -52.14549754 201.4776893 C-61.9945569 210.79165186 -71.98682525 219.92317402 -82.11797728 228.9290929 C-99.60779879 244.47711264 -116.74830427 260.33317892 -133.35546875 276.82421875 C-134.00103342 277.46375117 -134.64659809 278.10328358 -135.31172532 278.76219577 C-172.05701689 315.26222749 -192.88226819 347.27551653 -193.31916809 400.16841125 C-193.2705166 427.21476993 -190.52987423 454.17878082 -185.9375 480.8125 C-185.36086204 480.80968025 -184.78422407 480.80686051 -184.19011223 480.80395532 C-182.41915497 480.79529538 -180.6481977 480.78663831 -178.87724042 480.77798319 C-176.77170847 480.76768199 -174.66617662 480.75735979 -172.56064487 480.74701834 C-166.73023683 480.71841396 -160.89982737 480.69018912 -155.06941414 480.66266251 C-140.44817777 480.59431002 -140.44817777 480.59431002 -125.8270874 480.50085449 C-120.25863065 480.46039568 -114.69045581 480.43685356 -109.12185669 480.4307251 C-106.99625295 480.42459182 -104.87066293 480.41054211 -102.74514771 480.39019775 C-99.52109686 480.3608874 -96.29789473 480.35687692 -93.07373047 480.35839844 C-92.13037779 480.344006 -91.18702511 480.32961357 -90.21508598 480.314785 C-84.46454005 480.35107541 -81.36001851 481.06633722 -76.9375 484.8125 C-73.39168964 488.84738765 -72.63389821 492.37911409 -72.72265625 497.75390625 C-73.19942974 502.32226317 -75.16312886 505.11367726 -78.5 508.125 C-83.00639224 511.24481001 -86.75790247 510.96075469 -92.09710693 510.95967102 C-93.05830075 510.96334771 -94.01949456 510.9670244 -95.00981545 510.9708125 C-98.25101509 510.98188123 -101.4921827 510.98569857 -104.73339844 510.98950195 C-107.04905297 510.99576417 -109.36470648 511.00241075 -111.68035889 511.00941467 C-117.98622384 511.02684639 -124.2920812 511.03738225 -130.59796429 511.0456202 C-134.53483653 511.05076552 -138.4717064 511.05684144 -142.40857697 511.06313133 C-153.30659091 511.08000395 -164.20460192 511.09463901 -175.1026268 511.10188007 C-177.93137361 511.10379 -180.76012041 511.10571033 -183.58886719 511.10766602 C-184.29194741 511.10814976 -184.99502763 511.1086335 -185.71941331 511.1091319 C-197.10930268 511.1174325 -208.49908702 511.14276936 -219.88893053 511.17524669 C-231.58013514 511.20831178 -243.27128095 511.22599552 -254.96253228 511.22952431 C-261.52776236 511.23187866 -268.09282651 511.24088914 -274.65801239 511.26598549 C-280.83365611 511.2892108 -287.00902399 511.29352164 -293.18470001 511.28322411 C-295.45267146 511.28272729 -297.72065624 511.28909029 -299.98858643 511.30278015 C-303.08271019 511.32041359 -306.17583488 511.31343455 -309.2699585 511.30024719 C-310.16938101 511.31121644 -311.06880352 511.32218568 -311.99548125 511.33348733 C-317.47170855 511.27706173 -320.58578785 510.45200208 -324.9375 506.8125 C-328.48331036 502.77761235 -329.24110179 499.24588591 -329.15234375 493.87109375 C-328.67557026 489.30273683 -326.71187114 486.51132274 -323.375 483.5 C-320.1885995 481.29403042 -318.59917571 480.68760745 -314.78671265 480.69224548 C-313.91911505 480.69086799 -313.05151745 480.68949049 -312.15762901 480.68807125 C-311.1998839 480.69166936 -310.24213879 480.69526747 -309.25537109 480.69897461 C-308.2341749 480.69885407 -307.21297871 480.69873354 -306.16083717 480.69860935 C-302.84418205 480.69935775 -299.52758262 480.70698268 -296.2109375 480.71484375 C-294.16772488 480.7163134 -292.12451189 480.71733397 -290.08129883 480.71789551 C-284.84070058 480.72066158 -279.60012487 480.72869463 -274.35953498 480.73822629 C-264.03523755 480.75647697 -253.7109287 480.76710455 -243.38662267 480.7792331 C-237.6443551 480.78601572 -231.90208784 480.79304767 -226.15982056 480.80006409 C-224.1715374 480.80248414 -222.18325424 480.8049031 -220.19497108 480.80732059 C-218.77581406 480.80904706 -217.35665703 480.81077353 -215.9375 480.8125 C-207.25592314 431.04913199 -197.74620565 366.38822739 -228.18429516 322.41593041 C-240.14892454 305.6543717 -254.43095836 290.77769674 -269.02734375 276.31640625 C-269.67796235 275.67029418 -270.32858094 275.02418211 -270.99891526 274.35849088 C-287.80433049 257.6991453 -305.2236205 241.75483029 -322.89738715 226.02602422 C-333.13958139 216.89946691 -343.19855698 207.59844389 -353.15698242 198.16333008 C-353.86649384 197.49120531 -354.57600526 196.81908054 -355.30701702 196.12658835 C-358.86907351 192.75039047 -362.42818645 189.37110906 -365.98568523 185.99010956 C-372.88378406 179.43533407 -379.79873062 172.89842963 -386.72254944 166.37083435 C-387.39021114 165.74133149 -388.05787284 165.11182862 -388.74576671 164.46324991 C-398.56448851 155.21313595 -408.46797932 146.06111888 -418.44969177 136.98719788 C-419.07174724 136.42163681 -419.69380271 135.85607573 -420.33470835 135.27337645 C-426.1978289 129.94570853 -432.07133005 124.62978881 -437.96498495 119.3359125 C-439.5516959 117.90970609 -441.13629389 116.48119239 -442.72017199 115.0518412 C-444.62692661 113.33256812 -446.53818102 111.61826675 -448.45479816 109.90999514 C-449.28721171 109.15870394 -450.11962525 108.40741274 -450.97726345 107.63335514 C-451.69894945 106.98723461 -452.42063544 106.34111408 -453.16419071 105.67541414 C-457.32506723 101.30428962 -457.31105673 97.24466632 -457.1875 91.4375 C-456.73481422 86.68429931 -454.86651187 84.62821774 -451.375 81.5625 C-447.66640968 78.89992233 -445.9402468 78.71645931 -441.40917492 78.88891983 C-440.22652339 78.9309312 -439.04387186 78.97294257 -437.82538241 79.01622701 C-435.85848506 79.09354468 -435.85848506 79.09354468 -433.85185242 79.17242432 C-432.45309713 79.22296027 -431.05431769 79.2728317 -429.65551692 79.32209277 C-426.60333938 79.42998817 -423.55126057 79.54024473 -420.49922943 79.65220451 C-396.78252352 80.51736054 -373.06368446 81.24025467 -349.33540344 81.69354248 C-348.3632555 81.71213645 -347.39110755 81.73073043 -346.38950058 81.74988785 C-336.31787966 81.94062592 -326.2460574 82.11651666 -316.17393641 82.27863069 C-310.99114814 82.3625266 -305.80842505 82.44995035 -300.62573242 82.53955078 C-299.59436493 82.55732357 -298.56299743 82.57509636 -297.50037638 82.59340772 C-283.0199271 82.84994623 -268.554868 83.28802252 -254.08401991 83.87062699 C-229.18631026 84.87263205 -204.30612325 85.52450927 -179.38671875 85.515625 C-177.94426593 85.51630088 -177.94426593 85.51630088 -176.47267264 85.51699042 C-129.96351148 85.49075392 -89.88250086 84.15833598 -55.26435852 49.99139404 C-42.38284762 36.59956147 -30.86866325 21.83407935 -21.31308383 5.88957906 C-16.45329285 -2.08720932 -8.67218582 -3.50577725 0 0 Z M-403.9375 109.8125 C-401.9575 112.1225 -399.9775 114.4325 -397.9375 116.8125 C-396.67085066 118.81963221 -395.45523082 120.86001376 -394.29663086 122.93139648 C-381.05178626 145.61978908 -362.20919065 168.22375148 -336.1710434 175.92675018 C-313.32155418 181.7597316 -289.26922608 182.36998625 -265.8125 182.4375 C-264.98444162 182.44091117 -264.15638325 182.44432234 -263.30323219 182.44783688 C-224.09932047 182.54468594 -187.075661 180.93415577 -157.69775391 151.84326172 C-138.31910995 132.90460268 -138.31910995 132.90460268 -126.9375 109.8125 C-218.3475 109.8125 -309.7575 109.8125 -403.9375 109.8125 Z M-120.25 141.75 C-121.28880814 142.89489899 -121.28880814 142.89489899 -122.34860229 144.06292725 C-137.33249751 158.26350539 -137.33249751 158.26350539 -146.9375 174.8125 C-134.14929866 176.78206277 -121.35621959 178.07740161 -108.4375 178.8125 C-107.48271885 178.86713787 -106.5279377 178.92177574 -105.54422379 178.97806931 C-80.59403617 180.23669153 -61.13571986 177.66240977 -42.04296875 160.59765625 C-35.91512075 154.9840889 -30.20243104 149.03154251 -24.625 142.875 C-23.93246124 142.11173401 -23.23992249 141.34846802 -22.52639771 140.56207275 C-7.54250249 126.36149461 -7.54250249 126.36149461 2.0625 109.8125 C-10.72570134 107.84293723 -23.51878041 106.54759839 -36.4375 105.8125 C-37.39228115 105.75786213 -38.3470623 105.70322426 -39.33077621 105.64693069 C-75.78927758 103.80776696 -96.05672804 115.04471107 -120.25 141.75 Z " fill="#4A68FE" transform="translate(456.9375,1.1875)"/>
</svg>
