<svg width="512" height="512" viewBox="0 0 512 512" fill="none" xmlns="http://www.w3.org/2000/svg">
<path d="M264.75 103.688C265.533 103.689 266.316 103.691 267.123 103.693C279.631 103.742 291.726 104.432 304 107C305.283 107.258 305.283 107.258 306.591 107.52C355.792 117.587 401.059 145.865 429 188C438.563 202.93 452 224.621 452 243C328.25 243 204.5 243 77 243C84.1103 207.449 105.669 172.756 134 150C134.896 149.267 135.792 148.533 136.715 147.777C161.239 128.263 188.786 115.326 219.25 108.188C220.488 107.895 220.488 107.895 221.752 107.597C235.965 104.467 250.243 103.617 264.75 103.688ZM198.875 152.75C198.171 153.075 197.467 153.4 196.742 153.734C194.848 154.884 194.848 154.884 194.137 157C193.748 159.241 193.748 159.241 195.938 161.25C196.618 161.828 197.299 162.405 198 163C203.235 161.495 203.235 161.495 208 159C209.08 156.599 209.08 156.599 209 154C207.854 152.103 207.854 152.103 206 151C202.919 151 201.596 151.445 198.875 152.75ZM160 180C159.323 180.612 158.646 181.225 157.949 181.856C153.597 185.946 149.971 190.454 146.438 195.25C145.983 195.853 145.529 196.456 145.061 197.077C142.63 200.391 142.63 200.391 142.094 204.344C143.308 206.564 144.683 207.103 147 208C150.356 205.661 152.797 203.105 155.25 199.875C163.234 189.385 172.17 180.056 183.297 172.871C186.17 171.243 186.17 171.243 187.062 168.438C187.221 165.968 187.221 165.968 185.75 164.188C178.527 159.286 165.024 175.262 160 180Z" fill="#4A67FE"/>
<path d="M225.305 343.43C243.528 350.96 263.431 349.352 282.792 349.381C286.588 349.391 290.384 349.424 294.18 349.461C295.91 349.453 295.91 349.453 297.675 349.446C307.847 349.569 314.859 352.257 322.277 359.219C326.022 363.09 328.009 366.462 329.102 371.695C329.273 372.503 329.443 373.31 329.62 374.141C329.745 374.755 329.871 375.368 330 376C328.815 375.993 328.815 375.993 327.606 375.987C320.119 375.946 312.632 375.916 305.145 375.896C301.297 375.886 297.449 375.872 293.601 375.849C289.879 375.827 286.157 375.816 282.435 375.81C281.024 375.807 279.612 375.8 278.201 375.789C269.898 375.727 262.106 376.132 254 378C253.67 379.65 253.34 381.3 253 383C256.364 385.383 258.816 384.814 262.739 384.265C266.556 383.818 270.364 383.858 274.203 383.867C275.506 383.866 275.506 383.866 276.835 383.864C279.64 383.862 282.445 383.869 285.25 383.875C287.183 383.875 289.116 383.875 291.049 383.874C303.373 383.891 315.66 384.125 327.962 384.908C328.995 384.963 330.029 385.018 331.094 385.074C331.977 385.132 332.861 385.19 333.771 385.249C336.041 385.172 336.041 385.172 337.744 383.808C339.183 382.013 339.183 382.013 339.415 379.481C340 377 340 377 341.876 375.521C342.694 375.121 343.512 374.721 344.355 374.309C345.277 373.845 346.198 373.382 347.147 372.904C348.15 372.42 349.154 371.936 350.188 371.438C352.306 370.376 354.423 369.312 356.539 368.246C357.62 367.707 358.7 367.168 359.813 366.613C364.621 364.18 369.343 361.598 374.062 359C374.954 358.513 375.845 358.026 376.763 357.524C381.527 354.918 386.279 352.29 391.023 349.649C392.013 349.101 393.003 348.553 394.023 347.988C395.913 346.942 397.799 345.891 399.682 344.832C407.292 340.629 414.337 337.507 423.23 339.5C428.511 341.057 432.104 343.104 436 347C436 347.66 436 348.32 436 349C434.234 350.43 434.234 350.43 431.75 352.09C430.839 352.704 429.929 353.318 428.991 353.95C427.51 354.934 427.51 354.934 426 355.938C423.966 357.306 421.932 358.674 419.898 360.043C418.388 361.055 418.388 361.055 416.847 362.088C413.087 364.614 409.353 367.177 405.625 369.75C404.343 370.633 403.06 371.516 401.777 372.399C401.155 372.827 400.532 373.256 399.89 373.698C389.963 380.535 380.024 387.355 370.074 394.159C364.982 397.642 359.895 401.13 354.812 404.625C354.165 405.07 353.517 405.516 352.85 405.974C349.557 408.239 346.266 410.507 342.977 412.777C339.644 415.078 336.304 417.366 332.961 419.651C331.016 420.989 329.084 422.345 327.152 423.703C303.414 440.221 279.195 442.976 251.172 437.996C240.465 436.053 229.781 433.979 219.097 431.91C214.385 430.998 209.672 430.093 204.957 429.201C202.78 428.785 200.606 428.358 198.432 427.931C180.341 424.453 169.338 426.627 154 436.813C152.167 438.007 150.333 439.201 148.5 440.395C145.637 442.267 142.78 444.147 139.934 446.045C138.451 447.018 138.451 447.018 136.938 448.012C135.59 448.906 135.59 448.906 134.215 449.819C133.484 450.209 132.753 450.599 132 451C130 450 130 450 128.848 446.977C128.414 445.609 127.989 444.238 127.57 442.866C127.335 442.119 127.101 441.373 126.86 440.604C126.084 438.126 125.319 435.645 124.555 433.164C124.02 431.446 123.485 429.729 122.949 428.011C121.826 424.406 120.709 420.799 119.595 417.192C118.166 412.563 116.727 407.938 115.284 403.313C114.177 399.765 113.075 396.214 111.974 392.664C111.445 390.958 110.915 389.252 110.384 387.547C109.642 385.164 108.906 382.779 108.171 380.393C107.95 379.686 107.729 378.978 107.501 378.249C106.623 375.381 106 373.019 106 370C106.762 369.72 107.524 369.441 108.309 369.152C117.877 365.437 124.407 360.404 131.875 353.5C159.461 328.43 192.91 329.415 225.305 343.43Z" fill="#4A67FE"/>
<path d="M65 286C196.67 286 328.34 286 464 286C458.253 312.438 458.253 312.438 452.65 316.851C449.449 318.239 447.082 318.379 443.595 318.386C442.293 318.396 440.992 318.405 439.651 318.415C438.208 318.411 436.766 318.406 435.323 318.401C433.79 318.407 432.256 318.414 430.722 318.422C426.505 318.44 422.289 318.44 418.072 318.436C413.525 318.436 408.979 318.452 404.432 318.466C395.523 318.491 386.615 318.499 377.706 318.501C370.466 318.503 363.226 318.509 355.986 318.518C335.466 318.545 314.945 318.559 294.425 318.556C292.765 318.556 292.765 318.556 291.072 318.556C289.41 318.556 289.41 318.556 287.715 318.556C269.756 318.554 251.797 318.583 233.838 318.625C215.404 318.668 196.97 318.689 178.536 318.687C168.184 318.686 157.832 318.694 147.48 318.726C138.667 318.753 129.855 318.76 121.042 318.74C116.545 318.73 112.048 318.73 107.551 318.756C103.434 318.779 99.3176 318.775 95.2006 318.749C93.7114 318.744 92.2221 318.75 90.733 318.766C78.2292 318.897 78.2292 318.897 73.6762 315.192C66.5286 307.881 66.5951 295.039 65 286Z" fill="#4B67FE"/>
<path d="M55.9788 252.863C56.709 252.86 57.4392 252.858 58.1915 252.855C60.6634 252.847 63.1353 252.847 65.6072 252.846C67.3873 252.842 69.1674 252.838 70.9474 252.833C75.8587 252.821 80.77 252.815 85.6814 252.811C90.9705 252.805 96.2596 252.793 101.549 252.782C114.331 252.758 127.114 252.743 139.896 252.73C143.504 252.727 147.112 252.723 150.72 252.719C173.107 252.693 195.495 252.671 217.883 252.659C223.071 252.656 228.259 252.653 233.446 252.65C235.381 252.649 235.381 252.649 237.354 252.648C258.257 252.635 279.16 252.602 300.062 252.56C321.504 252.518 342.946 252.494 364.389 252.489C376.435 252.486 388.481 252.474 400.528 252.441C410.784 252.413 421.04 252.402 431.297 252.413C436.533 252.418 441.769 252.415 447.005 252.391C451.795 252.368 456.584 252.369 461.374 252.388C463.11 252.391 464.846 252.385 466.582 252.37C468.937 252.351 471.289 252.363 473.644 252.382C474.953 252.381 476.262 252.379 477.611 252.378C481.859 253.158 483.314 254.697 486 258C487.725 261.449 487.366 265.221 487 269C485.783 271.86 484.913 273.388 482.341 275.113C479.092 276.344 476.267 276.255 472.793 276.26C472.063 276.264 471.332 276.268 470.58 276.272C468.119 276.282 465.658 276.278 463.197 276.274C461.42 276.279 459.643 276.284 457.866 276.29C452.973 276.304 448.079 276.306 443.186 276.306C437.912 276.307 432.639 276.32 427.365 276.332C415.83 276.355 404.295 276.363 392.761 276.368C385.562 276.371 378.363 276.377 371.164 276.385C351.241 276.404 331.319 276.421 311.396 276.423C309.483 276.424 309.483 276.424 307.531 276.424C304.946 276.424 302.36 276.425 299.774 276.425C297.849 276.425 297.849 276.425 295.885 276.426C293.957 276.426 293.957 276.426 291.99 276.426C271.156 276.43 250.322 276.457 229.488 276.494C208.11 276.532 186.733 276.552 165.355 276.552C153.347 276.552 141.339 276.561 129.332 276.59C119.109 276.614 108.886 276.622 98.6637 276.607C93.4457 276.599 88.2281 276.6 83.0102 276.623C78.2357 276.644 73.4619 276.641 68.6874 276.62C66.958 276.617 65.2285 276.622 63.4991 276.636C61.1514 276.654 58.8058 276.641 56.4582 276.621C54.5009 276.622 54.5009 276.622 52.5041 276.623C47.9001 275.805 46.2838 274.271 43 271C41.2577 267.516 41.4132 263.801 42 260C45.4964 253.686 49.1474 252.875 55.9788 252.863Z" fill="#4A67FE"/>
<path d="M25 363C47.77 363 70.54 363 94 363C98.5 374.25 98.5 374.25 99.7131 378.2C99.9925 379.103 100.272 380.005 100.56 380.935C100.851 381.89 101.142 382.844 101.441 383.828C101.922 385.387 101.922 385.387 102.412 386.978C103.467 390.401 104.515 393.825 105.562 397.25C106.302 399.656 107.041 402.062 107.781 404.468C109.357 409.594 110.93 414.721 112.5 419.849C114.652 426.87 116.812 433.888 118.973 440.906C120.725 446.594 122.474 452.284 124.223 457.973C125.073 460.736 125.923 463.499 126.774 466.261C127.967 470.134 129.155 474.008 130.344 477.883C130.879 479.617 130.879 479.617 131.424 481.385C131.75 482.451 132.076 483.516 132.412 484.614C132.696 485.538 132.98 486.463 133.273 487.415C133.975 489.911 134.491 492.457 135 495C110.58 495 86.16 495 61 495C55.657 476.003 50.3206 457.004 45 438C44.7804 437.216 44.5608 436.432 44.3346 435.624C41.5638 425.728 38.7968 415.832 36.038 405.934C34.906 401.872 33.7728 397.812 32.6364 393.751C31.5587 389.901 30.4849 386.05 29.4138 382.198C29.0161 380.77 28.6171 379.343 28.2167 377.916C27.6682 375.96 27.125 374.003 26.582 372.045C26.275 370.945 25.968 369.844 25.6516 368.711C25 366 25 366 25 363ZM73.6875 462.75C70.9528 468.017 70.417 471.887 72 477.625C74.9145 482.543 78.5193 486.173 84 488C89.2688 488.398 92.5664 487.924 97 485C100.542 481.872 103.204 478.803 104.062 474.062C104.287 469.617 103.277 465.819 101 462C97.8178 458.497 94.5283 456.265 89.7305 455.762C82.3469 455.546 78.5719 456.942 73.6875 462.75Z" fill="#4A67FE"/>
<path d="M277.5 19.0625C284.377 23.0713 288.519 28.4258 291 36C292.764 43.9968 291.886 51.1393 287.75 58.25C283.598 64.3739 277.902 68.9933 270.527 70.5078C261.944 71.6426 254.867 70.2331 247.687 65.3125C242.956 61.4815 239.916 56.7481 238 51C237.334 42.5008 237.471 35.369 242 28C242.557 27.0925 243.114 26.185 243.687 25.25C252.542 16.6347 266.137 13.7876 277.5 19.0625Z" fill="#4A67FE"/>
<path d="M382.75 334.313C385.429 335.703 387.697 337.066 390 339C388.773 342.681 388.011 342.807 384.645 344.496C383.261 345.202 383.261 345.202 381.849 345.922C380.847 346.422 379.845 346.922 378.812 347.438C376.717 348.506 374.621 349.576 372.527 350.648C371.45 351.199 370.372 351.749 369.261 352.315C364.09 354.987 358.98 357.767 353.875 360.563C352.958 361.063 352.041 361.563 351.097 362.078C347.692 363.942 344.315 365.806 341.008 367.84C339 369 339 369 337 369C335.993 367.066 334.994 365.128 334 363.188C333.443 362.109 332.886 361.03 332.312 359.918C331 357 331 357 331 354C335.732 351.491 340.464 348.982 345.197 346.474C346.805 345.622 348.413 344.77 350.021 343.917C352.339 342.687 354.658 341.459 356.977 340.23C357.689 339.852 358.402 339.474 359.136 339.084C360.476 338.375 361.817 337.669 363.159 336.965C364.863 336.072 366.559 335.166 368.255 334.259C373.412 331.894 377.592 332.507 382.75 334.313Z" fill="#4A67FE"/>
<path d="M345.375 332C346.598 332.64 347.813 333.296 349 334C342.73 340.762 332.725 346.245 324 349C318.776 348.996 315.036 346.044 311 343C309.355 342.28 307.694 341.594 306 341C308.71 337.752 312.268 336.179 316 334.375C316.629 334.063 317.258 333.751 317.906 333.429C326.567 329.172 336.319 327.918 345.375 332Z" fill="#4A67FE"/>
<path d="M254 78C257.385 78.293 260.771 78.5859 264.156 78.8789C268.707 79.1218 268.707 79.1218 276 78C276 83.61 276 89.22 276 95C268.74 95 261.48 95 254 95C254 89.39 254 83.78 254 78Z" fill="#4B68FE"/>
<path d="M90.9999 465C93.66 466.596 93.9755 467.93 94.9999 470.875C94.9999 474 94.9999 474 92.9999 476.938C89.9999 479 89.9999 479 86.3749 479.063C82.9999 478 82.9999 478 80.9999 476.375C79.5466 472.924 80.0738 470.572 80.9999 467C84.6947 464.537 86.6328 464.611 90.9999 465Z" fill="#4A67FE"/>
</svg>
