<?xml version="1.0" encoding="UTF-8"?>
<svg version="1.1" xmlns="http://www.w3.org/2000/svg" width="512" height="512">
<path d="M0 0 C3.1359157 1.77984405 3.84102736 2.52308207 5 6 C5.08178114 7.70016844 5.10749501 9.40336297 5.09765625 11.10546875 C5.09443359 12.08837891 5.09121094 13.07128906 5.08789062 14.08398438 C5.07951172 15.10814453 5.07113281 16.13230469 5.0625 17.1875 C5.05798828 18.22326172 5.05347656 19.25902344 5.04882812 20.32617188 C5.0370401 22.88417266 5.02058515 25.44205733 5 28 C6.53720703 27.94779297 6.53720703 27.94779297 8.10546875 27.89453125 C9.46612936 27.86637965 10.8268078 27.83908096 12.1875 27.8125 C12.86103516 27.78736328 13.53457031 27.76222656 14.22851562 27.73632812 C18.78890801 27.66959068 21.38662323 28.2370656 25 31 C26.39379883 33.6796875 26.39379883 33.6796875 27.45703125 36.875 C27.84697266 38.02484375 28.23691406 39.1746875 28.63867188 40.359375 C29.02603516 41.56078125 29.41339844 42.7621875 29.8125 44 C30.21919922 45.20140625 30.62589844 46.4028125 31.04492188 47.640625 C34 56.50089286 34 56.50089286 34 60 C34.85078125 60.14695313 35.7015625 60.29390625 36.578125 60.4453125 C80.41711224 68.56018886 123.2028975 91.46762551 152 126 C152.83144531 126.94359375 153.66289062 127.8871875 154.51953125 128.859375 C190.2084825 169.55263429 206.96571609 224.33027144 203.72265625 278.01171875 C200.32391932 324.71107415 181.68594946 368.46365618 149.953125 402.859375 C148.37097392 404.59341258 146.89053119 406.34699382 145.4375 408.1875 C142.25549565 411.85904348 138.70153414 414.86515024 135 418 C133.62714844 419.22203125 133.62714844 419.22203125 132.2265625 420.46875 C123.41746966 428.24473904 113.92495336 434.73245268 104 441 C103.4117041 441.37753418 102.8234082 441.75506836 102.21728516 442.14404297 C78.44927626 457.25365507 50.62685195 465.04909195 23 469 C22.30165039 469.1038501 21.60330078 469.2077002 20.88378906 469.31469727 C-30.76453357 476.09094744 -85.92094287 460.82241379 -127.21191406 429.37988281 C-127.80198242 428.92452148 -128.39205078 428.46916016 -129 428 C-129.55139648 427.57557617 -130.10279297 427.15115234 -130.67089844 426.71386719 C-136.50808032 422.17544921 -141.89866954 417.34554308 -147 412 C-148.175625 410.824375 -148.175625 410.824375 -149.375 409.625 C-150.24125 408.75875 -151.1075 407.8925 -152 407 C-152.64582031 406.38898438 -153.29164063 405.77796875 -153.95703125 405.1484375 C-160.38350667 398.95831232 -165.79541201 392.21471911 -171 385 C-171.40863281 384.43571289 -171.81726563 383.87142578 -172.23828125 383.29003906 C-194.91414849 351.59781509 -208.91293349 312.0871305 -210 273 C-210.02046387 272.32791504 -210.04092773 271.65583008 -210.06201172 270.96337891 C-211.50221332 216.72372023 -192.97534518 164.26932162 -156.0859375 124.2734375 C-154.1477745 122.1610576 -152.28976729 120.00001928 -150.4375 117.8125 C-146.9224469 113.8032671 -143.10865718 110.39013208 -139 107 C-138.50032715 106.57734863 -138.0006543 106.15469727 -137.48583984 105.71923828 C-110.50924389 82.9441104 -75.49110932 64.2124509 -40 60 C-39.73832031 58.72898438 -39.47664062 57.45796875 -39.20703125 56.1484375 C-38.02616422 50.85475264 -36.43481768 45.75607291 -34.6875 40.625 C-34.40455078 39.73683594 -34.12160156 38.84867188 -33.83007812 37.93359375 C-32.56303414 34.2195535 -31.65852285 31.61378001 -28.7578125 28.91015625 C-25.19350382 27.73383341 -21.89150922 27.67426425 -18.1875 27.8125 C-17.14819336 27.83280273 -17.14819336 27.83280273 -16.08789062 27.85351562 C-14.39158735 27.88861155 -12.69568864 27.94241057 -11 28 C-11.02356567 27.03960815 -11.02356567 27.03960815 -11.04760742 26.05981445 C-11.11017115 23.14413369 -11.14905808 20.22859445 -11.1875 17.3125 C-11.21263672 16.30509766 -11.23777344 15.29769531 -11.26367188 14.25976562 C-11.35673244 4.86064869 -11.35673244 4.86064869 -8 1 C-5.19084526 -0.40457737 -3.11189466 -0.24895157 0 0 Z M-19 43 C-23.15811388 53.36615654 -23.15811388 53.36615654 -23 58 C-9.8 58 3.4 58 17 58 C15.25724788 49.42874646 15.25724788 49.42874646 13 43 C2.44 43 -8.12 43 -19 43 Z M-85.39453125 111.03125 C-88.63576375 114.72440847 -91.27433804 118.91150706 -94 123 C-79.81 123 -65.62 123 -51 123 C-49.845 119.37 -48.69 115.74 -47.5 112 C-44.5615381 102.98390305 -41.17382716 94.57645484 -36.6640625 86.2421875 C-35.10330603 83.20127701 -33.98316562 80.26728776 -33 77 C-51.19019766 77 -73.57255295 99.44177656 -85.39453125 111.03125 Z M27 77 C28.17828575 80.91571727 29.67034373 84.40574625 31.61523438 88 C37.59880742 99.11069657 41.25705001 110.98886146 45 123 C45.97582031 123.03738281 46.95164062 123.07476562 47.95703125 123.11328125 C49.22933594 123.17902344 50.50164062 123.24476563 51.8125 123.3125 C53.07707031 123.37050781 54.34164062 123.42851562 55.64453125 123.48828125 C59 124 59 124 60.9296875 125.2890625 C62.92671284 128.48138768 62.29241625 131.31555526 62 135 C59.41073669 137.58926331 57.97294721 137.37398043 54.375 137.625 C53.37210937 137.69976562 52.36921875 137.77453125 51.3359375 137.8515625 C50.56507813 137.90054688 49.79421875 137.94953125 49 138 C49.11859375 138.81984375 49.2371875 139.6396875 49.359375 140.484375 C49.48828125 141.56203125 49.6171875 142.6396875 49.75 143.75 C49.88921875 144.81734375 50.0284375 145.8846875 50.171875 146.984375 C50 150 50 150 48.23828125 152.38671875 C46 154 46 154 42.4375 154.0625 C39 153 39 153 37.1875 151 C35.86664406 147.66310078 35.09411815 144.41094178 34.4296875 140.890625 C34.1762577 138.99865328 34.1762577 138.99865328 33 138 C30.76070114 137.90563471 28.5183825 137.88257673 26.27709961 137.88647461 C25.5746965 137.88632858 24.8722934 137.88618256 24.14860535 137.8860321 C21.81648722 137.88673128 19.484448 137.89452383 17.15234375 137.90234375 C15.53951562 137.90420792 13.92668693 137.90563182 12.31385803 137.90663147 C8.06084643 137.91045677 3.80786876 137.92028715 -0.44512939 137.93133545 C-4.7817743 137.94154931 -9.11842467 137.94612904 -13.45507812 137.95117188 C-21.97006769 137.96190941 -30.48502963 137.97898597 -39 138 C-42.12143965 150.01956214 -42.12143965 150.01956214 -44.484375 162.203125 C-44.58969543 162.85907654 -44.69501587 163.51502808 -44.80352783 164.19085693 C-45.01833444 165.53735708 -45.22988849 166.88438063 -45.43798828 168.23193359 C-45.75660073 170.29269301 -46.08653926 172.35142271 -46.41796875 174.41015625 C-47.59646926 181.66775225 -47.59646926 181.66775225 -48 189 C-47.04644119 189.01030746 -46.09288239 189.02061493 -45.11042786 189.03123474 C-36.12035891 189.12902661 -27.13035827 189.23176612 -18.14040089 189.33933926 C-13.51867322 189.39448375 -8.89693914 189.44789007 -4.27514648 189.49731445 C0.18582371 189.54508316 4.64671892 189.59743023 9.10759926 189.65294075 C10.80880171 189.67330772 12.51002467 189.69202998 14.21126366 189.70907402 C16.59558898 189.73324365 18.97977407 189.76328052 21.36401367 189.79467773 C22.06604416 189.8004332 22.76807465 189.80618866 23.49137878 189.81211853 C27.11071012 189.86622813 30.47783747 190.15170837 34 191 C35.28571429 199.57142857 35.28571429 199.57142857 34 203 C30.12372239 204.2484154 26.23058107 204.17372054 22.20214844 204.20532227 C21.42127869 204.21522186 20.64040894 204.22512146 19.83587646 204.23532104 C17.26040659 204.26685373 14.68491829 204.29166086 12.109375 204.31640625 C10.32146735 204.33698289 8.53356449 204.35797955 6.7456665 204.37937927 C2.04394411 204.43452663 -2.65782166 204.48396823 -7.35961914 204.53222656 C-12.15905611 204.58249518 -16.95843023 204.63815325 -21.7578125 204.69335938 C-31.17182129 204.80085121 -40.58588469 204.90231607 -50 205 C-50.34998039 208.99871215 -50.67642764 212.99907144 -51 217 C-51.09539062 218.08667969 -51.19078125 219.17335937 -51.2890625 220.29296875 C-52.2378745 232.28866336 -52 243.82451305 -52 256 C-19.66 256 12.68 256 46 256 C46.03493077 235.80507061 46.03493077 235.80507061 45.09179688 215.7109375 C45.03701172 214.74929687 44.98222656 213.78765625 44.92578125 212.796875 C44.83937378 211.54922363 44.83937378 211.54922363 44.7512207 210.27636719 C45.06612679 207.39493018 46.03876545 206.09494164 48 204 C50.83568858 203.33740346 53.04239226 203.71832307 56 204 C59.24861715 207.24861715 59.10997512 211.26941118 59.29711914 215.69848633 C59.33760376 216.61150513 59.37808838 217.52452393 59.4197998 218.46520996 C59.47690125 219.8842865 59.47690125 219.8842865 59.53515625 221.33203125 C59.57346558 222.21161499 59.6117749 223.09119873 59.65124512 223.99743652 C59.79258998 227.26894308 59.92714445 230.54074017 60.0625 233.8125 C60.371875 241.134375 60.68125 248.45625 61 256 C84.1 256 107.2 256 131 256 C131.02020854 242.08907966 131.02020854 242.08907966 129.6875 228.4375 C129.48882324 226.97570312 129.48882324 226.97570312 129.28613281 225.484375 C128.32388555 218.62864627 127.05775811 211.88941639 125.453125 205.15625 C124.93065671 201.51698811 125.23094573 198.58599021 126 195 C128.41376718 192.85442918 129.83928605 192.99672012 133.0625 193.0625 C136 194 136 194 137.60131836 196.20239258 C139.04823728 199.09648297 139.73069321 201.52406496 140.31640625 204.69921875 C140.62529785 206.37189819 140.62529785 206.37189819 140.94042969 208.07836914 C141.14571289 209.26938232 141.35099609 210.46039551 141.5625 211.6875 C141.88782715 213.5291272 141.88782715 213.5291272 142.21972656 215.40795898 C144.19489973 227.12786927 145.16318814 238.85605137 145.78222656 250.71704102 C145.92917952 253.16205852 145.92917952 253.16205852 147 256 C160.53 256 174.06 256 188 256 C188 248.85759051 187.90415994 242.44919122 186.8125 235.5 C186.68375488 234.65848389 186.55500977 233.81696777 186.42236328 232.94995117 C184.75859701 218.01265339 184.75859701 218.01265339 179 205 C177.41320309 204.87907623 175.82155746 204.82042676 174.23046875 204.7890625 C173.25916016 204.76070313 172.28785156 204.73234375 171.28710938 204.703125 C169.23259749 204.65134146 167.17788408 204.60698263 165.12304688 204.5703125 C164.14787109 204.539375 163.17269531 204.5084375 162.16796875 204.4765625 C161.27360107 204.45674316 160.3792334 204.43692383 159.45776367 204.41650391 C156.53843001 203.92178023 155.15084354 203.00592104 153 201 C151.71653294 197.74855011 151.79366029 196.47783933 153.1875 193.25 C155.30295922 190.62391269 155.78032681 190.54288313 159 190 C161.4138176 189.77882441 163.83114597 189.59427758 166.25 189.4375 C167.51328125 189.35371094 168.7765625 189.26992187 170.078125 189.18359375 C171.04234375 189.12300781 172.0065625 189.06242187 173 189 C168.8745107 175.04023622 160.26621164 161.5108806 151.46264648 150.01538086 C150 148 150 148 148.49243164 145.34594727 C146.54356699 142.27457145 144.90933311 140.20322809 142 138 C136.20349218 136.70893238 130.59490317 136.86282179 124.6875 137.0625 C122.34673903 137.10365888 120.00681507 137.13061273 117.66572571 137.14268494 C116.2163718 137.15410927 114.76701228 137.18439357 113.31852722 137.2358551 C108.47947341 137.32812433 108.47947341 137.32812433 106.06176758 135.67358398 C104.36823049 133.00418946 104.56021709 131.07848037 105 128 C106.67156787 125.57865234 107.98985728 124.21644999 110.92211914 123.58813477 C113.20381811 123.38209676 115.4594981 123.29178362 117.75 123.25 C118.54277344 123.22035156 119.33554687 123.19070312 120.15234375 123.16015625 C122.10102094 123.08972213 124.05051495 123.04256518 126 123 C122.72291473 118.4605681 118.91602308 115.2908873 114.5 111.9375 C113.76966553 111.3811084 113.03933105 110.8247168 112.28686523 110.25146484 C106.41463414 105.87152505 100.32828461 101.91682129 94.0625 98.125 C92.75732422 97.33017212 92.75732422 97.33017212 91.42578125 96.51928711 C90.61625 96.04112549 89.80671875 95.56296387 88.97265625 95.0703125 C88.25343994 94.64508301 87.53422363 94.21985352 86.79321289 93.78173828 C85.90557251 93.39477783 85.90557251 93.39477783 85 93 C84.34 93.33 83.68 93.66 83 94 C83.99 95.485 83.99 95.485 85 97 C85.54170249 103.06706793 85.54170249 103.06706793 83.875 105.9375 C81.10422737 107.50760449 79.14885741 107.3072056 76 107 C73.4296875 105.34765625 73.4296875 105.34765625 70.875 103.0625 C69.91335938 102.2375 68.95171875 101.4125 67.9609375 100.5625 C66.98382813 99.716875 66.00671875 98.87125 65 98 C58.11880862 92.28880946 51.07173752 87.74038779 43.1875 83.5625 C42.38699219 83.13718994 41.58648437 82.71187988 40.76171875 82.27368164 C36.23591481 79.94242117 31.94733782 78.20876211 27 77 Z M-154.5625 144.125 C-155.78455966 146.06675804 -156.90226894 148.02000075 -157.96142578 150.05517578 C-159.5629065 153.05409336 -161.56579531 155.77013864 -163.5 158.5625 C-173.755231 173.0367301 -173.755231 173.0367301 -179 189 C-167.12 189 -155.24 189 -143 189 C-140.5663216 182.51805075 -140.5663216 182.51805075 -138.23828125 176.00390625 C-133.60888036 162.87485807 -128.22309713 150.44280292 -122 138 C-140.22010643 135.32170466 -140.22010643 135.32170466 -154.5625 144.125 Z M-131 205 C-132.9143407 212.65736278 -134.65058749 219.92449585 -135.6875 227.6875 C-135.81487549 228.62287598 -135.94225098 229.55825195 -136.07348633 230.52197266 C-137.15314516 239.04193634 -137.30695309 247.42805069 -137 256 C-136.09636719 256.03738281 -135.19273437 256.07476562 -134.26171875 256.11328125 C-133.08222656 256.17902344 -131.90273437 256.24476563 -130.6875 256.3125 C-128.92986328 256.39951172 -128.92986328 256.39951172 -127.13671875 256.48828125 C-124 257 -124 257 -122.10546875 258.32421875 C-120.22610115 261.17315409 -120.64730312 263.70816248 -121 267 C-122.10546875 268.67578125 -122.10546875 268.67578125 -124 270 C-127.13671875 270.51171875 -127.13671875 270.51171875 -130.6875 270.6875 C-131.86699219 270.75324219 -133.04648438 270.81898438 -134.26171875 270.88671875 C-135.61716797 270.94279297 -135.61716797 270.94279297 -137 271 C-137.03867188 272.89685547 -137.03867188 272.89685547 -137.078125 274.83203125 C-137.13440266 276.49222218 -137.19175007 278.1523771 -137.25 279.8125 C-137.26417969 280.64587891 -137.27835938 281.47925781 -137.29296875 282.33789062 C-137.53936412 288.47313536 -137.53936412 288.47313536 -139.8203125 291.08203125 C-143.15642107 292.48702321 -145.5610087 291.89159034 -149 291 C-151 288 -151 288 -153 271 C-166.53 271 -180.06 271 -194 271 C-194 278.14240949 -193.90415994 284.55080878 -192.8125 291.5 C-192.68375488 292.34151611 -192.55500977 293.18303223 -192.42236328 294.05004883 C-190.75859701 308.98734661 -190.75859701 308.98734661 -185 322 C-183.30312215 322.11260925 -181.60165033 322.15678354 -179.90112305 322.17358398 C-178.81296799 322.18707382 -177.72481293 322.20056366 -176.60368347 322.21446228 C-175.41833511 322.22490067 -174.23298676 322.23533905 -173.01171875 322.24609375 C-170.52668922 322.27903442 -168.04166326 322.31224603 -165.55664062 322.34570312 C-161.61957288 322.39313768 -157.68251943 322.43754966 -153.74536133 322.47680664 C-149.95898961 322.51647317 -146.17292315 322.56803705 -142.38671875 322.62109375 C-140.61780525 322.63371498 -140.61780525 322.63371498 -138.81315613 322.64659119 C-137.71554459 322.66323318 -136.61793304 322.67987518 -135.48706055 322.69702148 C-134.52189011 322.70732895 -133.55671967 322.71763641 -132.56230164 322.72825623 C-129.8594096 323.01491025 -128.2266432 323.4443608 -126 325 C-125.125 328.4375 -125.125 328.4375 -125 332 C-125.99 333.485 -125.99 333.485 -127 335 C-126.66219183 340.55659975 -124.99588772 345.46132742 -123.0625 350.625 C-122.76110107 351.43678711 -122.45970215 352.24857422 -122.14916992 353.08496094 C-117.41458547 365.50393091 -111.5893965 377.46855613 -105 389 C-88.5 389 -72 389 -55 389 C-55.66 385.04 -56.32 381.08 -57 377 C-57.75031677 372.43085785 -58.492749 367.86046468 -59.23217773 363.28955078 C-59.45356857 361.92258916 -59.67558032 360.55572796 -59.89819336 359.18896484 C-61.99651945 346.30472154 -61.99651945 346.30472154 -62.58984375 341.109375 C-62.66120667 338.13593968 -62.66120667 338.13593968 -64 337 C-66.54869892 336.75726677 -69.09604532 336.61633133 -71.65234375 336.4765625 C-74 336 -74 336 -76 333 C-76.375 329.5 -76.375 329.5 -76 326 C-73.14936514 323.18969279 -71.05400166 322.62258659 -67.11517334 322.60127258 C-66.13363281 322.58873444 -65.15209229 322.57619629 -64.14080811 322.5632782 C-63.07050354 322.56471329 -62.00019897 322.56614838 -60.89746094 322.56762695 C-59.76546265 322.5574353 -58.63346436 322.54724365 -57.46716309 322.53674316 C-53.72285057 322.50653176 -49.97879355 322.49733451 -46.234375 322.48828125 C-43.63933456 322.47144066 -41.0443023 322.45329127 -38.44927979 322.43388367 C-32.31537894 322.39117379 -26.18154463 322.36167194 -20.04754281 322.33856028 C-13.06322362 322.3115084 -6.07904224 322.26759695 0.90517855 322.22227156 C15.27004158 322.12942575 29.63495514 322.05774476 44 322 C44.34998039 318.00128785 44.67642764 314.00092856 45 310 C45.14308594 308.36998047 45.14308594 308.36998047 45.2890625 306.70703125 C46.2378745 294.71133664 46 283.17548695 46 271 C13.66 271 -18.68 271 -52 271 C-52.33 274.3 -52.66 277.6 -53 281 C-53.99 282.32 -54.98 283.64 -56 285 C-61.93849417 285.74231177 -61.93849417 285.74231177 -64.67578125 283.828125 C-66.48526713 281.3300737 -66.50773828 279.36844925 -66.6875 276.3125 C-66.75324219 275.31863281 -66.81898438 274.32476562 -66.88671875 273.30078125 C-66.94279297 272.16189453 -66.94279297 272.16189453 -67 271 C-68.35544922 270.92652344 -68.35544922 270.92652344 -69.73828125 270.8515625 C-70.91777344 270.77679688 -72.09726563 270.70203125 -73.3125 270.625 C-74.48425781 270.55539062 -75.65601563 270.48578125 -76.86328125 270.4140625 C-80 270 -80 270 -83 268 C-83.89562115 264.83087902 -84.28915213 262.82297146 -83.1875 259.6875 C-82 258 -82 258 -80 257 C-77.795636 256.77049681 -75.58607827 256.58924067 -73.375 256.4375 C-72.18648438 256.35371094 -70.99796875 256.26992188 -69.7734375 256.18359375 C-68.85820312 256.12300781 -67.94296875 256.06242187 -67 256 C-66.96241577 254.8550708 -66.96241577 254.8550708 -66.92407227 253.68701172 C-66.80494569 250.08296015 -66.68371826 246.4789818 -66.5625 242.875 C-66.52318359 241.67617188 -66.48386719 240.47734375 -66.44335938 239.2421875 C-66.05672009 227.82145787 -65.51901511 216.41833237 -65 205 C-86.78 205 -108.56 205 -131 205 Z M147 271 C146.29897712 274.50511439 145.812326 277.58577914 145.5703125 281.10546875 C145.4986084 282.0809668 145.4269043 283.05646484 145.35302734 284.06152344 C145.27777832 285.0930957 145.2025293 286.12466797 145.125 287.1875 C144.41500896 296.41038163 143.26857933 305.42351211 141.5859375 314.515625 C140.88944464 318.06855296 140.88944464 318.06855296 141 322 C153.54 322 166.08 322 179 322 C181.03042928 316.58552193 182.77898727 311.51907428 184.0625 305.9375 C184.23168945 305.2057959 184.40087891 304.4740918 184.57519531 303.72021484 C187.03463555 292.73803226 188 282.31538114 188 271 C174.47 271 160.94 271 147 271 Z M-179 337 C-177.8780577 342.60971151 -175.82640357 346.73119301 -173.1875 351.75 C-172.70120117 352.67651367 -172.21490234 353.60302734 -171.71386719 354.55761719 C-167.27390304 362.82269403 -162.23303206 370.59604845 -156.47290039 378.00415039 C-155 380 -155 380 -153.55639648 382.46264648 C-151.13637682 386.28106636 -149.53077507 388.6356011 -145.00732422 389.71240234 C-141.48341334 389.88607681 -138.08306563 389.78721695 -134.5625 389.5625 C-133.35400391 389.52189453 -132.14550781 389.48128906 -130.90039062 389.43945312 C-127.92942892 389.33376674 -124.96682253 389.18620225 -122 389 C-122.556875 387.87207031 -123.11375 386.74414062 -123.6875 385.58203125 C-131.39127436 369.77170411 -137.43617897 353.6914631 -143 337 C-154.88 337 -166.76 337 -179 337 Z M57 337 C55.68 346.24 54.36 355.48 53 365 C50.75 377.0625 50.75 377.0625 49.734375 382.09765625 C48.90752908 385.82956758 48.90752908 385.82956758 49 389 C65.5 389 82 389 99 389 C113.80930966 364.29330258 113.80930966 364.29330258 121 337 C99.88 337 78.76 337 57 337 Z M-132 404 C-122.18854994 417.19069058 -103.61133049 427.82250432 -89 435 C-88.34 434.67 -87.68 434.34 -87 434 C-87.78761719 433.25878906 -88.57523438 432.51757812 -89.38671875 431.75390625 C-90.48898975 430.6921876 -91.58906654 429.62818841 -92.6875 428.5625 C-93.27837402 427.99571533 -93.86924805 427.42893066 -94.47802734 426.8449707 C-97.79526216 423.55813286 -100.57944047 420.29683114 -103.08984375 416.3515625 C-107.8456104 408.20390419 -107.8456104 408.20390419 -115.42333984 403.25195312 C-121.04666448 402.54340374 -126.42958353 403.10002775 -132 404 Z M-35 404 C-33.53101118 411.08465842 -33.53101118 411.08465842 -31.265625 417.6484375 C-30.94207031 418.42074707 -30.61851562 419.19305664 -30.28515625 419.98876953 C-29.94355469 420.77622559 -29.60195312 421.56368164 -29.25 422.375 C-28.89292969 423.20499512 -28.53585938 424.03499023 -28.16796875 424.89013672 C-23.29336615 436.07420479 -18.25665568 446.96476953 -7.9375 454.125 C-3.99979065 455.2979347 -1.95074796 455.22609419 2 454 C17.10578317 444.08591318 24.30436602 422.63789539 29 406 C29 405.34 29 404.68 29 404 C7.88 404 -13.24 404 -35 404 Z M97.27685547 416.07958984 C95.19699945 419.20772511 92.65546518 421.85732261 90.0625 424.5625 C86.8813687 427.94040231 83.85311638 431.33927296 81 435 C97.68424758 428.56930422 112.96065056 417.10158801 126 405 C126 404.67 126 404.34 126 404 C111.31545422 402.08263962 105.10397858 403.40635847 97.27685547 416.07958984 Z " fill="#4A67FE" transform="translate(259,21)"/>
<path d="M0 0 C3.5 0.5625 3.5 0.5625 5.66015625 2.62890625 C7.92857756 6.24585828 8.13265269 8.81969366 8.4375 13.0625 C9.63710507 25.43191891 13.65301927 36.90891425 23.375 45.15234375 C27.78941204 48.22285212 31.99819534 49.32521902 37.30078125 50.0078125 C39.92833414 50.67053454 40.90629064 51.38560361 42.5 53.5625 C42.89272445 56.65520502 43.10918385 58.60616662 42.5 61.5625 C39.6916164 65.1197859 36.97175039 65.75096373 32.6875 66.4375 C25.24378969 67.73157742 20.62720015 71.6579068 16.25 77.6875 C11.01879165 86.23085929 9.03426293 95.25765555 8.35839844 105.13110352 C8.07390095 108.39835396 7.66399375 110.34148035 5.69140625 113 C2.05689575 115.59145134 -0.11268691 115.11961912 -4.5 114.5625 C-8.36561457 111.14256805 -8.29561408 106.38930285 -8.875 101.5625 C-10.71551393 88.62376063 -14.31620447 78.37507839 -24.5 69.5625 C-29.07959361 66.9041607 -33.05445043 65.9768822 -38.23046875 65.28515625 C-41.16487245 64.35079363 -42.02573242 63.23068263 -43.5 60.5625 C-43.29223429 54.64117731 -43.29223429 54.64117731 -41.30078125 51.9296875 C-38.89446765 50.10276828 -36.7719051 49.80701991 -33.8125 49.25 C-25.6361668 47.31687418 -20.81303429 44.00906806 -16.25 36.9375 C-11.13581977 27.61245942 -9.06337374 18.3229849 -8.1875 7.8125 C-7.10298987 2.68572482 -5.13416387 0.82513348 0 0 Z M-0.5 40.5625 C-1.44694714 41.93797068 -2.35688989 43.3389781 -3.25 44.75 C-5.68117312 48.478578 -8.30312457 51.45442666 -11.5 54.5625 C-12.2020106 55.87756781 -12.8756649 57.20882799 -13.5 58.5625 C-12.98050781 59.0471875 -12.46101563 59.531875 -11.92578125 60.03125 C-7.27117839 64.50517511 -3.62632422 68.91106776 -0.5 74.5625 C2.6660677 70.63657605 5.74911531 66.6516279 8.81640625 62.6484375 C10.28954298 60.82325186 11.80528382 59.17994949 13.5 57.5625 C13.06429687 57.17320312 12.62859375 56.78390625 12.1796875 56.3828125 C7.71216117 52.18604535 4.64576621 47.8534335 1.6640625 42.50390625 C1.27992188 41.86324219 0.89578125 41.22257812 0.5 40.5625 C0.17 40.5625 -0.16 40.5625 -0.5 40.5625 Z " fill="#4A67FE" transform="translate(341.5,141.4375)"/>
<path d="M0 0 C2.1015625 1.11328125 2.1015625 1.11328125 4 3 C4.8359375 6.00390625 4.8359375 6.00390625 5.375 9.5625 C6.88997527 17.32975414 9.01625105 23.54448295 15.12109375 28.83984375 C21.02601082 32.80554339 27.02340374 34.10782625 33.99609375 35.1640625 C37 36 37 36 38.88671875 37.8984375 C40.42325056 40.79897825 40.40469571 42.76243435 40 46 C38.88671875 48.1015625 38.88671875 48.1015625 37 50 C33.99609375 50.8359375 33.99609375 50.8359375 30.4375 51.375 C22.67024586 52.88997527 16.45551705 55.01625105 11.16015625 61.12109375 C7.19445661 67.02601082 5.89217375 73.02340374 4.8359375 79.99609375 C4 83 4 83 2.1015625 84.88671875 C-0.79897825 86.42325056 -2.76243435 86.40469571 -6 86 C-8.1015625 84.88671875 -8.1015625 84.88671875 -10 83 C-10.8359375 79.99609375 -10.8359375 79.99609375 -11.375 76.4375 C-12.88997527 68.67024586 -15.01625105 62.45551705 -21.12109375 57.16015625 C-27.02601082 53.19445661 -33.02340374 51.89217375 -39.99609375 50.8359375 C-43 50 -43 50 -44.88671875 48.1015625 C-46.42325056 45.20102175 -46.40469571 43.23756565 -46 40 C-44.88671875 37.8984375 -44.88671875 37.8984375 -43 36 C-39.99609375 35.1640625 -39.99609375 35.1640625 -36.4375 34.625 C-28.67024586 33.11002473 -22.45551705 30.98374895 -17.16015625 24.87890625 C-13.19445661 18.97398918 -11.89217375 12.97659626 -10.8359375 6.00390625 C-10 3 -10 3 -8.1015625 1.11328125 C-5.20102175 -0.42325056 -3.23756565 -0.40469571 0 0 Z M-4 33 C-4.556875 33.7425 -5.11375 34.485 -5.6875 35.25 C-7.93027178 37.91707995 -10.22074975 39.91556232 -13 42 C-11.13916819 46.56749627 -7.96311877 49.88579746 -3.6875 52.3125 C-3.130625 52.539375 -2.57375 52.76625 -2 53 C-1.443125 52.2575 -0.88625 51.515 -0.3125 50.75 C1.93027178 48.08292005 4.22074975 46.08443768 7 44 C5.13916819 39.43250373 1.96311877 36.11420254 -2.3125 33.6875 C-2.869375 33.460625 -3.42625 33.23375 -4 33 Z " fill="#4A67FE" transform="translate(451,405)"/>
<path d="M0 0 C3.74859672 2.5330864 3.97430328 6.54145358 4.8125 10.6875 C6.76047342 19.21607836 9.5118908 24.86235472 16.9375 29.875 C21.22450919 32.30268134 25.5350735 33.52816588 30.3671875 34.453125 C31.17414063 34.61296875 31.98109375 34.7728125 32.8125 34.9375 C33.56144531 35.07027344 34.31039062 35.20304687 35.08203125 35.33984375 C37 36 37 36 39 39 C39.66890983 45.1316734 39.66890983 45.1316734 37.3359375 48.16015625 C34.52831339 50.37151237 32.77765141 50.63444027 29.25 51 C20.41592052 52.26661164 15.12284037 54.94698827 9.46875 61.9375 C5.56072418 67.42536605 4.50146245 73.00992586 3.625 79.546875 C2.92625409 82.28945271 2.21446545 83.28733461 0 85 C-3.2333963 86.19125127 -4.50706353 86.21780914 -7.6875 84.8125 C-11.59689357 81.74838072 -12.16982442 78.59894853 -12.75 73.8125 C-14.1063616 65.9873369 -17.77642952 60.51528287 -23.9375 55.5625 C-28.74298996 52.26157521 -33.44325386 51.12403802 -39.1875 50.625 C-43 50 -43 50 -45.5 48.375 C-47.61242231 45.03033134 -47.55437355 42.88061483 -47 39 C-44.91080353 36.30693323 -43.64041703 35.15477517 -40.30078125 34.34765625 C-39.31464844 34.25355469 -38.32851563 34.15945312 -37.3125 34.0625 C-28.86221031 32.8685492 -22.50946732 29.66648573 -17.2109375 22.875 C-13.69989716 17.43855045 -12.57783916 11.52170361 -11.625 5.19921875 C-10.90131551 2.65275397 -10.03474055 1.65322669 -8 0 C-5.06317146 -1.46841427 -3.13175678 -0.76696084 0 0 Z M-5 32 C-6.70484466 33.68522729 -6.70484466 33.68522729 -8.4375 35.8125 C-10.54463676 38.31102718 -12.65241398 40.7242056 -15 43 C-14.44570313 43.47050781 -13.89140625 43.94101563 -13.3203125 44.42578125 C-12.59585938 45.04839844 -11.87140625 45.67101562 -11.125 46.3125 C-10.40570313 46.92738281 -9.68640625 47.54226562 -8.9453125 48.17578125 C-7 50 -7 50 -5 53 C-4.34 53 -3.68 53 -3 53 C-1.29515534 51.31477271 -1.29515534 51.31477271 0.4375 49.1875 C2.54463676 46.68897282 4.65241398 44.2757944 7 42 C6.36191406 41.44570312 5.72382812 40.89140625 5.06640625 40.3203125 C4.24011719 39.59585938 3.41382812 38.87140625 2.5625 38.125 C1.73878906 37.40570313 0.91507813 36.68640625 0.06640625 35.9453125 C-2 34 -2 34 -3 32 C-3.66 32 -4.32 32 -5 32 Z " fill="#4A67FE" transform="translate(68,50)"/>
<path d="M0 0 C4.12069827 0.58867118 4.98038605 1.28108642 7.5 4.5 C8.1875 7.41796875 8.1875 7.41796875 8.5 10.6875 C9.51511366 18.62141464 11.71490553 25.71490553 17.5 31.5 C21.6606186 34.11248145 25.67147666 35.08283551 30.44921875 35.875 C32.92740102 36.63025555 33.95081 37.43281458 35.5 39.5 C35.89264305 42.59206404 36.11491844 44.54480944 35.5 47.5 C32.28087504 51.44602414 28.59924103 52.15522456 23.78125 52.91015625 C19.87051846 53.92132143 17.24697985 55.53550232 14.76953125 58.734375 C11.04121967 65.17145987 8.69723745 70.71188731 8.125 78.1875 C7.81571793 81.2081549 7.54438428 82.4300094 5.875 85.0625 C2.52280766 87.09145852 0.34748569 87.04964081 -3.5 86.5 C-6.68507919 84.18570393 -7.43758663 82.75860965 -8.37109375 78.890625 C-8.56996303 77.51183122 -8.75837271 76.13149726 -8.9375 74.75 C-10.27658094 66.35785992 -12.66068852 59.95337241 -19.62109375 54.51953125 C-22.8780816 52.75222599 -26.40788571 52.04105892 -30.01171875 51.2734375 C-32.69339243 50.43988744 -33.78729308 49.68876284 -35.5 47.5 C-36.67966676 44.29804736 -36.70309352 42.98516786 -35.375 39.8125 C-32.7594086 36.58660394 -30.26821978 35.99831648 -26.3515625 34.89453125 C-19.11237995 32.7179664 -15.53153424 29.65114239 -11.8125 23 C-9.34778236 17.90216787 -8.64543553 12.9891985 -8.15234375 7.3828125 C-7.04600455 2.4937207 -4.8885767 0.6983681 0 0 Z M-0.5 34.5 C-2.81 37.14 -5.12 39.78 -7.5 42.5 C-6.01131714 45.47736572 -4.96121178 47.33438636 -2.875 49.75 C-2.09125 50.6575 -1.3075 51.565 -0.5 52.5 C0.263125 51.736875 1.02625 50.97375 1.8125 50.1875 C3.29181337 48.70818663 4.78133021 47.23807188 6.3125 45.8125 C7.72363777 44.54781729 7.72363777 44.54781729 7.5 42.5 C5.8777546 40.79006566 4.20586575 39.12652316 2.5 37.5 C1.51 36.51 0.52 35.52 -0.5 34.5 Z " fill="#4A67FE" transform="translate(156.5,283.5)"/>
</svg>
