<svg width="512" height="512" viewBox="0 0 512 512" fill="none" xmlns="http://www.w3.org/2000/svg">
<g clip-path="url(#clip0_71_809)">
<path d="M382 140C382.861 140.864 383.722 141.727 384.609 142.617C385.972 143.975 387.352 145.317 388.781 146.605C417.995 173.496 432.864 217.071 434.813 255.75C436.203 292.838 426.544 332 404 362C403.255 363.026 402.51 364.052 401.742 365.109C392.604 377.506 382.296 388.687 370 398C368.929 398.856 367.859 399.713 366.789 400.57C331.804 428.02 286.246 438.513 242.504 433.723C215.072 430.317 187.228 420.711 165 404C163.962 403.243 162.925 402.486 161.856 401.707C150.981 393.661 140.406 384.644 132 374C131.569 373.459 131.137 372.918 130.693 372.361C123.084 362.758 116.583 352.905 111 342C110.523 341.074 110.523 341.074 110.036 340.13C89.8303 300.405 86.6158 252.662 100.214 210.294C110.364 180.671 128.267 151.632 153 132C153.532 131.572 154.063 131.145 154.611 130.704C218.623 79.5954 315.324 78.2448 382 140ZM184 187C182.751 188.251 182.751 188.251 181.477 189.527C175.583 195.733 171.195 202.563 167 210C166.465 210.922 165.93 211.843 165.379 212.793C151.794 237.811 149.734 267.703 157.5 294.812C162.46 311.061 170.772 325.31 182 338C183.091 339.241 183.091 339.241 184.203 340.508C204.224 361.789 232.665 372.559 261.356 374.129C287.373 374.782 314.654 365.546 334 348C334.813 347.315 335.627 346.631 336.465 345.926C359.631 326.044 371.546 298.064 374 268C375.961 241.69 365.359 212.827 348.375 192.937C346.609 190.932 344.812 188.965 343 187C342.43 186.349 341.861 185.698 341.273 185.027C322.57 164.741 293.946 154.446 266.961 152.816C235.475 152.095 205.936 164.691 184 187Z" fill="#4A67FE"/>
<path d="M330 184C330.674 184.535 331.348 185.07 332.043 185.622C351.741 201.667 363.775 227.368 366.551 252.262C369.016 279.819 361.581 306.827 344.172 328.512C324.517 351.03 299.96 364.523 269.937 366.75C245.375 368.176 220.393 361.4 201 346C200.025 345.25 199.051 344.5 198.047 343.727C176.751 326.765 163.58 301.685 160.515 274.751C157.838 248.196 164.988 220.61 181.801 199.629C182.527 198.762 183.252 197.894 184 197C184.918 195.838 184.918 195.838 185.855 194.653C202.655 174.343 227.931 163.208 253.674 160.455C281.319 157.919 308.657 166.242 330 184Z" fill="#4A67FE"/>
<path d="M17.9999 37.0002C21.5705 38.9336 23.6945 41.0838 24.9999 45.0002C25.1426 46.6306 25.235 48.2656 25.2971 49.9011C25.357 51.4014 25.357 51.4014 25.4182 52.932C25.4568 54.0193 25.4953 55.1066 25.5351 56.2268C25.5781 57.3618 25.6211 58.4969 25.6653 59.6663C25.7557 62.0856 25.8438 64.5051 25.9299 66.9245C26.0592 70.5347 26.1979 74.1444 26.3378 77.7541C26.9138 93.1763 27.1137 108.568 26.9999 124C30.2999 124 33.5999 124 36.9999 124C37.0375 122.32 37.0375 122.32 37.0759 120.605C37.9203 83.0693 37.9203 83.0693 38.4999 65.5002C38.5353 64.3656 38.5707 63.231 38.6071 62.062C38.7767 57.1721 38.9989 52.2888 39.3788 47.4104C39.4689 46.2407 39.4689 46.2407 39.5607 45.0473C40.289 41.6529 42.3191 40.0272 44.9999 38.0002C48.1095 36.4454 50.5626 36.7138 53.9999 37.0002C57.3124 38.3752 57.3124 38.3752 59.9999 41.0002C62.5145 48.3542 62.4133 56.4554 62.6328 64.1369C62.6743 65.3746 62.7159 66.6122 62.7587 67.8874C62.8448 70.4951 62.9269 73.1029 63.0053 75.7109C63.1241 79.6586 63.2542 83.6057 63.3867 87.5529C63.7838 99.7028 64.1661 111.843 63.9999 124C67.2999 124 70.5999 124 73.9999 124C73.9898 122.749 73.9796 121.498 73.9692 120.209C73.8899 105.69 74.2316 91.1996 74.7446 76.6894C74.8768 72.8838 74.9951 69.0778 75.1132 65.2717C75.197 62.8361 75.2816 60.4006 75.3671 57.9651C75.4173 56.2699 75.4173 56.2699 75.4684 54.5405C75.5083 53.4907 75.5482 52.4409 75.5893 51.3593C75.6204 50.442 75.6515 49.5246 75.6835 48.5794C76.1837 44.5027 77.3312 41.75 80.0624 38.6877C84.1061 36.3648 87.4406 36.0547 91.9999 37.0002C95.5676 38.9435 97.6929 41.0791 98.9999 45.0002C99.1257 46.3937 99.2026 47.792 99.2476 49.1905C99.2918 50.4707 99.2918 50.4707 99.337 51.7767C99.3646 52.7102 99.3922 53.6437 99.4206 54.6054C99.4532 55.5912 99.4858 56.577 99.5194 57.5927C99.6261 60.8625 99.7256 64.1325 99.8242 67.4026C99.8947 69.6788 99.9654 71.9551 100.036 74.2313C100.183 79.012 100.326 83.7928 100.467 88.5737C100.648 94.6767 100.843 100.779 101.043 106.881C101.194 111.589 101.334 116.296 101.472 121.004C101.54 123.252 101.611 125.5 101.686 127.748C101.791 130.909 101.881 134.069 101.967 137.23C102.001 138.146 102.035 139.061 102.07 140.004C102.362 152.229 100.174 160.801 93.4235 171.001C68.7239 211.078 67.9202 245.26 71.4704 291.333C72.1477 300.196 72.6473 309.067 73.1308 317.943C73.8791 331.641 74.7148 345.331 75.6404 359.018C76.7934 376.083 77.6905 393.137 78.3085 410.231C78.3477 411.273 78.3869 412.315 78.4273 413.389C78.636 419.025 78.8103 424.66 78.9356 430.298C78.9798 432.153 79.0321 434.007 79.0914 435.862C79.1795 438.695 79.2395 441.527 79.2932 444.361C79.3396 445.619 79.3396 445.619 79.3869 446.903C79.489 455.764 76.0009 462.876 69.9648 469.27C63.7176 474.772 57.2288 475.616 49.0781 475.313C41.0028 474.493 35.4115 471.048 29.9999 465C26.6409 459.812 24.8675 454.728 24.8862 448.534C24.887 447.663 24.8878 446.792 24.8886 445.894C24.8952 444.959 24.9019 444.024 24.9088 443.061C24.9125 442.082 24.9163 441.102 24.9202 440.093C24.9748 430.068 25.1988 420.048 25.4589 410.027C25.5084 408.04 25.5577 406.053 25.6067 404.066C25.7115 399.839 25.818 395.612 25.9259 391.385C26.0967 384.693 26.2636 378.001 26.43 371.309C26.6935 360.729 26.9596 350.149 27.2269 339.569C27.7059 320.599 28.1815 301.63 28.6548 282.66C28.8207 276.014 28.988 269.369 29.1566 262.723C29.2611 258.591 29.3646 254.46 29.4679 250.328C29.5159 248.42 29.5642 246.512 29.6131 244.603C29.738 239.718 29.8535 234.833 29.954 229.947C29.9945 228.231 30.0543 226.515 30.1172 224.8C30.2507 219.798 29.7982 216.357 27.4614 211.804C26.9072 210.699 26.3531 209.595 25.7822 208.457C24.8729 206.721 24.8729 206.721 23.9453 204.949C23.3205 203.721 22.6975 202.492 22.0763 201.262C20.4473 198.047 18.7949 194.845 17.1368 191.646C15.1257 187.754 13.1425 183.848 11.155 179.945C9.60866 176.909 8.05702 173.876 6.49558 170.848C5.93515 169.76 5.37472 168.671 4.79731 167.55C4.05784 166.119 4.05784 166.119 3.30344 164.66C0.651186 159.248 -0.297587 155.044 -0.265682 149.024C-0.268456 148.213 -0.271231 147.403 -0.274089 146.568C-0.278319 143.837 -0.265414 141.106 -0.250057 138.375C-0.247287 137.429 -0.244518 136.482 -0.241664 135.507C-0.177633 116.426 0.249086 97.3496 0.753987 78.2761C0.812436 76.0005 0.865882 73.7249 0.918034 71.4491C1.00186 67.8322 1.10061 64.216 1.2107 60.5998C1.26809 58.6109 1.3118 56.6215 1.35518 54.6322C1.39498 53.4349 1.43477 52.2377 1.47577 51.0041C1.50464 49.9607 1.53351 48.9173 1.56325 47.8423C2.18166 43.8176 3.93974 41.1828 6.62494 38.1877C10.3748 36.3128 13.9031 36.2276 17.9999 37.0002Z" fill="#4A67FE"/>
<path d="M504.039 37.719C508.031 39.825 510.089 41.9823 512 46.0002C512.377 49.2473 512.377 49.2473 512.38 53.0118C512.385 53.7091 512.39 54.4064 512.395 55.1249C512.406 57.467 512.397 59.8086 512.388 62.1508C512.392 63.8447 512.397 65.5386 512.404 67.2325C512.419 71.8919 512.414 76.5511 512.407 81.2104C512.402 86.2337 512.415 91.257 512.425 96.2803C512.442 106.124 512.443 115.967 512.438 125.81C512.434 133.81 512.435 141.81 512.44 149.81C512.441 150.948 512.442 152.085 512.443 153.257C512.444 155.568 512.446 157.88 512.447 160.191C512.461 181.876 512.456 203.561 512.444 225.246C512.434 245.089 512.447 264.932 512.471 284.776C512.495 305.143 512.505 325.511 512.498 345.878C512.495 357.316 512.497 368.754 512.515 380.192C512.529 389.93 512.53 399.668 512.513 409.406C512.504 414.375 512.502 419.343 512.517 424.313C512.531 428.862 512.526 433.411 512.507 437.96C512.503 439.605 512.506 441.251 512.517 442.896C512.572 452.228 512.579 459.585 506.289 467.024C500.071 472.074 494.757 473.5 486.742 473.305C479.386 472.488 475.119 468.565 470.445 463.098C467.155 458.323 466.692 453.964 466.779 448.282C466.786 447.503 466.792 446.724 466.799 445.921C466.962 434.762 467.785 423.628 468.531 412.496C468.689 410.077 468.846 407.658 469.002 405.239C469.412 398.925 469.827 392.611 470.245 386.297C470.915 376.163 471.577 366.028 472.235 355.893C472.465 352.372 472.699 348.851 472.933 345.329C473.075 343.164 473.216 340.999 473.358 338.834C473.423 337.866 473.488 336.898 473.556 335.901C474.385 323.058 473.435 315.445 466.25 304.5C456.49 289.191 450.09 273.14 447.188 255.188C447.064 254.455 446.939 253.723 446.812 252.968C444.614 237.697 446.06 221.867 447.25 206.563C447.317 205.686 447.383 204.809 447.452 203.905C455.615 96.956 455.615 96.956 478.063 53.4377C478.643 52.3047 478.643 52.3047 479.235 51.1489C484.534 41.4404 492.218 33.5522 504.039 37.719Z" fill="#4A67FE"/>
</g>
<defs>
<clipPath id="clip0_71_809">
<rect width="512" height="512" fill="white"/>
</clipPath>
</defs>
</svg>
