<?xml version="1.0" encoding="UTF-8"?>
<svg version="1.1" xmlns="http://www.w3.org/2000/svg" width="512" height="512">
<path d="M0 0 C0.74766577 -0.00350607 1.49533154 -0.00701215 2.26565385 -0.01062447 C4.76704781 -0.01991671 7.26820785 -0.01502081 9.76961136 -0.01015663 C11.58272721 -0.01389399 13.39584145 -0.01849585 15.20895314 -0.02388728 C20.18861191 -0.03612213 25.16820351 -0.03585623 30.14787388 -0.03349853 C35.51952844 -0.03309048 40.89116142 -0.04412832 46.26280594 -0.05361366 C56.7859557 -0.07022731 67.30908306 -0.07572338 77.83224484 -0.07683842 C86.38604932 -0.07778872 94.9398464 -0.08189813 103.49364853 -0.08823967 C127.74508545 -0.10585308 151.99650466 -0.11507838 176.24794802 -0.11357872 C178.20909343 -0.11345885 178.20909343 -0.11345885 180.20985794 -0.11333656 C182.1733978 -0.11321392 182.1733978 -0.11321392 184.17660514 -0.1130888 C205.39189923 -0.11227588 226.60712233 -0.13141495 247.82239589 -0.1596133 C269.60592473 -0.18833848 291.38941894 -0.20215379 313.1729672 -0.20042574 C325.40283153 -0.19976172 337.63262144 -0.20525965 349.86246872 -0.22678185 C360.27519017 -0.2449888 370.68780346 -0.24934492 381.10053393 -0.235763 C386.41226998 -0.22923095 391.7237985 -0.22912488 397.03551483 -0.2464695 C401.90131688 -0.26219451 406.76674672 -0.25934224 411.63253966 -0.24190123 C413.38958212 -0.23883011 415.14665231 -0.24246797 416.90366206 -0.25362138 C426.34319608 -0.3095582 434.60859486 0.05696607 443.29774857 4.25726891 C439.51160607 8.77685309 435.60650292 13.09376591 431.42900467 17.25299644 C430.59061163 18.09372947 430.59061163 18.09372947 429.73528135 18.95144701 C427.88166989 20.80901317 426.02454555 22.66302476 424.16737747 24.51703453 C422.8295292 25.85623931 421.49189343 27.19565642 420.15445328 28.53526878 C416.53481947 32.15944761 412.91204615 35.78047263 409.28855181 39.40079117 C405.48847062 43.19833307 401.69083849 46.99832284 397.89281082 50.79791832 C391.51428824 57.17825824 385.13366474 63.55649143 378.75185013 69.93353844 C371.38595903 77.2939901 364.02367404 84.65803402 356.66325629 92.02395868 C350.33199965 98.35976163 343.99878586 104.69360328 337.66394937 111.02582693 C333.88561128 114.80261031 330.1079418 118.58005579 326.33203888 122.35927391 C322.78023787 125.91397563 319.2259764 129.46619913 315.66984749 133.01657104 C314.36938816 134.31571444 313.0697673 135.6156978 311.7710743 136.9166069 C305.96948791 142.72717538 300.19851287 148.49588065 293.94659233 153.82728386 C291.44548734 155.99640553 289.14688045 158.34333146 286.83827591 160.71430016 C285.83296801 161.74257104 284.82762593 162.7708085 283.82225418 163.79901695 C283.30328945 164.33183281 282.78432472 164.86464867 282.24963379 165.41361046 C279.4417822 168.29133173 276.61622336 171.15162181 273.79384232 174.01508141 C270.22979333 177.63285896 266.67103372 181.2553835 263.13124466 184.89691734 C260.2457954 187.86435907 257.3427912 190.8136334 254.42798615 193.75223351 C253.33336682 194.86208905 252.24499059 195.97814445 251.16363525 197.10092735 C240.9177712 207.72774453 229.59512701 215.48323378 214.29774857 216.25726891 C199.78328351 216.36963896 188.13879837 211.06598287 177.7853241 201.05167007 C174.90961804 198.20780851 172.0683747 195.33103927 169.23134232 192.44867516 C167.98615473 191.19533195 166.74021476 189.94273585 165.49356461 188.6908474 C162.23017151 185.41043628 158.97546609 182.12154915 155.72304153 178.83026695 C150.51772906 173.56549807 145.29956786 168.31347294 140.0806942 163.06215286 C138.27223609 161.23988128 136.46773455 159.41376631 134.66382217 157.58699608 C133.54115545 156.4542925 132.41840286 155.32167402 131.2955513 154.18915367 C130.80546082 153.69075478 130.31537033 153.19235588 129.81042862 152.67885399 C127.2170612 150.06940927 124.55975595 147.6034717 121.75992203 145.2164669 C115.50363386 139.79168525 109.7484236 133.83879307 103.90517044 127.97821617 C102.56432097 126.63708424 101.2232505 125.29617324 99.88197708 123.95546532 C96.26048962 120.33426353 92.64208313 116.70999751 89.02424049 113.08515477 C85.23573892 109.29038134 81.44438546 105.49845938 77.65333939 101.70622826 C70.48340496 94.53319179 63.31602243 87.3576111 56.14956331 80.18110269 C47.987066 72.00740918 39.82171251 63.83657147 31.65612316 55.66596711 C14.86682834 38.86623342 -1.91889374 22.06293379 -18.70225143 5.25726891 C-13.32398059 0.52439056 -6.90956484 -0.04150147 0 0 Z " fill="#4969FE" transform="translate(43.70225143432617,75.74273109436035)"/>
<path d="M0 0 C3.66969919 1.71511769 5.93004457 3.75165394 8.74609375 6.69140625 C9.6597168 7.63250244 10.57333984 8.57359863 11.51464844 9.54321289 C11.99220581 10.0374173 12.46976318 10.5316217 12.96179199 11.040802 C21.01547416 19.34547472 28.84293011 27.23753628 39 33 C39.81726563 33.48984375 40.63453125 33.9796875 41.4765625 34.484375 C58.53107811 43.92824358 78.47048657 44.80887174 97 40 C119.1776626 33.51315608 134.28259285 15.91252393 150 0 C153.26233121 1.42882214 155.40993909 3.17053252 157.90722656 5.69604492 C158.66191223 6.45410934 159.4165979 7.21217377 160.19415283 7.99320984 C161.00148865 8.81400528 161.80882446 9.63480072 162.640625 10.48046875 C163.48163757 11.32668289 164.32265015 12.17289703 165.18914795 13.04475403 C167.88088337 15.75430529 170.56586526 18.47042077 173.25 21.1875 C175.92066362 23.88589762 178.59280522 26.58278724 181.26800537 29.27668762 C182.93152597 30.95233414 184.5923676 32.63064603 186.25006104 34.3120575 C187.01735535 35.08588272 187.78464966 35.85970795 188.57519531 36.65698242 C189.23819641 37.32823654 189.90119751 37.99949066 190.58428955 38.69108582 C192.55111487 40.57095965 194.54858588 42.34328067 196.6116333 44.11361694 C201.85821485 48.67683265 206.73370583 53.60139675 211.63867188 58.52514648 C212.6839585 59.57071576 213.72946652 60.61606374 214.775177 61.66120911 C217.59090566 64.47665284 220.40355744 67.29515182 223.2156353 70.11424136 C226.1633139 73.0682045 229.11385666 76.01930407 232.06408691 78.97071838 C237.64030519 84.55003501 243.21397114 90.13189406 248.7867074 95.71468836 C255.13544851 102.07463723 261.48705597 108.43172023 267.83889675 114.78857315 C280.89577265 127.85587954 293.94907407 140.92675123 307 154 C301.62172915 158.73287835 295.2073134 159.29877037 288.29774857 159.25726891 C287.5500828 159.26077498 286.80241703 159.26428105 286.03209472 159.26789337 C283.53070075 159.27718562 281.02954072 159.27228971 278.52813721 159.26742554 C276.71502135 159.27116289 274.90190711 159.27576476 273.08879542 159.28115618 C268.10913666 159.29339103 263.12954505 159.29312514 258.14987469 159.29076743 C252.77822013 159.29035939 247.40658714 159.30139722 242.03494263 159.31088257 C231.51179286 159.32749622 220.9886655 159.33299228 210.46550372 159.33410732 C201.91169925 159.33505763 193.35790217 159.33916703 184.80410004 159.34550858 C160.55266312 159.36312199 136.3012439 159.37234729 112.04980054 159.37084763 C110.08865513 159.37072776 110.08865513 159.37072776 108.08789062 159.37060547 C106.77886405 159.37052371 105.46983748 159.37044195 104.12114343 159.37035771 C82.90584934 159.36954478 61.69062623 159.38868386 40.47535267 159.4168822 C18.69182384 159.44560739 -3.09167037 159.4594227 -24.87521863 159.45769465 C-37.10508296 159.45703062 -49.33487288 159.46252855 -61.56472015 159.48405075 C-71.9774416 159.5022577 -82.39005489 159.50661382 -92.80278537 159.4930319 C-98.11452142 159.48649986 -103.42604993 159.48639378 -108.73776627 159.5037384 C-113.60356831 159.51946342 -118.46899816 159.51661115 -123.33479109 159.49917014 C-125.09183355 159.49609901 -126.84890375 159.49973687 -128.60591349 159.51089029 C-138.04544752 159.56682711 -146.3108463 159.20030284 -155 155 C-149.90975463 148.84749928 -144.36445886 143.22254619 -138.71533203 137.5859375 C-137.68289899 136.55214708 -136.65067829 135.51814457 -135.61865234 134.48394775 C-132.83163082 131.69239138 -130.04148422 128.9039787 -127.25060511 126.1162796 C-124.31936485 123.1875841 -121.39058003 120.25643466 -118.46139526 117.32568359 C-113.54230356 112.40477607 -108.62111535 107.48597258 -103.69873047 102.56835938 C-98.02331796 96.89838532 -92.35151259 91.22482211 -86.68157303 85.54937553 C-81.79828983 80.66154084 -76.91304365 75.77567451 -72.02617919 70.89142036 C-69.11415813 67.98095128 -66.20280008 65.06982761 -63.29321671 62.15692139 C-60.55562813 59.41642455 -57.81556737 56.67842287 -55.07365417 53.94225311 C-54.07313253 52.94304344 -53.0734417 51.943001 -52.07468796 50.94202423 C-47.07633897 45.93358457 -42.0370221 41.0514184 -36.66738701 36.441679 C-34.65596543 34.70253612 -32.75540062 32.87582488 -30.87890625 30.99243164 C-30.17878418 30.29223404 -29.47866211 29.59203644 -28.75732422 28.87062073 C-27.67088623 27.77644081 -27.67088623 27.77644081 -26.5625 26.66015625 C-25.79695801 25.89319931 -25.03141602 25.12624237 -24.24267578 24.33604431 C-21.82606803 21.91389119 -19.41298274 19.48826388 -17 17.0625 C-15.35049314 15.40797107 -13.70075571 13.75367198 -12.05078125 12.09960938 C-8.03118629 8.06905798 -4.01446831 4.03565728 0 0 Z " fill="#4969FE" transform="translate(180,277)"/>
<path d="M0 0 C5.29777297 4.42063823 10.21000506 9.09038169 15.05859375 13.99609375 C15.8065773 14.74786392 16.55456085 15.49963409 17.32521057 16.27418518 C20.49644095 19.46162241 23.66166089 22.65500337 26.82739258 25.84790039 C29.15235525 28.19106613 31.48040519 30.53113393 33.80859375 32.87109375 C34.51092636 33.5817247 35.21325897 34.29235565 35.93687439 35.02452087 C36.61440262 35.70535233 37.29193085 36.38618378 37.98999023 37.08764648 C38.57288315 37.67577621 39.15577606 38.26390594 39.7563324 38.86985779 C41.65776653 40.6750829 43.59695773 42.3802193 45.58570862 44.08670044 C50.83929285 48.6607438 55.72493109 53.5925884 60.63867188 58.52514648 C61.6839585 59.57071576 62.72946652 60.61606374 63.775177 61.66120911 C66.59090566 64.47665284 69.40355744 67.29515182 72.2156353 70.11424136 C75.1633139 73.0682045 78.11385666 76.01930407 81.06408691 78.97071838 C86.64030519 84.55003501 92.21397114 90.13189406 97.7867074 95.71468836 C104.13544851 102.07463723 110.48705597 108.43172023 116.83889675 114.78857315 C129.89577265 127.85587954 142.94907407 140.92675123 156 154 C154.48402252 157.56139893 152.40200555 159.84710918 149.67526245 162.57197571 C148.76693161 163.48450104 147.85860077 164.39702637 146.92274475 165.33720398 C145.91327366 166.34119168 144.90370305 167.34507931 143.89404297 168.34887695 C142.83242768 169.41156544 141.77124556 170.47468681 140.71046448 171.53820801 C137.82834259 174.42517794 134.94000679 177.3058566 132.05039358 180.18532586 C129.02258568 183.20434158 126.00005976 186.22863693 122.97683716 189.25224304 C117.89421141 194.33393197 112.80772769 199.4117331 107.71875 204.48706055 C101.84884475 210.34127816 95.98414382 216.20066734 90.12244499 222.06310111 C83.87005119 228.31617279 77.61384518 234.56541975 71.35653162 240.81356788 C69.5608541 242.60712194 67.76588099 244.40137837 65.97106552 246.19579506 C63.1384036 249.02744542 60.30317981 251.85650687 57.46603203 254.68366241 C56.43005081 255.71674524 55.39488851 256.7506501 54.3606472 257.78547478 C49.26357325 262.88433412 44.13349408 267.86854024 38.66107368 272.56407642 C36.61889203 274.32945072 34.69220018 276.18747054 32.78710938 278.09936523 C32.06696655 278.81958359 31.34682373 279.53980194 30.6048584 280.28184509 C29.85869263 281.03317215 29.11252686 281.78449921 28.34375 282.55859375 C27.16214294 283.74232323 27.16214294 283.74232323 25.95666504 284.94996643 C23.46872898 287.44345012 20.98431376 289.94040784 18.5 292.4375 C16.8023159 294.14020587 15.10440142 295.84268207 13.40625 297.54492188 C9.2681672 301.69396412 5.13296065 305.84585576 1 310 C-4.76811818 303.44532025 -4.29079097 295.54201851 -4.26742554 287.29864502 C-4.27195665 286.12436219 -4.27648776 284.95007936 -4.28115618 283.7402122 C-4.29160332 280.49356838 -4.29312997 277.24706436 -4.29076743 274.00040913 C-4.29035835 270.49379717 -4.3014071 266.98721794 -4.31088257 263.48062134 C-4.3274741 256.61511684 -4.33299129 249.7496467 -4.33410732 242.88412383 C-4.33505872 237.30133262 -4.33917356 231.71855271 -4.34550858 226.13576508 C-4.36311627 210.29563049 -4.37234823 194.45552297 -4.37084763 178.61537853 C-4.37076772 177.76197158 -4.3706878 176.90856464 -4.37060547 176.02929688 C-4.37052371 175.17484375 -4.37044195 174.32039062 -4.37035771 173.44004497 C-4.36954503 159.59657476 -4.38867919 145.75321342 -4.4168822 131.90977469 C-4.44563512 117.6837661 -4.45942116 103.45781056 -4.45769465 89.23177218 C-4.45703156 81.24963453 -4.46248824 73.267611 -4.48405075 65.28549957 C-4.50229432 58.48862338 -4.50658395 51.69191302 -4.4930319 44.8950229 C-4.48651805 41.43028949 -4.48632707 37.96587395 -4.5037384 34.50117111 C-4.51920233 30.73692833 -4.50987357 26.97351482 -4.49447632 23.20928955 C-4.50476344 22.12551254 -4.51505057 21.04173552 -4.52564943 19.92511678 C-4.45962406 12.59723445 -2.9132206 6.71569407 0 0 Z " fill="#4969FE" transform="translate(4,101)"/>
<path d="M0 0 C5.76811818 6.55467975 5.29079097 14.45798149 5.26742554 22.70135498 C5.27195665 23.87563781 5.27648776 25.04992064 5.28115618 26.2597878 C5.29160332 29.50643162 5.29312997 32.75293564 5.29076743 35.99959087 C5.29035835 39.50620283 5.3014071 43.01278206 5.31088257 46.51937866 C5.3274741 53.38488316 5.33299129 60.2503533 5.33410732 67.11587617 C5.33505872 72.69866738 5.33917356 78.28144729 5.34550858 83.86423492 C5.36311627 99.70436951 5.37234823 115.54447703 5.37084763 131.38462147 C5.37076772 132.23802842 5.3706878 133.09143536 5.37060547 133.97070312 C5.37052371 134.82515625 5.37044195 135.67960938 5.37035771 136.55995503 C5.36954503 150.40342524 5.38867919 164.24678658 5.4168822 178.09022531 C5.44563512 192.3162339 5.45942116 206.54218944 5.45769465 220.76822782 C5.45703156 228.75036547 5.46248824 236.732389 5.48405075 244.71450043 C5.50229432 251.51137662 5.50658395 258.30808698 5.4930319 265.1049771 C5.48651805 268.56971051 5.48632707 272.03412605 5.5037384 275.49882889 C5.51920233 279.26307167 5.50987357 283.02648518 5.49447632 286.79071045 C5.50476344 287.87448746 5.51505057 288.95826448 5.52564943 290.07488322 C5.45962406 297.40276555 3.9132206 303.28430593 1 310 C-4.3789643 305.51569523 -9.35541994 300.76332087 -14.27734375 295.78515625 C-15.04752335 295.01119003 -15.81770294 294.23722382 -16.61122131 293.43980408 C-19.87802854 290.15678267 -23.13883041 286.86782055 -26.40014648 283.5793457 C-28.79461138 281.16668469 -31.19215797 278.75711573 -33.58984375 276.34765625 C-34.31405014 275.61515152 -35.03825653 274.88264679 -35.78440857 274.12794495 C-36.83073204 273.07666664 -36.83073204 273.07666664 -37.89819336 272.00415039 C-38.79918007 271.09530846 -38.79918007 271.09530846 -39.71836853 270.16810608 C-41.6362599 268.34564176 -43.59065864 266.62394753 -45.59718323 264.90182495 C-50.81458773 260.3601255 -55.66745195 255.46494279 -60.546875 250.56665039 C-61.58230953 249.5309332 -62.61796547 248.49543732 -63.65382385 247.46014404 C-66.44269389 244.6715589 -69.22848723 241.8799189 -72.01370621 239.08768773 C-74.93335731 236.16175154 -77.8558731 233.23867944 -80.77807617 230.31529236 C-86.3011706 224.78909974 -91.82171269 219.26036478 -97.34132481 213.73069423 C-103.62960731 207.43120347 -109.92075662 201.13457899 -116.21213913 194.83818448 C-129.14460111 181.89529236 -142.07348854 168.94883497 -155 156 C-153.48402252 152.43860107 -151.40200555 150.15289082 -148.67526245 147.42802429 C-147.31276619 146.0592363 -147.31276619 146.0592363 -145.92274475 144.66279602 C-144.91327366 143.65880832 -143.90370305 142.65492069 -142.89404297 141.65112305 C-141.83242768 140.58843456 -140.77124556 139.52531319 -139.71046448 138.46179199 C-136.82834259 135.57482206 -133.94000679 132.6941434 -131.05039358 129.81467414 C-128.02258568 126.79565842 -125.00005976 123.77136307 -121.97683716 120.74775696 C-116.89421141 115.66606803 -111.80772769 110.5882669 -106.71875 105.51293945 C-100.84884475 99.65872184 -94.98414382 93.79933266 -89.12244499 87.93689889 C-82.87005119 81.68382721 -76.61384518 75.43458025 -70.35653162 69.18643212 C-68.5608541 67.39287806 -66.76588099 65.59862163 -64.97106552 63.80420494 C-62.1384036 60.97255458 -59.30317981 58.14349313 -56.46603203 55.31633759 C-55.43005081 54.28325476 -54.39488851 53.2493499 -53.3606472 52.21452522 C-48.26357325 47.11566588 -43.13349408 42.13145976 -37.66107368 37.43592358 C-35.61889203 35.67054928 -33.69220018 33.81252946 -31.78710938 31.90063477 C-31.06696655 31.18041641 -30.34682373 30.46019806 -29.6048584 29.71815491 C-28.85869263 28.96682785 -28.11252686 28.21550079 -27.34375 27.44140625 C-26.55601196 26.65225327 -25.76827393 25.86310028 -24.95666504 25.05003357 C-22.46872898 22.55654988 -19.98431376 20.05959216 -17.5 17.5625 C-15.8023159 15.85979413 -14.10440142 14.15731793 -12.40625 12.45507812 C-8.2681672 8.30603588 -4.13296065 4.15414424 0 0 Z " fill="#4969FE" transform="translate(507,101)"/>
</svg>
