<?xml version="1.0" encoding="UTF-8"?>
<svg version="1.1" xmlns="http://www.w3.org/2000/svg" width="512" height="512">
<path d="M0 0 C20.79 0 41.58 0 63 0 C63.02578125 7.25613281 63.0515625 14.51226562 63.078125 21.98828125 C63.10328315 26.57750964 63.12960809 31.16667145 63.16015625 35.75585938 C63.20856179 43.04451782 63.25257955 50.33302223 63.27099609 57.62182617 C63.28610906 63.49640622 63.32045908 69.37058412 63.36830902 75.24498558 C63.38317825 77.48929543 63.39104417 79.73366267 63.39188385 81.97802162 C63.39423858 85.11510018 63.42119795 88.25105376 63.45410156 91.38793945 C63.4490712 92.32157822 63.44404083 93.25521698 63.43885803 94.21714783 C63.39591249 99.10351063 63.39591249 99.10351063 65.85597229 103.10777283 C68.97150067 104.40428549 70.77273429 103.9095681 74 103 C77.1771209 101.60345024 77.1771209 101.60345024 80.39453125 99.796875 C80.98618576 99.47720764 81.57784027 99.15754028 82.18742371 98.82818604 C84.06695489 97.81016918 85.93969181 96.78032251 87.8125 95.75 C89.05751681 95.07343443 90.30295649 94.39764639 91.54882812 93.72265625 C92.76827039 93.05997169 93.98767199 92.39721228 95.20703125 91.734375 C95.79976837 91.41327759 96.39250549 91.09218018 97.00320435 90.76135254 C99.61291289 89.33965892 102.18432809 87.88667948 104.71630859 86.33007812 C110.34345077 82.8948296 110.34345077 82.8948296 113.51171875 83.40234375 C114.33285156 83.92957031 115.15398437 84.45679688 116 85 C117.35639916 85.69718847 118.71764665 86.38497754 120.08203125 87.06640625 C121.66036191 87.89557381 123.23710873 88.72776121 124.8125 89.5625 C125.64475098 89.99997559 126.47700195 90.43745117 127.33447266 90.88818359 C131.47428649 93.07734926 135.57818132 95.3098436 139.62890625 97.66015625 C140.34651123 98.07515381 141.06411621 98.49015137 141.8034668 98.91772461 C143.15314193 99.70430605 144.49740476 100.50027232 145.83520508 101.30688477 C149.37181119 103.36986599 151.88718824 104.55888383 156 104 C156.99 103.67 157.98 103.34 159 103 C160.02749868 100.2743007 160.13253037 97.65229582 160.15821838 94.76055908 C160.1680072 93.92205917 160.17779602 93.08355927 160.18788147 92.21965027 C160.19363693 91.30830826 160.1993924 90.39696625 160.20532227 89.45800781 C160.21522186 88.49182022 160.22512146 87.52563263 160.23532104 86.53016663 C160.26689842 83.33784431 160.29167869 80.14550712 160.31640625 76.953125 C160.33697902 74.73923354 160.35797558 72.52534598 160.37937927 70.3114624 C160.43456656 64.48524128 160.48399063 58.6589849 160.53222656 52.83270264 C160.5912994 45.8417424 160.65750902 38.85084657 160.72252655 31.85993958 C160.82049401 21.23999906 160.90937894 10.62001719 161 0 C181.79 0 202.58 0 224 0 C224 44.55 224 89.1 224 135 C214.1 135.99 214.1 135.99 204 137 C189.43324365 140.61657399 178.5731145 145.45845787 167 155 C166.01 155.721875 165.02 156.44375 164 157.1875 C150.87433941 168.38612455 144.16184011 185.58275328 141 202 C140.67 208.93 140.34 215.86 140 223 C93.8 223 47.6 223 0 223 C0 149.41 0 75.82 0 0 Z " fill="#4969FE" transform="translate(134,125)"/>
<path d="M0 0 C6.05146384 1.11149336 10.52699431 5.6786132 15.0625 9.625 C20.41526968 14.2260908 25.8917358 18.63453102 31.48046875 22.94555664 C38.81615039 28.62922065 38.81615039 28.62922065 39.58178711 31.52978516 C39.80620104 38.51690113 37.21948841 41.90856398 32.625 46.9375 C31.33578843 48.42044333 30.04672598 49.90351632 28.7578125 51.38671875 C28.12520508 52.09876465 27.49259766 52.81081055 26.84082031 53.54443359 C24.4823295 56.22088679 22.24048891 58.97407222 20 61.75 C19.30648437 62.59691406 18.61296875 63.44382813 17.8984375 64.31640625 C16.75378957 65.71677339 15.61255404 67.11994536 14.4765625 68.52734375 C10.50812015 73.40187554 10.50812015 73.40187554 6.25 73.875 C2.24017106 73.48187952 0.77803356 72.51079358 -1.9375 69.5625 C-3.35700597 65.80498421 -3.18109041 64.14247717 -1.625 60.4375 C1.99097852 54.73686482 6.66633097 49.67178806 11.0625 44.5625 C-42.9725119 48.10684649 -94.47097513 75.68073323 -130.05859375 116.125 C-167.15180619 159.67541965 -185.52034564 215.67882377 -181.7265625 272.73486328 C-178.61341261 310.69996204 -165.96655579 347.40314669 -143.9375 378.5625 C-143.18855469 379.6246875 -142.43960938 380.686875 -141.66796875 381.78125 C-130.46553796 397.12151558 -117.85114687 410.78331439 -102.9375 422.5625 C-101.98488281 423.34367187 -101.03226562 424.12484375 -100.05078125 424.9296875 C-74.72106415 445.23238008 -43.8659871 459.15075656 -12.08203125 465.48046875 C-8.27624749 466.79003658 -6.47165627 468.46989077 -3.9375 471.5625 C-3.21880227 475.39555454 -3.61218576 476.99945612 -5.5625 480.375 C-8.58794336 483.16159257 -9.82506513 483.31738799 -13.9375 483.5625 C-17.67041621 482.99877378 -21.2873084 482.07953094 -24.9375 481.125 C-25.99259766 480.85349121 -27.04769531 480.58198242 -28.13476562 480.30224609 C-44.87531126 475.85725644 -60.71283631 469.80085816 -75.9375 461.5625 C-77.02756348 460.98628906 -77.02756348 460.98628906 -78.13964844 460.3984375 C-106.9264476 445.17642003 -133.22879151 423.50940866 -152.66699219 397.27294922 C-153.88881192 395.6280474 -155.13381214 394.00320962 -156.3828125 392.37890625 C-192.45105979 344.63127881 -206.06134324 281.77665165 -197.9765625 223.015625 C-188.97160751 164.18802641 -157.8436002 108.54479292 -109.65673828 72.83740234 C-107.98778678 71.5997902 -106.33572447 70.34196181 -104.68359375 69.08203125 C-72.60955351 45.01335793 -33.63592974 31.01023825 6.0625 26.5625 C2.46270956 22.85021611 -1.32097519 19.45733588 -5.265625 16.11328125 C-7.74451522 13.81393682 -7.92437945 12.67839821 -8.3125 9.25 C-7.9375 5.5625 -7.9375 5.5625 -5.8125 2.625 C-2.9375 0.5625 -2.9375 0.5625 0 0 Z " fill="#4969FE" transform="translate(224.9375,-0.5625)"/>
<path d="M0 0 C14.57127302 7.4309289 28.01745352 15.93170343 40.8125 26.125 C41.37388672 26.56924316 41.93527344 27.01348633 42.51367188 27.47119141 C55.91725676 38.1675096 68.48983373 50.42107909 78.8125 64.125 C79.28187988 64.7344043 79.75125977 65.34380859 80.23486328 65.97167969 C117.72454042 114.83224158 133.73422995 176.4580878 126.29321289 237.48364258 C118.20433141 296.52040443 87.53567725 352.80818654 39.8125 389.125 C39.27753906 389.54168945 38.74257813 389.95837891 38.19140625 390.38769531 C4.55405362 416.5310119 -35.97921749 432.22386494 -78.1875 437.125 C-74.55701461 440.81260842 -70.80340831 444.23068675 -66.859375 447.57421875 C-64.38048478 449.87356318 -64.20062055 451.00910179 -63.8125 454.4375 C-64.1875 458.125 -64.1875 458.125 -66.3125 461.0625 C-69.74606606 463.52571043 -71.05022592 463.56809536 -75.1875 463.125 C-77.72265625 461.76171875 -77.72265625 461.76171875 -80.25 459.8125 C-81.20003906 459.08289063 -82.15007812 458.35328125 -83.12890625 457.6015625 C-87.46017665 454.09450575 -91.72546198 450.51775877 -95.953125 446.88671875 C-99.95608541 443.45233323 -104.04646471 440.12971363 -108.140625 436.8046875 C-111.15040731 434.33482797 -111.15040731 434.33482797 -111.50268555 432.34204102 C-111.84769572 426.48440926 -110.67183306 423.51668155 -106.8684082 419.09985352 C-106.2518335 418.42752686 -105.63525879 417.7552002 -105 417.0625 C-103.7176628 415.59209327 -102.43644091 414.12071325 -101.15625 412.6484375 C-100.49882812 411.90561523 -99.84140625 411.16279297 -99.1640625 410.39746094 C-95.41983666 406.09271117 -91.91053706 401.59485085 -88.36450195 397.12670898 C-87.85878662 396.49837158 -87.35307129 395.87003418 -86.83203125 395.22265625 C-86.39221924 394.67101807 -85.95240723 394.11937988 -85.49926758 393.55102539 C-83.27902457 391.13739438 -81.550016 390.1722847 -78.3125 389.75 C-74.37148475 390.22292183 -72.865667 391.21727583 -70.1875 394.125 C-68.76799403 397.88251579 -68.94390959 399.54502283 -70.5 403.25 C-74.11597852 408.95063518 -78.79133097 414.01571194 -83.1875 419.125 C-31.36509956 415.28630367 20.98191594 389.88486726 55.18359375 350.38671875 C57.3938449 347.63330569 59.60355369 344.87946001 61.8125 342.125 C62.46089844 341.35542969 63.10929688 340.58585937 63.77734375 339.79296875 C98.4690572 298.14872378 113.61620951 242.26596033 109.34375 188.72265625 C105.85585733 151.46917219 93.46508701 115.75185097 71.8125 85.125 C71.06355469 84.0628125 70.31460938 83.000625 69.54296875 81.90625 C58.34053796 66.56598442 45.72614687 52.90418561 30.8125 41.125 C29.85988281 40.34382813 28.90726563 39.56265625 27.92578125 38.7578125 C2.59606415 18.45511992 -28.2590129 4.53674344 -60.04296875 -1.79296875 C-63.84875251 -3.10253658 -65.65334373 -4.78239077 -68.1875 -7.875 C-68.92557041 -11.8113755 -68.54886708 -13.31425798 -66.375 -16.6875 C-54.71320913 -28.34929087 -12.60509877 -6.23296411 0 0 Z " fill="#4969FE" transform="translate(359.1875,48.875)"/>
<path d="M0 0 C13.98158844 11.9257234 22.25799057 27.64319667 23.890625 45.98046875 C24.44506828 63.55632071 19.10264402 79.60169938 7.2578125 92.7578125 C-4.72393008 105.45243701 -20.01862584 112.73947337 -37.5 113.46923828 C-56.49572688 113.57306474 -72.86099067 106.48297698 -86.4296875 93.3828125 C-100.13862497 77.85675077 -103.45504482 60.96479894 -102.62060547 40.95556641 C-101.54167462 26.41621442 -93.03234463 12.06700237 -82.4296875 2.3828125 C-58.4855684 -17.05234911 -24.76121391 -19.73091476 0 0 Z M-33.4296875 44.3203125 C-34.79013068 45.68577995 -36.15080581 47.05101636 -37.51171875 48.41601562 C-40.8203906 51.73562136 -44.12590072 55.05834523 -47.4296875 58.3828125 C-50.66790031 56.97359439 -52.68333078 55.30591086 -55.07421875 52.72265625 C-55.75162109 52.01173828 -56.42902344 51.30082031 -57.12695312 50.56835938 C-58.53357686 49.07341577 -59.93209737 47.57080478 -61.32226562 46.06054688 C-65.58697378 41.46247068 -65.58697378 41.46247068 -71.29296875 39.3203125 C-74.38593642 39.17792054 -74.38593642 39.17792054 -76.8046875 40.4453125 C-79.04542838 43.11696509 -79.36026854 44.91186449 -79.4296875 48.3828125 C-77.34642338 52.57982966 -74.47852995 55.57895074 -71.17578125 58.8671875 C-70.67426041 59.36825012 -70.17273956 59.86931274 -69.65602112 60.38555908 C-68.6019077 61.43666716 -67.54538073 62.4853598 -66.48657227 63.53173828 C-64.86346452 65.13649338 -63.24859798 66.74920382 -61.63476562 68.36328125 C-56.08194934 74.54839339 -56.08194934 74.54839339 -48.8046875 77.8828125 C-40.92380405 76.71527421 -34.26015198 67.36094114 -28.80859375 61.89453125 C-28.02322739 61.11012161 -27.23786102 60.32571198 -26.42869568 59.51753235 C-24.78465033 57.87416274 -23.14184797 56.22954875 -21.50024414 54.58374023 C-18.9785153 52.05661102 -16.45143586 49.53491962 -13.92382812 47.01367188 C-12.32259555 45.41177926 -10.72167279 43.80957687 -9.12109375 42.20703125 C-8.36389542 41.45185715 -7.60669708 40.69668304 -6.82655334 39.91862488 C-6.13170334 39.22062271 -5.43685333 38.52262054 -4.72094727 37.8034668 C-4.10776138 37.18948532 -3.4945755 36.57550385 -2.86280823 35.94291687 C-0.82721114 33.72695289 -0.44674407 32.53973295 -0.1171875 29.5078125 C-0.18183833 26.33756483 -0.18183833 26.33756483 -2.0546875 24.0078125 C-4.35429587 22.23235847 -4.35429587 22.23235847 -7.1796875 21.6953125 C-17.07733652 23.78904595 -26.44999999 37.29561119 -33.4296875 44.3203125 Z " fill="#4A69FE" transform="translate(391.4296875,288.6171875)"/>
<path d="M0 0 C22.44 0 44.88 0 68 0 C68 27.72 68 55.44 68 84 C64.05316054 83.21063211 62.16964837 82.75782476 58.890625 80.890625 C58.13523437 80.46523437 57.37984375 80.03984375 56.6015625 79.6015625 C55.43753906 78.93253906 55.43753906 78.93253906 54.25 78.25 C53.48945313 77.81945312 52.72890625 77.38890625 51.9453125 76.9453125 C51.18476563 76.51476562 50.42421875 76.08421875 49.640625 75.640625 C48.4949707 74.99577148 48.4949707 74.99577148 47.32617188 74.33789062 C45.74313488 73.42741175 44.17692116 72.48718463 42.62695312 71.52148438 C41.85802734 71.05548828 41.08910156 70.58949219 40.296875 70.109375 C39.61463867 69.68108398 38.93240234 69.25279297 38.22949219 68.81152344 C34.00223299 67.27282331 30.72308497 68.6652689 26.78027344 70.49047852 C25.65137695 71.11365967 24.52248047 71.73684082 23.359375 72.37890625 C22.75111877 72.71043198 22.14286255 73.0419577 21.51617432 73.38352966 C19.58950781 74.43502836 17.66946676 75.49792382 15.75 76.5625 C13.81542982 77.6290123 11.87955374 78.69296543 9.940979 79.75218201 C8.19166785 80.70889939 6.44679132 81.67371197 4.70214844 82.63891602 C2 84 2 84 0 84 C0 56.28 0 28.56 0 0 Z " fill="#4969FE" transform="translate(212,125)"/>
</svg>
