<?xml version="1.0" encoding="UTF-8"?>
<svg version="1.1" xmlns="http://www.w3.org/2000/svg" width="512" height="512">
<path d="M0 0 C147.84 0 295.68 0 448 0 C448.0825 41.0025 448.165 82.005 448.25 124.25 C448.28641602 137.19250977 448.32283203 150.13501953 448.36035156 163.46972656 C448.37841797 179.28466797 448.37841797 179.28466797 448.3817749 186.69036865 C448.38549867 191.85823355 448.40014424 197.02597264 448.42230225 202.19378662 C448.45055045 208.79179643 448.45795385 215.38961494 448.4522891 221.98769712 C448.45347315 224.40534027 448.46137059 226.82299199 448.47686052 229.2405858 C448.59235488 248.14932399 447.05777244 261.33911673 433.6875 275.75 C422.32136861 286.50723149 409.87771863 288.45496849 394.75564575 288.38768005 C393.22113782 288.39185836 391.68663298 288.39733859 390.15213382 288.40399987 C385.95644706 288.4184081 381.76095751 288.41422428 377.56526017 288.40683305 C373.03208481 288.4020922 368.49895155 288.41461935 363.96578979 288.42485046 C355.09305246 288.4420259 346.22038599 288.44288107 337.34763636 288.43763756 C330.13401137 288.43359225 322.92040729 288.43504371 315.70678329 288.44038582 C314.16536108 288.44150845 314.16536108 288.44150845 312.59279903 288.44265376 C310.50503914 288.44418528 308.41727926 288.44572363 306.32951938 288.44726873 C286.7612242 288.46098926 267.19296904 288.45555925 247.62467478 288.44408352 C229.73403229 288.43415189 211.84349323 288.44709141 193.95286669 288.47101771 C175.56943966 288.49541727 157.1860608 288.50501445 138.80261791 288.49836498 C128.48704513 288.49487464 118.17155188 288.49709266 107.85599136 288.51461601 C99.07452226 288.52934869 90.2931887 288.52995948 81.51172222 288.5125451 C77.03424205 288.50404149 72.5570039 288.5018699 68.07953644 288.51719666 C63.97491132 288.53107282 59.87073491 288.52624327 55.76613556 288.50695742 C54.28709341 288.50320605 52.80801507 288.50609436 51.32900526 288.51656907 C35.4285539 288.6211073 23.93029027 284.52435574 12.25 273.6875 C2.99085309 263.90425044 -0.48329284 252.5344883 -0.36076355 239.30648804 C-0.3633316 238.27951813 -0.36589966 237.25254822 -0.36854553 236.19445801 C-0.37348182 232.76798516 -0.35698889 229.34195949 -0.34057617 225.91552734 C-0.33965654 223.41123277 -0.34005872 220.90693742 -0.34167194 218.4026432 C-0.34227932 212.38869587 -0.32946593 206.37491951 -0.31016796 200.36101494 C-0.28849883 193.39862426 -0.28617994 186.43630054 -0.28381348 179.47387695 C-0.26808671 161.10756331 -0.22620311 142.7412796 -0.1875 124.375 C-0.125625 83.33125 -0.06375 42.2875 0 0 Z M287.671875 73.5390625 C285.02649255 75.97559896 282.30094564 78.2450014 279.5 80.5 C275.9052235 83.4081338 272.41739372 86.38541332 269 89.5 C264.70008209 93.41891252 260.24080453 97.09170869 255.71875 100.75 C253.07852271 102.93501569 250.5327028 105.19171391 248 107.5 C243.70008209 111.41891252 239.24080453 115.09170869 234.71875 118.75 C232.07852271 120.93501569 229.5327028 123.19171391 227 125.5 C223.58260628 128.61458668 220.0947765 131.5918662 216.5 134.5 C211.9676623 138.16812076 207.61530331 141.98906088 203.3046875 145.9140625 C200.25569294 148.67366097 197.13659453 151.34071334 194 154 C190.78885242 152.58771751 188.66664384 150.90234223 186.21289062 148.40820312 C185.48533569 147.67404175 184.75778076 146.93988037 184.00817871 146.18347168 C183.23204224 145.39073853 182.45590576 144.59800537 181.65625 143.78125 C180.85014282 142.96756958 180.04403564 142.15388916 179.21350098 141.31555176 C175.76483063 137.8341657 172.32808084 134.34109464 168.89013672 130.84912109 C166.37873316 128.30161641 163.86141311 125.76006614 161.34375 123.21875 C160.56761353 122.42601685 159.79147705 121.63328369 158.99182129 120.81652832 C158.26426636 120.08236694 157.53671143 119.34820557 156.78710938 118.59179688 C156.15075562 117.94496948 155.51440186 117.29814209 154.85876465 116.63171387 C150.88274799 113.14137338 147.46877294 112.54723414 142.3125 112.69140625 C137.82837971 113.28979392 134.65031639 115.11531915 131.6796875 118.5078125 C129.07188538 122.42863387 128.53694916 126.04533852 128.46875 130.69140625 C129.73872521 136.21019559 134.09292491 140.3445817 137.98046875 144.23925781 C138.70322495 144.96727097 138.70322495 144.96727097 139.44058228 145.70999146 C141.0179313 147.29606812 142.60239318 148.87480428 144.1875 150.453125 C145.2935051 151.56047889 146.3992133 152.6681294 147.50463867 153.77606201 C149.81463598 156.08899805 152.12818707 158.39830271 154.44433594 160.70507812 C157.41020686 163.65952851 160.36697214 166.62290369 163.32115173 169.58903885 C165.59949895 171.87461565 167.8825913 174.15540447 170.16714478 176.43477631 C171.2594374 177.52573687 172.35025209 178.61817929 173.43954468 179.71213531 C174.96141596 181.23909277 176.48956367 182.75948094 178.01953125 184.27832031 C178.88682861 185.14402649 179.75412598 186.00973267 180.64770508 186.90167236 C184.29648993 190.15651342 187.00562878 191.2991531 191.875 191.375 C192.69742188 191.40335937 193.51984375 191.43171875 194.3671875 191.4609375 C200.36876558 190.41021612 205.02547632 185.41136853 209.5 181.5 C210.7395064 180.42699446 211.97909196 179.35408035 213.21875 178.28125 C213.84652344 177.73597656 214.47429687 177.19070313 215.12109375 176.62890625 C218.0694941 174.07280865 221.03516275 171.53699151 224 169 C225.16675868 168.00010736 226.33342514 167.0001071 227.5 166 C290.5 112 290.5 112 292.25244141 110.49829102 C293.41147644 109.50457796 294.57001067 108.51028046 295.72802734 107.51538086 C298.75747578 104.91401594 301.79662521 102.3253117 304.8515625 99.75390625 C305.48320312 99.21958984 306.11484375 98.68527344 306.765625 98.13476562 C307.9681408 97.11793241 309.17367886 96.10465797 310.3828125 95.09570312 C317.04004926 89.55012456 317.04004926 89.55012456 320 81.6875 C320.34423553 76.64990693 319.00945603 73.01866938 316 69 C305.49921736 59.69248811 296.43800759 65.33077471 287.671875 73.5390625 Z " fill="#4969FE" transform="translate(32,192)"/>
<path d="M0 0 C5.4521357 2.53134872 6.4759981 4.71399714 10 10 C10 17.26 10 24.52 10 32 C62.8 32 115.6 32 170 32 C170 24.74 170 17.48 170 10 C175.17241379 2.24137931 175.17241379 2.24137931 180 0 C185.5997712 -0.75381535 190.33499991 -0.77303575 195.5 1.625 C199.06513686 5.01188002 201.69639119 7.58455122 202.3203125 12.54833984 C202.39313609 15.50022395 202.3490024 18.42396697 202.25 21.375 C202.23195313 22.39722656 202.21390625 23.41945313 202.1953125 24.47265625 C202.14839491 26.98274749 202.08276729 29.49087764 202 32 C202.9004303 31.99111755 203.8008606 31.98223511 204.72857666 31.9730835 C213.26014945 31.89256779 221.79159261 31.83184894 230.32345963 31.79275131 C234.70864466 31.77197428 239.09351287 31.74384014 243.47851562 31.69824219 C247.71904312 31.65442808 251.959268 31.63078879 256.20000458 31.62049103 C257.80896511 31.61316287 259.41791116 31.59885471 261.02674103 31.57707977 C277.45864697 31.36374824 289.51081148 34.95710408 301.75 46.3125 C322.35597071 68.08484641 314 100.35164719 314 128 C166.16 128 18.32 128 -134 128 C-134 59.67644458 -134 59.67644458 -119.6875 44.25 C-107.72366038 32.92708036 -94.53987962 31.54869235 -78.8359375 31.70703125 C-77.19113556 31.71263703 -75.54632855 31.71690248 -73.90151978 31.71989441 C-69.60412395 31.73126596 -65.30703965 31.76066543 -61.00976562 31.79400635 C-56.61202201 31.8248745 -52.21422732 31.83843528 -47.81640625 31.85351562 C-39.21079566 31.88554376 -30.60543675 31.93664515 -22 32 C-22.0314209 31.04746338 -22.0314209 31.04746338 -22.06347656 30.07568359 C-22.14704581 27.17561924 -22.19878774 24.27580884 -22.25 21.375 C-22.28351563 20.37597656 -22.31703125 19.37695312 -22.3515625 18.34765625 C-22.43315123 12.18770715 -22.1132688 8.68372214 -18 4 C-12.72867143 -1.00776214 -6.89190982 -0.92775709 0 0 Z " fill="#4A6AFE" transform="translate(166,32)"/>
</svg>
