<?xml version="1.0" encoding="UTF-8"?>
<svg version="1.1" xmlns="http://www.w3.org/2000/svg" width="512" height="512">
<path d="M0 0 C0.92649857 -0.0049649 1.85299713 -0.00992981 2.80757141 -0.01504517 C5.85438806 -0.02957393 8.90115253 -0.0364559 11.94799805 -0.04199219 C13.52320756 -0.04623325 13.52320756 -0.04623325 15.13023949 -0.05056 C20.69587833 -0.06552071 26.26149149 -0.07476785 31.82714844 -0.07910156 C37.52433085 -0.08455854 43.22127094 -0.10853673 48.91837788 -0.13707352 C53.34299866 -0.15587599 57.76756336 -0.16091493 62.19222069 -0.16243744 C64.28938294 -0.16542874 66.38654508 -0.17333496 68.48366737 -0.18662262 C85.36737787 -0.2859003 101.68882355 0.99638667 117.9597168 5.84863281 C118.82556396 6.10281982 119.69141113 6.35700684 120.58349609 6.61889648 C139.5941331 12.4198407 157.75728289 21.91184107 173.3972168 34.16113281 C174.25186523 34.81210937 175.10651367 35.46308594 175.98706055 36.13378906 C216.31602017 67.81659875 233.36676542 110.86743479 240.77905273 160.11865234 C241.29074582 163.50361547 241.849737 166.87806686 242.4362793 170.25097656 C245.84048586 190.15524069 246.30749076 208.3814271 235.3972168 226.16113281 C226.09369253 238.42566574 213.79585085 247.50754937 198.3972168 250.16113281 C194.08083589 250.44940812 189.77493041 250.43967291 185.45014954 250.42855835 C184.15391684 250.43308946 182.85768415 250.43762058 181.52217168 250.44228899 C177.93961813 250.45447907 174.35715824 250.45426326 170.7745887 250.45190024 C166.90462767 250.45149106 163.03469627 250.46254096 159.16474915 250.47201538 C151.58817034 250.48860482 144.01162267 250.49412401 136.43502722 250.49524014 C130.27352081 250.49619166 124.11202464 250.50030717 117.95052147 250.50664139 C100.46630105 250.5242488 82.98210514 250.53348113 65.49787579 250.53198044 C64.55594982 250.53190053 63.61402386 250.53182062 62.64355469 250.53173828 C61.22893251 250.53161564 61.22893251 250.53161564 59.78573211 250.53149052 C44.50811212 250.53067794 29.23059079 250.54980991 13.95299933 250.57801501 C-1.74884604 250.60677367 -17.45064334 250.62055364 -33.15251571 250.61882746 C-41.9618899 250.61816455 -50.77116068 250.62361326 -59.58051109 250.64518356 C-67.08217477 250.66343471 -74.58368816 250.66771056 -82.08536448 250.65416472 C-85.90881392 250.64765461 -89.73197536 250.64744637 -93.55539703 250.66487122 C-97.71074627 250.68361305 -101.86543471 250.67099643 -106.02079773 250.65560913 C-107.21479539 250.66589626 -108.40879305 250.67618338 -109.63897246 250.68678224 C-126.65023341 250.54815655 -139.79746433 244.08391755 -151.6027832 232.16113281 C-161.10016393 221.96297448 -166.01222453 208.62988086 -165.9543457 194.74707031 C-165.95149567 193.93756927 -165.94864563 193.12806824 -165.94570923 192.29403687 C-165.75384596 182.11452508 -164.15056713 172.12276791 -162.5144043 162.09179688 C-161.98005238 158.80011127 -161.47546029 155.50482732 -160.97387695 152.20800781 C-156.02787015 120.60463318 -146.12782658 91.71504425 -126.6027832 66.16113281 C-125.55864258 64.77861328 -125.55864258 64.77861328 -124.4934082 63.36816406 C-96.94205929 28.30751893 -56.05600429 5.81835887 -11.89184189 0.38077259 C-7.93047519 0.0006715 -3.97683092 0.00518272 0 0 Z " fill="#4969FE" transform="translate(216.602783203125,253.8388671875)"/>
<path d="M0 0 C2.46380735 1.93860704 4.82911933 3.94940676 7.1796875 6.0234375 C7.99824219 6.71050781 8.81679688 7.39757812 9.66015625 8.10546875 C29.44796848 25.13219091 43.81434134 50.7456927 46.1796875 77.0234375 C46.79962111 91.46057604 47.28939462 106.05374757 43.1796875 120.0234375 C42.839375 121.24417969 42.4990625 122.46492187 42.1484375 123.72265625 C37.76924579 138.11776955 30.69016616 150.37898218 21.1796875 162.0234375 C20.53257812 162.82394531 19.88546875 163.62445313 19.21875 164.44921875 C4.02534372 182.40224372 -17.30381237 193.4390224 -39.8203125 199.0234375 C-40.77808594 199.2709375 -41.73585938 199.5184375 -42.72265625 199.7734375 C-69.80887838 205.50092059 -99.06347708 199.17490993 -122.56640625 185.1640625 C-127.65340346 181.81751452 -132.23753706 178.02055473 -136.8203125 174.0234375 C-137.50351563 173.48460937 -138.18671875 172.94578125 -138.890625 172.390625 C-157.85011663 157.11556899 -170.42713686 130.96987582 -173.62402344 107.21972656 C-176.23697017 77.98332256 -171.38505974 48.28934799 -152.8828125 24.7109375 C-151.54256992 23.13647777 -150.18831401 21.57383921 -148.8203125 20.0234375 C-148.13324219 19.20488281 -147.44617188 18.38632812 -146.73828125 17.54296875 C-110.70827229 -24.32974437 -45.09531533 -31.60419606 0 0 Z " fill="#4969FE" transform="translate(319.8203125,26.9765625)"/>
</svg>
