<?xml version="1.0" encoding="UTF-8"?>
<svg version="1.1" xmlns="http://www.w3.org/2000/svg" width="512" height="512">
<path d="M0 0 C0.66016963 0.2056725 1.32033926 0.41134501 2.00051403 0.62325001 C4.17900962 1.30368931 6.35433252 1.9937379 8.52978516 2.68383789 C10.08712256 3.17226802 11.64465821 3.66006643 13.20237732 4.14727783 C16.51902902 5.18600848 19.83432652 6.22891285 23.14859009 7.27523804 C28.34740041 8.91650054 33.5490266 10.54869867 38.7512207 12.17919922 C44.03206859 13.8347843 49.31274488 15.49090325 54.59239197 17.15031433 C70.6347496 22.19222472 86.69320706 27.18126425 102.75634766 32.15649414 C105.11038225 32.88613146 107.46438712 33.61586469 109.81835938 34.34570312 C110.9254425 34.68863907 112.03252563 35.03157501 113.17315674 35.38490295 C115.2800434 36.03899479 117.38616111 36.69557017 119.49139404 37.35496521 C123.93825633 38.74563728 128.38428751 40.10775211 132.875 41.3503418 C133.61626633 41.56185379 134.35753265 41.77336578 135.1212616 41.99128723 C137.02362523 42.53068741 138.93208056 43.04848407 140.84106445 43.56396484 C144.65170787 45.28953356 146.97621753 47.31390258 148.94384766 50.96899414 C149.65740295 54.53124217 149.60726559 58.01907302 149.55908203 61.64233398 C149.56463104 62.70681259 149.57018005 63.7712912 149.57589722 64.86802673 C149.58770728 68.38911979 149.56337395 71.9089282 149.53759766 75.42993164 C149.53588461 77.89734845 149.53595421 80.36476707 149.53771973 82.83218384 C149.53606486 88.01565886 149.51735752 93.19870236 149.48583984 98.38208008 C149.4465364 104.95774752 149.44175037 111.5328402 149.44930267 118.10860252 C149.45240878 123.21545475 149.44011823 128.32218301 149.423172 133.42900467 C149.41623535 135.84857018 149.41300585 138.26814976 149.41386414 140.68772507 C149.4028644 161.12678015 147.92580126 181.31912036 143.31884766 201.28149414 C142.93925903 202.94305542 142.93925903 202.94305542 142.55200195 204.63818359 C131.14375227 252.65029818 107.0288159 295.47066656 72.94384766 330.96899414 C72.37939941 331.56067383 71.81495117 332.15235352 71.23339844 332.76196289 C62.6915112 341.66884881 53.85226122 349.62370862 43.94384766 356.96899414 C42.69214687 357.91508145 41.44085201 358.86170604 40.18994141 359.80883789 C29.13378912 368.11763501 17.53352282 375.15159265 5.44384766 381.84399414 C4.58251221 382.32094727 3.72117676 382.79790039 2.83374023 383.28930664 C1.60433716 383.96219727 1.60433716 383.96219727 0.35009766 384.64868164 C-0.37886719 385.04812988 -1.10783203 385.44757813 -1.85888672 385.85913086 C-6.95440816 388.43293536 -11.30133601 389.74942324 -17.05615234 388.96899414 C-19.75240304 387.92957817 -22.05078619 386.90251091 -24.55615234 385.53149414 C-25.24483398 385.16878418 -25.93351563 384.80607422 -26.64306641 384.43237305 C-28.08135996 383.66940377 -29.5152848 382.89814451 -30.94482422 382.11889648 C-32.93561979 381.03464034 -34.93901158 379.97841736 -36.94677734 378.92602539 C-53.27731211 370.21074443 -68.24180326 359.25046759 -82.05615234 346.96899414 C-82.65838623 346.45071045 -83.26062012 345.93242676 -83.88110352 345.3984375 C-96.94839748 334.12920319 -108.81143049 321.84839454 -119.05615234 307.96899414 C-119.79607422 307.02411133 -120.53599609 306.07922852 -121.29833984 305.10571289 C-146.55716012 272.61082488 -162.6400609 234.24730061 -170.86865234 194.09399414 C-171.06370361 193.14524414 -171.25875488 192.19649414 -171.4597168 191.21899414 C-174.89766289 173.40900784 -175.39321807 155.79247332 -175.42724609 137.70336914 C-175.43623238 135.2099808 -175.44535452 132.71659294 -175.4546051 130.22320557 C-175.4709732 125.03607887 -175.47877498 119.84901587 -175.48168945 114.66186523 C-175.48603102 109.34492028 -175.50630855 104.02845814 -175.54321289 98.71166992 C-175.58736409 92.25234456 -175.60715148 85.79340359 -175.6084156 79.33393097 C-175.61261739 76.88270536 -175.62504988 74.4314793 -175.64593315 71.98033905 C-175.67275734 68.56561883 -175.66805205 65.1523202 -175.65551758 61.73754883 C-175.67035187 60.73076584 -175.68518616 59.72398285 -175.70046997 58.68669128 C-175.65543021 54.38259517 -175.58673783 50.99871376 -172.95562744 47.46411133 C-169.68566751 44.65017675 -167.18327672 43.53387102 -163.06518555 42.27856445 C-162.37619895 42.06241108 -161.68721235 41.84625771 -160.97734737 41.62355423 C-158.69268512 40.91205874 -156.40037342 40.22973752 -154.10693359 39.54711914 C-152.47721154 39.04577467 -150.84805163 38.54259968 -149.21942139 38.03771973 C-144.84817401 36.68795098 -140.46979951 35.36286641 -136.08967972 34.04222107 C-131.54396273 32.66694765 -127.00530456 31.26878664 -122.46606445 29.87231445 C-115.14706925 27.62315847 -107.82457112 25.38581497 -100.49951172 23.15649414 C-91.13766172 20.30589481 -81.78885574 17.41491814 -72.44677734 14.50024414 C-71.10576972 14.08208945 -69.76476123 13.66393755 -68.42375183 13.24578857 C-65.87099754 12.44962422 -63.31833951 11.6531529 -60.76571655 10.85656738 C-52.10128776 8.15400395 -43.43297866 5.46500821 -34.75518799 2.80566406 C-32.16940116 2.00409997 -29.59259518 1.17836162 -27.01660156 0.34594727 C-25.50774554 -0.12896658 -23.99880037 -0.60359733 -22.48974609 -1.07788086 C-21.51751854 -1.40384247 -21.51751854 -1.40384247 -20.52565002 -1.73638916 C-13.38994105 -3.93803847 -6.92060618 -2.1779867 0 0 Z M-53.48974609 107.78149414 C-63.51456646 121.78124329 -62.34177371 137.50841525 -62.05615234 153.96899414 C-62.81541016 154.08758789 -63.57466797 154.20618164 -64.35693359 154.32836914 C-68.22352644 155.24605543 -70.24326434 157.21861476 -73.05615234 159.96899414 C-75.31272686 164.19907206 -75.34651558 168.28175526 -75.33081055 172.96875 C-75.33592148 173.75963516 -75.34103241 174.55052032 -75.34629822 175.3653717 C-75.36016267 177.97160475 -75.35923988 180.57757242 -75.35693359 183.18383789 C-75.36082215 185.00077919 -75.36515716 186.81771959 -75.36991882 188.63465881 C-75.37737419 192.44006296 -75.37709464 196.24537431 -75.37182617 200.05078125 C-75.36603138 204.92095174 -75.38296606 209.79074195 -75.40617085 214.66084957 C-75.420921 218.41242178 -75.42177816 222.16390266 -75.41866112 225.91549873 C-75.41917365 227.7107983 -75.42439859 229.50610306 -75.43447304 231.30137444 C-75.44684555 233.81444714 -75.44004125 236.32678235 -75.4284668 238.83984375 C-75.43611053 239.57717743 -75.44375427 240.31451111 -75.45162964 241.07418823 C-75.40389358 245.77668728 -74.53572632 248.97525627 -72.05615234 252.96899414 C-68.31639269 256.34389919 -65.91857814 258.08788878 -60.90777588 258.11616516 C-60.03862549 258.12332047 -59.1694751 258.13047577 -58.27398682 258.1378479 C-57.31812683 258.1405368 -56.36226685 258.14322571 -55.37744141 258.14599609 C-54.37241577 258.15256729 -53.36739014 258.15913849 -52.33190918 258.16590881 C-48.99519787 258.18567147 -45.65853163 258.19731126 -42.32177734 258.20727539 C-41.18371391 258.21135092 -40.04565048 258.21542645 -38.87310028 258.21962547 C-32.84915853 258.24049924 -26.82523965 258.2547951 -20.80126953 258.26416016 C-14.57570672 258.27522503 -8.3505013 258.30962247 -2.12506485 258.34933186 C2.65847442 258.37546577 7.44192815 258.38384917 12.22553253 258.38744164 C14.52045352 258.39231621 16.81537047 258.40395483 19.11022186 258.42247963 C22.32295608 258.44680089 25.53476069 258.44591847 28.74755859 258.43896484 C29.69532166 258.4517749 30.64308472 258.46458496 31.61956787 258.4777832 C37.38439816 258.43231685 40.51150861 257.72739192 44.94384766 253.96899414 C48.99150726 249.36303666 49.09614138 245.09936887 49.10498047 239.19628906 C49.10994537 238.40569595 49.11491028 237.61510284 49.12002563 236.80055237 C49.13463746 234.1835137 49.14144786 231.56653566 49.14697266 228.94946289 C49.15272521 227.12966409 49.15848293 225.3098653 49.16424561 223.49006653 C49.17475301 219.67273679 49.18059728 215.8554281 49.18408203 212.03808594 C49.18956416 207.15218948 49.21358725 202.26657206 49.24205399 197.38076305 C49.26069986 193.6206227 49.26588702 189.86054927 49.26741791 186.10036659 C49.2704409 184.29947701 49.2784575 182.49858851 49.29160309 180.69774437 C49.30870336 178.17490947 49.30677369 175.65275254 49.30029297 173.12988281 C49.30950775 172.38940704 49.31872253 171.64893127 49.32821655 170.88601685 C49.29036664 166.17021157 48.41908069 162.97901937 45.94384766 158.96899414 C42.6739121 155.78510952 40.37593218 154.71755691 35.94384766 153.96899414 C35.95432129 153.36539063 35.96479492 152.76178711 35.97558594 152.13989258 C36.46280146 125.4412682 36.46280146 125.4412682 23.17822266 103.00805664 C12.49241401 93.25632217 1.08408745 91.45539955 -12.93115234 91.53149414 C-14.22923828 91.51151367 -15.52732422 91.4915332 -16.86474609 91.47094727 C-31.56605374 91.47836468 -44.036279 96.20044861 -53.48974609 107.78149414 Z " fill="#4969FE" transform="translate(269.05615234375,62.031005859375)"/>
<path d="M0 0 C1.2950216 0.40946891 2.59025486 0.8182689 3.88568115 1.22645569 C6.67002355 2.10510558 9.45301589 2.98786306 12.23501587 3.87390137 C16.69180348 5.29312711 21.15156662 6.70282354 25.61206055 8.11035156 C26.3707031 8.34975401 27.12934565 8.58915646 27.91097736 8.83581352 C29.46198361 9.32522518 31.01300178 9.81459907 32.5640316 10.303936 C34.93805025 11.05321303 37.31179575 11.80335046 39.6855011 12.55361938 C54.32774617 17.17942693 68.99362836 21.72745634 83.66510201 26.25956059 C88.86540998 27.86603638 94.06465218 29.47591969 99.26318359 31.08813477 C100.35540254 31.42683987 100.35540254 31.42683987 101.46968651 31.7723875 C104.37990765 32.67490958 107.29010878 33.57749612 110.20028305 34.4801693 C118.59738374 37.08445487 126.99692554 39.68049426 135.40106297 42.26198578 C141.16416345 44.03286521 146.92336398 45.81609083 152.6812439 47.60388184 C155.03452716 48.33210972 157.38918356 49.05591684 159.74526978 49.77502441 C162.95103511 50.75395752 166.15170041 51.74806374 169.3515625 52.74609375 C170.28644501 53.02738129 171.22132751 53.30866882 172.18453979 53.59848022 C176.73124059 55.03471194 180.0676955 56.1446589 183.05859375 60.08203125 C184.37361093 62.71206562 184.19049527 64.66785194 184.19903564 67.61437988 C184.20474579 68.79119324 184.21045593 69.96800659 184.21633911 71.18048096 C184.21745697 72.47894958 184.21857483 73.77741821 184.21972656 75.11523438 C184.2243549 76.49204644 184.22937958 77.86885722 184.23477173 79.2456665 C184.24792258 82.99923973 184.25434942 86.75279503 184.25878239 90.50638771 C184.26171731 92.86212527 184.26582357 95.21785801 184.27028656 97.57359314 C184.28398719 104.97292448 184.29363334 112.3722447 184.29748845 119.77158785 C184.30193359 128.25437472 184.31930304 136.73699757 184.34848905 145.21973467 C184.37034101 151.80526811 184.38020555 158.39075632 184.38152957 164.97632551 C184.38256381 168.89293695 184.38816486 172.80939486 184.40634918 176.72596741 C184.75011041 255.36887474 158.88727545 332.42093261 105.09375 390.86328125 C103.26314955 392.85902224 101.50022892 394.89433736 99.74609375 396.95703125 C92.50593989 405.25795184 84.53036634 413.04806366 76.05859375 420.08203125 C75.53378418 420.52595215 75.00897461 420.96987305 74.46826172 421.42724609 C49.83830446 442.22453187 21.87205196 459.54935033 -7.94140625 471.89453125 C-9.15026489 472.40995483 -9.15026489 472.40995483 -10.38354492 472.93579102 C-18.01136402 475.96254966 -23.47568992 474.52191639 -30.85375977 471.40527344 C-31.70768311 471.03047852 -32.56160645 470.65568359 -33.44140625 470.26953125 C-34.35140381 469.87282227 -35.26140137 469.47611328 -36.19897461 469.06738281 C-78.0296069 450.50769227 -117.42574443 422.34003972 -146.94140625 387.08203125 C-147.37227539 386.5809082 -147.80314453 386.07978516 -148.24707031 385.56347656 C-199.14055906 326.25048665 -222.59111231 251.79655692 -222.3114512 174.49972582 C-222.29990505 170.54590997 -222.3042604 166.59210308 -222.30619812 162.63827515 C-222.30707167 156.0311042 -222.29618149 149.42403775 -222.27758789 142.81689453 C-222.25624055 135.18764937 -222.25295668 127.5585547 -222.25914985 119.92928565 C-222.26483871 112.54061953 -222.2592159 105.15200612 -222.2479763 97.76334763 C-222.24334358 94.63504431 -222.24245041 91.50677336 -222.24456215 88.37846756 C-222.2464434 84.71246268 -222.23835412 81.04661171 -222.22250175 77.38064194 C-222.21623686 75.39687825 -222.21976576 73.41309122 -222.22357178 71.42932129 C-222.21648697 70.24975861 -222.20940216 69.07019592 -222.20210266 67.85488892 C-222.20004979 66.83043985 -222.19799692 65.80599079 -222.19588184 64.75049782 C-221.93501833 62.01504667 -221.40552428 60.38764674 -219.94140625 58.08203125 C-212.89103755 53.3099172 -203.15423172 51.49505156 -195.05859375 48.99609375 C-193.47190663 48.50193319 -191.88536759 48.00729697 -190.29896545 47.51222229 C-186.02866824 46.1810831 -181.75630457 44.85669642 -177.48350143 43.53362656 C-172.99504934 42.14255006 -168.50851141 40.74532582 -164.02172852 39.34887695 C-155.70579118 36.76176411 -147.38808552 34.1803898 -139.06947994 31.60187054 C-132.99650472 29.71942026 -126.92404605 27.83531576 -120.85205078 25.94970703 C-95.05568661 17.93954125 -95.05568661 17.93954125 -84.01293945 14.53149414 C-81.17397525 13.65516132 -78.33503083 12.77876442 -75.49609375 11.90234375 C-74.47492871 11.58717835 -74.47492871 11.58717835 -73.43313408 11.26564598 C-64.65447083 8.55519566 -55.88971413 5.80411648 -47.13671875 3.01171875 C-44.416633 2.15026431 -41.69612506 1.29016194 -38.97537231 0.43081665 C-36.6104929 -0.3215587 -34.25148942 -1.09050305 -31.89233398 -1.8605957 C-30.51445432 -2.2960166 -29.13630125 -2.73057375 -27.7578125 -3.1640625 C-26.61771729 -3.53200928 -25.47762207 -3.89995605 -24.30297852 -4.27905273 C-15.87349769 -5.88119896 -7.95179557 -2.54931106 0 0 Z M-26.56298828 19.26171875 C-27.41812012 19.52555862 -28.27325195 19.7893985 -29.15429688 20.06123352 C-30.07662109 20.35684677 -30.99894531 20.65246002 -31.94921875 20.95703125 C-32.95001465 21.26887863 -33.95081055 21.58072601 -34.98193359 21.90202332 C-38.3463921 22.95279438 -41.70626818 24.0175327 -45.06640625 25.08203125 C-47.47609369 25.83732151 -49.88609626 26.59160702 -52.29638672 27.3449707 C-56.90150204 28.78561849 -61.50558636 30.22942913 -66.10824776 31.67789555 C-76.10920638 34.82517909 -86.11809953 37.9467011 -96.12890625 41.0625 C-97.78064632 41.57666014 -99.4323848 42.0908254 -101.0841217 42.60499573 C-103.5777554 43.38123963 -106.07138985 44.15748109 -108.56504154 44.93366718 C-116.82552184 47.50516848 -125.08431122 50.08208174 -133.34306526 52.65912056 C-145.1557752 56.34503967 -156.97005356 60.02572516 -168.7890625 63.69140625 C-170.41959564 64.19738091 -170.41959564 64.19738091 -172.08306885 64.71357727 C-176.94880177 66.22342011 -181.8149866 67.73176726 -186.68212891 69.23706055 C-188.32456807 69.74650532 -189.96698513 70.25602133 -191.609375 70.765625 C-192.33866714 70.99042542 -193.06795929 71.21522583 -193.8193512 71.44683838 C-197.455862 72.57009693 -197.455862 72.57009693 -200.94140625 74.08203125 C-201.012195 89.60108076 -201.06473019 105.12011784 -201.09684277 120.63929176 C-201.11216444 127.84877618 -201.13296361 135.05815903 -201.16772461 142.26757812 C-201.19808687 148.56782723 -201.21708722 154.86800266 -201.22367173 161.16832292 C-201.22750696 164.48936331 -201.23789097 167.81002946 -201.25859642 171.13103104 C-201.69601076 244.33370537 -179.70440505 319.38278298 -128.9296875 373.9453125 C-127.16301516 375.84387786 -125.48650002 377.78655915 -123.81640625 379.76953125 C-114.75301763 390.13973405 -104.78141609 399.60306465 -93.94140625 408.08203125 C-92.80107243 409.02063443 -91.66319501 409.9622272 -90.52734375 410.90625 C-71.55176064 426.58107035 -50.10843697 438.5228186 -27.94140625 449.08203125 C-27.05074463 449.53860107 -27.05074463 449.53860107 -26.14208984 450.00439453 C-21.92381414 452.04594292 -19.42306762 452.39581777 -14.94140625 451.08203125 C-12.1339644 450.05386079 -9.41391159 448.87887616 -6.69140625 447.64453125 C-5.90419189 447.28891113 -5.11697754 446.93329102 -4.3059082 446.56689453 C17.44184869 436.5594218 37.64773291 423.35133428 56.05859375 408.08203125 C56.8777124 407.41518311 56.8777124 407.41518311 57.71337891 406.73486328 C72.13562245 394.97454183 85.71432237 381.85546452 97.05859375 367.08203125 C97.90755812 366.03174872 98.75928382 364.98369419 99.61328125 363.9375 C130.49112506 325.86256478 151.1234939 279.09061621 159.37109375 230.83203125 C159.51844971 229.972146 159.66580566 229.11226074 159.81762695 228.22631836 C162.95317418 208.21355504 163.33655706 188.2428188 163.25390625 168.02734375 C163.24903447 165.30109771 163.24722502 162.57485181 163.24533081 159.84860229 C163.23918556 153.47088533 163.22287206 147.0932393 163.20263183 140.71555316 C163.1800523 133.43828705 163.16922475 126.16101703 163.15924096 118.88372445 C163.13849711 103.94978762 163.10346105 89.01591662 163.05859375 74.08203125 C158.82205911 72.66297528 154.58468304 71.24644756 150.34716797 69.83032227 C149.16511276 69.43435097 147.98305756 69.03837967 146.7651825 68.63040924 C136.87245775 65.32652388 126.93756792 62.17269557 116.96826172 59.1081543 C110.33051317 57.06483224 103.69499198 55.01436473 97.06007767 52.96186256 C95.0563562 52.34213154 93.05252299 51.72276285 91.04867554 51.10343933 C73.85630897 45.78840714 56.67830215 40.42721156 39.4991684 35.06959915 C36.12250193 34.01659434 32.74574726 32.96387254 29.36898804 31.91116524 C14.78400559 27.36425486 14.78400559 27.36425486 11.05606079 26.2007122 C9.7146022 25.78267678 8.37275141 25.36589755 7.03048706 24.95045662 C3.58654759 23.88252659 0.15408952 22.78813955 -3.26849365 21.6534729 C-3.98186323 21.42069547 -4.69523281 21.18791803 -5.43021965 20.94808674 C-6.77980811 20.50706266 -8.1268894 20.0582512 -9.47067451 19.59984875 C-15.34301958 17.69692068 -20.66350025 17.40425376 -26.56298828 19.26171875 Z " fill="#4969FE" transform="translate(274.94140625,20.91796875)"/>
<path d="M0 0 C1.41925781 -0.01740234 1.41925781 -0.01740234 2.8671875 -0.03515625 C10.39309866 -0.00388515 15.8598804 1.32184488 22.25 5.5 C32.78087316 16.50954921 29 28.17254526 29 43.375 C9.86 43.375 -9.28 43.375 -29 43.375 C-29 12.55681818 -29 12.55681818 -22.25 5.5 C-14.89238725 0.6892532 -8.59646786 -0.10540628 0 0 Z " fill="#4A69FE" transform="translate(256,172.625)"/>
<path d="M0 0 C4.6623336 2.66016211 7.58169754 6.3809852 9.625 11.3125 C10.55636133 18.72417545 10.33944852 24.7625658 5.9140625 30.921875 C4.625 32.3125 4.625 32.3125 2.625 33.3125 C2.30844336 35.24056341 2.30844336 35.24056341 2.25 37.5 C1.83682176 42.05220942 0.6460807 44.77351975 -2.375 48.3125 C-6.14422709 50.67719405 -8.95531924 50.50890431 -13.25 49.9296875 C-16.48820256 48.98918014 -17.71506328 47.14822522 -19.375 44.3125 C-20.51689372 42.02871256 -20.50566503 40.53586812 -20.625 38 C-21.08986937 33.24461496 -22.71676596 31.43538272 -26.375 28.3125 C-29.66120254 23.24721539 -29.04464507 17.09077753 -28.375 11.3125 C-26.27943346 5.58341896 -22.7230362 2.21904141 -17.375 -0.6875 C-11.59787021 -2.61320993 -5.5650706 -2.58937619 0 0 Z " fill="#4969FE" transform="translate(265.375,243.6875)"/>
</svg>
