<?xml version="1.0" encoding="UTF-8"?>
<svg version="1.1" xmlns="http://www.w3.org/2000/svg" width="512" height="512">
<path d="M0 0 C7.45324472 5.00314494 13.23438087 11.46094924 17.265625 19.5234375 C17.86212525 24.46586812 17.81465902 27.33939126 14.828125 31.3984375 C13.66368771 32.7930224 12.47372214 34.16649883 11.265625 35.5234375 C10.56566406 36.34199219 9.86570312 37.16054688 9.14453125 38.00390625 C4.52528389 43.29562637 -0.34144732 48.03169094 -5.734375 52.5234375 C-4.87328125 53.50957031 -4.0121875 54.49570312 -3.125 55.51171875 C0.25585352 59.45770319 3.40560252 63.54991497 6.515625 67.7109375 C7.04414063 68.40896484 7.57265625 69.10699219 8.1171875 69.82617188 C8.62507812 70.50357422 9.13296875 71.18097656 9.65625 71.87890625 C10.11032227 72.48371826 10.56439453 73.08853027 11.03222656 73.71166992 C13.87794623 77.89181356 14.59013345 81.12261213 14.93579102 86.20385742 C15.00697144 87.19718834 15.00697144 87.19718834 15.07958984 88.21058655 C15.23403754 90.39122699 15.37664982 92.5724802 15.51953125 94.75390625 C15.62550424 96.27043182 15.73236385 97.78689567 15.84007263 99.30329895 C16.12139474 103.2890682 16.39331651 107.27541681 16.66247559 111.26202393 C17.09484062 117.65398496 17.53795703 124.04517905 17.98771477 130.43593788 C18.14318511 132.67204497 18.29250848 134.90850511 18.44129944 137.14506531 C18.53559822 138.50712579 18.63010474 139.86917192 18.72485352 141.23120117 C18.80542496 142.42492844 18.8859964 143.6186557 18.9690094 144.84855652 C18.97443265 147.44053387 18.97443265 147.44053387 20.265625 148.5234375 C20.69157959 147.29044922 21.11753418 146.05746094 21.55639648 144.78710938 C37.76112273 97.89944641 54.32524483 51.15033597 71.265625 4.5234375 C83.86389793 6.69247722 96.304271 9.01335473 108.640625 12.3984375 C109.27318207 12.5698526 109.90573914 12.7412677 110.5574646 12.9178772 C149.82778743 23.57973446 149.82778743 23.57973446 159.82759094 39.81785583 C164.74766311 49.0746999 166.02759628 59.35165986 166.94140625 69.64453125 C167.07235866 71.00472051 167.20456356 72.36478966 167.33790588 73.7247467 C167.6927642 77.37655733 168.03140361 81.02970316 168.36708832 84.68331909 C168.72381763 88.53332866 169.09603013 92.38183735 169.46728516 96.23046875 C169.93110855 101.04779425 170.39354576 105.86523465 170.84942627 110.68331909 C171.93932719 122.19795031 173.0742593 133.70747909 174.23828125 145.21484375 C174.40027818 146.8184759 174.56227061 148.42210851 174.72425842 150.02574158 C175.27237142 155.44879713 175.82127933 160.87177222 176.37076187 166.29468918 C176.80984377 170.62949698 177.24700827 174.96448978 177.68137932 179.29977226 C177.87405263 181.21749826 178.06887967 183.13500751 178.2638092 185.05250549 C179.4122042 196.53218265 180.42710032 208.04589891 180.640625 219.5859375 C180.67800781 220.38708984 180.71539062 221.18824219 180.75390625 222.01367188 C180.81446739 226.07463267 180.67284736 227.95820029 178.2421875 231.33203125 C156.67907778 247.20723408 122.61062898 247.31857052 96.828125 249.7109375 C95.99984192 249.78966095 95.17155884 249.8683844 94.31817627 249.94949341 C60.25844849 253.1346048 26.1352674 253.8596233 -8.05249023 253.78417969 C-13.25717378 253.77277886 -18.46165277 253.77957854 -23.66632938 253.79106426 C-130.41943517 253.9903321 -130.41943517 253.9903321 -178.734375 240.5234375 C-179.54616211 240.29873779 -180.35794922 240.07403809 -181.19433594 239.8425293 C-187.69061108 237.87356232 -194.2923464 234.82733079 -198.734375 229.5234375 C-199.10668945 227.52236938 -199.10668945 227.52236938 -199.09765625 225.21337891 C-199.09854248 224.34764252 -199.09942871 223.48190613 -199.1003418 222.5899353 C-199.08269775 221.65275665 -199.06505371 220.715578 -199.046875 219.75 C-199.0363208 218.76794586 -199.0257666 217.78589172 -199.01489258 216.77407837 C-198.82690709 206.09154779 -197.8469082 195.51774462 -196.734375 184.8984375 C-196.5161878 182.73562921 -196.29834415 180.57278624 -196.08081055 178.40991211 C-194.74090383 165.2809461 -193.2450724 152.17145504 -191.69140625 139.06640625 C-191.60325527 138.32199028 -191.51510429 137.57757431 -191.42428207 136.81060028 C-190.54949536 129.42985603 -189.66762944 122.05009321 -188.75950813 114.67337036 C-188.33626496 111.22942664 -187.91834224 107.78485788 -187.50390625 104.33984375 C-187.42369358 103.67353188 -187.34348091 103.00722 -187.26083755 102.32071686 C-185.96990264 91.49587962 -185.0506306 80.67142375 -184.42695618 69.78797913 C-183.47075679 53.94967045 -180.51879311 43.13342816 -168.74609375 31.90625 C-149.97329641 17.05358284 -113.2238998 5.26684157 -89.734375 5.5234375 C-81.11315861 29.14528209 -72.7344499 52.84894255 -64.42553711 76.58227539 C-57.94205556 95.09927984 -51.41098616 113.59898481 -44.85058594 132.08886719 C-44.51103378 133.04602631 -44.17148163 134.00318542 -43.82164001 134.98934937 C-43.19107439 136.76650303 -42.56020435 138.54354872 -41.92897034 140.32046509 C-41.6524614 141.09949188 -41.37595245 141.87851868 -41.09106445 142.68115234 C-40.85160599 143.35528168 -40.61214752 144.02941101 -40.36543274 144.72396851 C-39.80626374 146.31844586 -39.26869962 147.92046364 -38.734375 149.5234375 C-38.1815126 142.26850634 -37.63036 135.01344664 -37.08032227 127.75830078 C-36.89352922 125.29700878 -36.70636371 122.83574502 -36.51879883 120.37451172 C-36.24719693 116.80964632 -35.97684335 113.24468878 -35.70703125 109.6796875 C-35.57557709 107.9507299 -35.57557709 107.9507299 -35.44146729 106.18684387 C-35.07052044 101.25332629 -34.71016687 96.32121903 -34.43066406 91.3815918 C-34.38856308 90.63780273 -34.3464621 89.89401367 -34.30308533 89.12768555 C-34.20084616 87.24064018 -34.10742062 85.35312263 -34.01489258 83.46557617 C-33.1327961 74.21392717 -26.07833051 67.87280131 -20.19628906 61.19091797 C-17.68295955 58.32417772 -15.21064727 55.42218373 -12.734375 52.5234375 C-13.6521875 51.64042969 -14.57 50.75742187 -15.515625 49.84765625 C-34.89112099 30.99995912 -34.89112099 30.99995912 -35.609375 23.3984375 C-33.42649025 13.73137645 -25.53112653 5.75439983 -17.6953125 0.03515625 C-11.55807725 -3.5224841 -6.20407544 -3.35020074 0 0 Z M76.265625 105.5234375 C76.265625 111.1334375 76.265625 116.7434375 76.265625 122.5234375 C93.425625 122.5234375 110.585625 122.5234375 128.265625 122.5234375 C128.265625 116.9134375 128.265625 111.3034375 128.265625 105.5234375 C111.105625 105.5234375 93.945625 105.5234375 76.265625 105.5234375 Z " fill="#4969FE" transform="translate(266.734375,244.4765625)"/>
<path d="M0 0 C17.7416384 15.28887733 26.81564199 34.83663591 29.41796875 57.94140625 C31.1608477 91.45516083 23.20254054 125.95136879 2.41796875 152.94140625 C1.99322266 153.49344727 1.56847656 154.04548828 1.13085938 154.61425781 C-10.27284476 169.21067742 -25.95470966 183.5342947 -44.96484375 186.7265625 C-65.26300998 188.39282988 -82.11462122 184.5264694 -98.05078125 171.1875 C-112.16681863 158.66169522 -121.84365402 145.08095251 -129.58203125 127.94140625 C-130.12730469 126.7503125 -130.67257813 125.55921875 -131.234375 124.33203125 C-143.87560856 94.86798561 -146.68946011 58.72404508 -134.89453125 28.62890625 C-125.8164721 8.92176277 -110.48307599 -5.46255507 -90.23510742 -13.15942383 C-60.46100089 -23.76124252 -24.97232887 -19.90985978 0 0 Z " fill="#4969FE" transform="translate(313.58203125,28.05859375)"/>
<path d="M0 0 C-0.11593506 0.57105469 -0.23187012 1.14210937 -0.35131836 1.73046875 C-0.89873169 4.48367601 -1.42081192 7.24085909 -1.9375 10 C-2.23285645 11.54071167 -2.23285645 11.54071167 -2.53417969 13.11254883 C-3.70947717 19.73590264 -4.04206296 25.88213891 -3.82324219 32.59472656 C-3.53315172 44.84428016 -3.53315172 44.84428016 -6.37451172 49.02001953 C-10.03722966 52.65611442 -14.35559323 55.15236575 -18.82226562 57.68017578 C-22.34430904 59.81472362 -25.36176827 62.46397405 -28.4375 65.1875 C-29.0154834 65.69047607 -29.5934668 66.19345215 -30.18896484 66.71166992 C-38.67086941 74.14097722 -46.01918495 82.14743184 -53 91 C-53.81597656 92.010625 -54.63195312 93.02125 -55.47265625 94.0625 C-87.87730252 134.63891645 -103.25183899 189.52633073 -98 241 C-97.42848054 245.5761356 -96.78222894 250.13913383 -96.0168457 254.68701172 C-94.12327071 266.25872911 -95.32417033 277.4934628 -96.6796875 289.0625 C-96.85456926 290.58655288 -97.02913428 292.11064214 -97.20339966 293.63476562 C-97.5674485 296.80535119 -97.93615682 299.97535137 -98.30810547 303.14501953 C-98.78424369 307.20693931 -99.24716198 311.27024457 -99.7065258 315.33409119 C-100.06281364 318.47112092 -100.42667701 321.60723663 -100.79278946 324.74313354 C-100.9667215 326.2419664 -101.13813587 327.74109366 -101.3069725 329.24050903 C-101.54303756 331.32800551 -101.78943848 333.41402876 -102.03857422 335.5 C-102.17625214 336.6859375 -102.31393005 337.871875 -102.45578003 339.09375 C-103 342 -103 342 -105 345 C-138.25384973 284.33171654 -146.69255745 216.80646166 -127.875 150 C-116.62581287 112.03595568 -96.19700775 78.55560018 -69 50 C-68.42975098 49.40106934 -67.85950195 48.80213867 -67.27197266 48.18505859 C-59.21530584 39.78592383 -50.92919625 32.10019007 -41.57421875 25.16845703 C-40.1421376 24.10550102 -38.72634285 23.02069094 -37.3125 21.93359375 C-27.47812565 14.51283871 -16.77116455 8.25004039 -6.0703125 2.16796875 C-4.97227295 1.54378052 -4.97227295 1.54378052 -3.85205078 0.90698242 C-2 0 -2 0 0 0 Z " fill="#4969FE" transform="translate(147,59)"/>
<path d="M0 0 C18.03806475 6.67821481 34.56822385 19.54454988 49 32 C49.76828125 32.65742187 50.5365625 33.31484375 51.328125 33.9921875 C64.13364525 45.22881951 75.9260276 57.25599955 86 71 C86.42474609 71.56928223 86.84949219 72.13856445 87.28710938 72.72509766 C117.55475087 113.32998585 134.28608298 162.4394479 136 213 C136.04125 214.134375 136.0825 215.26875 136.125 216.4375 C136.82147294 255.43998484 127.81053762 293.68793641 111.125 328.8125 C110.64853027 329.81571289 110.17206055 330.81892578 109.68115234 331.85253906 C106.26103722 338.86948139 106.26103722 338.86948139 104 340 C102.3543631 330.90108206 101.23278373 321.78737177 100.2734375 312.59375 C100.1194918 311.13747731 99.96540566 309.68121947 99.81118774 308.22497559 C99.4910555 305.1930498 99.17379117 302.16084028 98.85839844 299.12841797 C98.45723496 295.2751934 98.04703471 291.42299086 97.63443565 287.57097626 C97.31437234 284.5702578 97.00010312 281.56895235 96.687397 278.56745911 C96.53867447 277.14813028 96.3880168 275.72900262 96.23524094 274.31010437 C95.07285468 263.47960784 94.38310244 252.9544264 95.7618103 242.12304688 C96.16778008 238.50453238 96.20147881 234.88815991 96.23828125 231.25 C96.2480751 230.44238724 96.25786896 229.63477448 96.26795959 228.8026886 C96.63523199 190.64544102 89.98444921 155.86864549 72 122 C71.65598145 121.34 71.31196289 120.68 70.95751953 120 C56.0323853 91.49960381 33.91821823 69.3016553 8.5546875 49.96875 C6 48 6 48 5 47 C4.83570337 43.89357669 4.71919469 40.79619862 4.625 37.6875 C4.21851208 26.97007637 2.8069537 16.56002016 1 6 C0.8040625 4.82308594 0.608125 3.64617188 0.40625 2.43359375 C0.2721875 1.63050781 0.138125 0.82742187 0 0 Z " fill="#4969FE" transform="translate(368,60)"/>
</svg>
