<?xml version="1.0" encoding="UTF-8"?>
<svg version="1.1" xmlns="http://www.w3.org/2000/svg" width="512" height="512">
<path d="M0 0 C2.18038842 1.16677235 4.32346487 2.4044151 6.4375 3.6875 C35.3366678 20.72618296 70.37600771 25.9687006 103.11328125 18.3203125 C118.63360011 14.29572474 133.63315529 7.91122981 147 -1 C151.63112697 -0.74181871 155.26121726 1.63443888 159.125 4 C159.78588623 4.40154297 160.44677246 4.80308594 161.12768555 5.21679688 C167.19087779 8.9805119 172.64488451 13.28454608 178 18 C178.85207031 18.73089844 179.70414062 19.46179688 180.58203125 20.21484375 C191.65456561 29.892681 199.92565298 40.81730413 208 53 C208.66 53.99 209.32 54.98 210 56 C209.70993361 59.57984368 208.17239921 61.05392263 205.5625 63.375 C183.50869983 84.71992803 169.2877876 119.50038773 168.76171875 149.9453125 C168.17820103 192.6206065 180.76119736 227.73000557 210.04296875 259.1953125 C212.71377916 261.91918537 215.46928824 264.41722214 218.4375 266.8125 C219.283125 267.534375 220.12875 268.25625 221 269 C221 269.66 221 270.32 221 271 C117.71 271 14.42 271 -92 271 C-92 91.08037536 -92 91.08037536 -55 43 C-53.95779297 41.62134766 -53.95779297 41.62134766 -52.89453125 40.21484375 C-42.08712763 26.44706315 -29.38898943 14.89785669 -15 5 C-13.99195312 4.30390625 -12.98390625 3.6078125 -11.9453125 2.890625 C-4.95421733 -1.63180452 -4.95421733 -1.63180452 0 0 Z " fill="#4969FE" transform="translate(92,229)"/>
<path d="M0 0 C1.83092456 1.4774544 3.64462873 2.97659301 5.4375 4.5 C6.283125 5.18449219 7.12875 5.86898437 8 6.57421875 C28.22939938 23.67438291 40.38446752 48.89739886 43.0625 75.0625 C43.20107192 76.87401292 43.32702278 78.68655686 43.4375 80.5 C43.50130859 81.53833984 43.50130859 81.53833984 43.56640625 82.59765625 C44.39732458 111.34743034 33.02697671 137.29254397 13.71484375 158.15625 C-6.21217588 178.66433195 -32.74433569 189.03147941 -61.0625 189.75 C-91.73864188 188.97165013 -117.01998442 176.97053578 -138.68359375 155.38671875 C-156.72060438 136.15427271 -166.03416024 108.93140708 -165.5078125 82.78320312 C-164.10026071 53.78349645 -152.59217664 27.40045541 -131.39453125 7.45703125 C-95.73129811 -24.70093456 -38.9461665 -28.41480515 0 0 Z " fill="#4969FE" transform="translate(225.5625,32.5)"/>
<path d="M0 0 C0.80050781 0.64710938 1.60101563 1.29421875 2.42578125 1.9609375 C22.26008512 18.74644509 36.48454739 45.059395 39 71 C41.09147585 104.18350524 34.19714271 134.54982776 12 160 C-8.18953073 182.74157816 -36.00421781 195.97081535 -66.39160156 197.87646484 C-98.11772345 199.21377925 -127.14711756 187.87233093 -150.43164062 166.50927734 C-171.53815081 146.19787542 -183.58212739 117.66431825 -184.35571289 88.52026367 C-184.61168062 55.07273334 -171.67069581 27.34842355 -148.6171875 3.5390625 C-132.67693222 -11.91372319 -111.79338213 -21.46670199 -90 -25 C-89.26394531 -25.13019531 -88.52789062 -25.26039063 -87.76953125 -25.39453125 C-55.96767243 -30.00795371 -24.61417337 -20.10335083 0 0 Z M-87 21 C-87 37.5 -87 54 -87 71 C-103.5 71 -120 71 -137 71 C-137 80.9 -137 90.8 -137 101 C-120.5 101 -104 101 -87 101 C-87 117.17 -87 133.34 -87 150 C-77.1 150 -67.2 150 -57 150 C-57 133.83 -57 117.66 -57 101 C-40.83 101 -24.66 101 -8 101 C-8 91.1 -8 81.2 -8 71 C-24.17 71 -40.34 71 -57 71 C-57 54.5 -57 38 -57 21 C-66.9 21 -76.8 21 -87 21 Z " fill="#4969FE" transform="translate(473,302)"/>
<path d="M0 0 C17.94524871 18.61369637 26.59923526 42.79531117 26.55810547 68.42602539 C26.01576519 94.05502184 14.89328747 117.31605756 -3.28173828 135.12109375 C-20.96915382 151.77603814 -44.44945264 160.0704236 -68.5 159.6875 C-69.59505859 159.67847656 -70.69011719 159.66945312 -71.81835938 159.66015625 C-74.48331354 159.63688154 -77.14778134 159.60419135 -79.8125 159.5625 C-80.21157274 153.96147906 -79.41045258 151.16824493 -76.25 146.5625 C-58.08605937 118.69010691 -52.15298373 83.23437363 -58.83984375 50.69140625 C-64.4266502 26.10830239 -75.47918673 4.88720319 -92.35351562 -13.80517578 C-94.88810104 -16.64089166 -97.3478878 -19.54098456 -99.8125 -22.4375 C-65.21400909 -36.53318148 -26.12366496 -25.23389436 0 0 Z " fill="#4969FE" transform="translate(353.8125,40.4375)"/>
<path d="M0 0 C25.71560846 12.24227105 49.27821147 28.46788305 66 52 C65.67 52.66 65.34 53.32 65 54 C64.1440625 53.7834375 63.288125 53.566875 62.40625 53.34375 C42.42589601 49.02799354 18.82077259 48.73279362 -1 54 C-1.65242676 54.17160645 -2.30485352 54.34321289 -2.97705078 54.52001953 C-15.97041199 58.02268665 -28.88664587 63.07411921 -40.30078125 70.25 C-42 71 -42 71 -45 70 C-46.76171875 67.62890625 -46.76171875 67.62890625 -48.6875 64.5625 C-54.45935082 55.67384974 -61.02049297 47.76743361 -68.31958008 40.109375 C-70.71718771 37.56156722 -72.65954627 35.25098548 -74 32 C-72.8140625 31.84144531 -71.628125 31.68289062 -70.40625 31.51953125 C-43.36588982 27.71205957 -20.89977266 17.61953928 0 0 Z " fill="#4969FE" transform="translate(369,197)"/>
</svg>
