<?xml version="1.0" encoding="UTF-8"?>
<svg version="1.1" xmlns="http://www.w3.org/2000/svg" width="512" height="512">
<path d="M0 0 C1.78724761 1.03604139 3.57504679 2.07113163 5.36328125 3.10546875 C9.43521441 5.46765309 13.49914349 7.84299459 17.55859375 10.2265625 C23.97976754 13.99430219 30.42403933 17.72104311 36.875 21.4375 C37.95434814 22.05955322 39.03369629 22.68160645 40.14575195 23.32250977 C42.33632735 24.58480624 44.52700131 25.8469317 46.71777344 27.10888672 C52.14659942 30.23680148 57.57319281 33.36858448 63 36.5 C65.16665583 37.75001879 67.3333225 39.00001878 69.5 40.25 C108.5 62.75 147.5 85.25 186.5 107.75 C187.57266113 108.36883057 188.64532227 108.98766113 189.75048828 109.62524414 C191.91557071 110.87435518 194.08060982 112.12354129 196.24560547 113.37280273 C201.68615706 116.51202309 207.12747216 119.64990563 212.5703125 122.78515625 C225.22590561 130.07701371 237.87058281 137.38660209 250.46875 144.77734375 C253.96979119 146.82790164 257.48688365 148.84174833 261.03125 150.81640625 C276.85031643 159.70063286 276.85031643 159.70063286 281 168 C281.50769563 173.09360209 281.66596892 177.55706734 279.5 182.25 C278.675 183.1575 277.85 184.065 277 185 C276.53335937 185.515625 276.06671875 186.03125 275.5859375 186.5625 C270.68882738 191.39252642 264.8658516 194.45094192 258.87207031 197.68798828 C251.84597644 201.48809895 244.98130505 205.52750625 238.125 209.625 C228.74185694 215.22280529 219.30946985 220.72255375 209.8125 226.125 C198.13802071 232.76803623 186.51836523 239.50001555 174.92675781 246.28662109 C165.95842119 251.53685353 156.98172206 256.77270446 148 262 C146.87078125 262.65774414 145.7415625 263.31548828 144.578125 263.99316406 C141.09617365 266.02046707 137.61072522 268.04169262 134.125 270.0625 C133.06168457 270.68181396 131.99836914 271.30112793 130.90283203 271.93920898 C112.05244501 282.84544035 94.51653161 288.51600329 72.55078125 283.140625 C57.56791364 278.32764662 43.90440256 268.86429289 30.41113281 260.98779297 C24.95162531 257.80633648 19.47527059 254.65422297 14 251.5 C11.83324656 250.25015042 9.66658002 249.00015017 7.5 247.75 C6.4275 247.13125 5.355 246.5125 4.25 245.875 C-16.33333333 234 -36.91666667 222.125 -57.5 210.25 C-58.57266113 209.63116943 -59.64532227 209.01233887 -60.75048828 208.37475586 C-62.91557071 207.12564482 -65.08060982 205.87645871 -67.24560547 204.62719727 C-72.68615706 201.48797691 -78.12747216 198.35009437 -83.5703125 195.21484375 C-94.02206199 189.19252671 -104.46299548 183.15330663 -114.875 177.0625 C-124.14563931 171.64041301 -133.45936699 166.29675988 -142.79046631 160.97976685 C-151.86209488 155.80945595 -160.89580925 150.57754017 -169.90429688 145.29785156 C-176.5200736 141.42729249 -183.16843423 137.61840777 -189.83349609 133.83374023 C-208.29623908 123.34773823 -208.29623908 123.34773823 -216.375 118.4375 C-216.98021484 118.08075195 -217.58542969 117.72400391 -218.20898438 117.35644531 C-223.30954921 114.1929158 -227.53560966 110.07572642 -230.12890625 104.62890625 C-231.30041838 99.04575387 -230.8942424 94.97890651 -228 90 C-225.12181996 85.86423679 -222.22235477 83.63658083 -217.875 81.125 C-217.23812256 80.75334717 -216.60124512 80.38169434 -215.94506836 79.9987793 C-213.63592514 78.65544757 -211.31795976 77.32805827 -209 76 C-207.02434402 74.85875741 -205.04911061 73.71678311 -203.07421875 72.57421875 C-198.63946029 70.01083907 -194.20150783 67.45309315 -189.76171875 64.8984375 C-180.47395724 59.54985364 -171.2211734 54.14161881 -161.96777344 48.73388672 C-155.97891689 45.23496773 -149.98668651 41.74182936 -143.99511719 38.24755859 C-139.019094 35.34528296 -134.04383865 32.4417092 -129.0703125 29.53515625 C-117.53111623 22.79376144 -105.97936567 16.07491929 -94.390625 9.41894531 C-89.42437266 6.56500163 -84.47068943 3.69635028 -79.55859375 0.75 C-52.44026037 -15.4512102 -27.18064356 -16.01409233 0 0 Z M-74 28 C-76.56582946 29.16004511 -76.56582946 29.16004511 -79.4765625 30.91015625 C-80.6099707 31.56322754 -81.74337891 32.21629883 -82.91113281 32.88916016 C-84.14919803 33.61341965 -85.38715094 34.33787114 -86.625 35.0625 C-87.89902365 35.8006417 -89.17344225 36.53810214 -90.44824219 37.27490234 C-93.69182966 39.15228489 -96.929779 41.03915359 -100.16589355 42.92938232 C-102.89211093 44.52074935 -105.62201301 46.10576321 -108.3515625 47.69140625 C-113.24029046 50.53489091 -118.12248935 53.38939031 -123.00292969 56.24707031 C-126.15870305 58.09282241 -129.3172587 59.93373534 -132.4765625 61.7734375 C-133.54745117 62.39718262 -134.61833984 63.02092773 -135.72167969 63.66357422 C-137.75075757 64.84526544 -139.78003814 66.02660872 -141.80957031 67.20751953 C-144.54253433 68.80024343 -147.27133556 70.39992467 -150 72 C-151.42554199 72.82564453 -151.42554199 72.82564453 -152.87988281 73.66796875 C-153.78834961 74.20035156 -154.69681641 74.73273438 -155.6328125 75.28125 C-156.85701904 75.9937793 -156.85701904 75.9937793 -158.10595703 76.72070312 C-160.13847272 77.86787666 -160.13847272 77.86787666 -161 80 C-160.25234375 80.42410156 -159.5046875 80.84820312 -158.734375 81.28515625 C-148.26870608 87.51798264 -148.26870608 87.51798264 -146 94 C-145.29069412 99.22445729 -145.30816438 103.47219635 -147.5 108.3125 C-150.15525452 111.16689861 -152.90692617 113.3823689 -156.09765625 115.60546875 C-157.92446752 116.94463019 -159.42037462 118.38407423 -161 120 C-160.33806641 120.3810791 -159.67613281 120.7621582 -158.99414062 121.15478516 C-146.97898219 128.0740445 -134.97063936 135.00389778 -123 142 C-111.45278486 148.74714773 -99.87097871 155.43339376 -88.28222656 162.10888672 C-82.85340058 165.23680148 -77.42680719 168.36858448 -72 171.5 C-69.83334417 172.75001879 -67.6666775 174.00001878 -65.5 175.25 C-0.5 212.75 -0.5 212.75 2.75415039 214.62744141 C4.90692816 215.86939744 7.05975963 217.1112604 9.21264648 218.35302734 C14.24616915 221.25646913 19.27918048 224.160785 24.31021118 227.06854248 C26.08362608 228.09345403 27.85721646 229.11806123 29.63085938 230.14257812 C31.84995773 231.42452738 34.06873016 232.70704107 36.28710938 233.99023438 C38.27480686 235.13820261 40.26639271 236.27947382 42.26245117 237.4128418 C44.04173981 238.44442616 45.79933917 239.51470435 47.52856445 240.62817383 C49.66813196 241.96543144 51.62940489 243.13700081 54 244 C57.30377935 243.4145835 57.30377935 243.4145835 60.0625 241.4375 C61.08730469 240.84453125 62.11210937 240.2515625 63.16796875 239.640625 C64.56982422 238.82851563 64.56982422 238.82851563 66 238 C79.28817554 232.63410816 97.47717185 234.08205827 110.5625 239.375 C115.51103992 241.60148385 115.51103992 241.60148385 117.52709961 243.24462891 C119.38890287 244.65227372 120.71873936 245.46561075 123 246 C126.86631611 244.88072847 130.0562078 242.76866493 133.4375 240.625 C134.44176025 240.02228271 135.44602051 239.41956543 136.48071289 238.79858398 C138.60213768 237.52447724 140.71653639 236.23860814 142.82421875 234.94189453 C146.8355086 232.48911167 150.89847101 230.1329152 154.96875 227.77978516 C157.96438516 226.04694817 160.95194326 224.30091849 163.9375 222.55078125 C169.07520765 219.5401977 174.21844756 216.53922678 179.36352539 213.54125977 C189.92457147 207.38715007 200.47095888 201.20870088 211 195 C208.44044061 193.02189954 205.86304577 191.30127984 203.0625 189.6875 C198.60978067 186.94608698 195.37019713 183.74039426 193 179 C192.48161234 173.79912708 192.33404601 169.38313522 194.625 164.625 C199.17772759 159.59303793 204.08768458 156.19265033 210 153 C207.60030318 150.34434213 205.03555811 148.72001447 201.93359375 146.953125 C200.90427734 146.36337891 199.87496094 145.77363281 198.81445312 145.16601562 C197.14286133 144.21758789 197.14286133 144.21758789 195.4375 143.25 C194.26598539 142.58058653 193.09476624 141.91065574 191.92382812 141.24023438 C189.49056166 139.84760003 187.05603768 138.45720253 184.62060547 137.06835938 C179.06842407 133.89970234 173.53519338 130.69820559 168 127.5 C165.83342291 126.24984475 163.66675593 124.99984527 161.5 123.75 C44.5 56.25 44.5 56.25 41.24487305 54.37182617 C39.09554585 53.13197277 36.94597219 51.8925465 34.79614258 50.65356445 C29.72165511 47.72836237 24.64978383 44.79888277 19.5866394 41.85409546 C17.19684332 40.4645137 14.80563164 39.07737828 12.41430664 37.69042969 C10.72859411 36.71136747 9.04493413 35.72877394 7.36132812 34.74609375 C6.33845703 34.153125 5.31558594 33.56015625 4.26171875 32.94921875 C3.36412842 32.42674561 2.46653809 31.90427246 1.54174805 31.3659668 C-0.93829188 30.03316271 -3.32918676 28.89302205 -6 28 C-8.00062126 28.72897408 -8.00062126 28.72897408 -9.75 30.1875 C-22.11466202 38.74944521 -39.29773507 38.4382938 -53.69140625 36.50390625 C-60.28342928 34.98267017 -66.10128208 32.26662068 -72 29 C-72.99 28.505 -72.99 28.505 -74 28 Z " fill="#4969FE" transform="translate(231,12)"/>
<path d="M0 0 C1.48871775 0.89857104 2.97836396 1.79560497 4.46875 2.69140625 C5.68304688 3.42447998 5.68304688 3.42447998 6.921875 4.17236328 C11.9129023 7.15424368 16.959974 10.03949442 22 12.9375 C24.24874916 14.23298396 26.49744643 15.52855803 28.74609375 16.82421875 C29.87515137 17.47438965 31.00420898 18.12456055 32.16748047 18.79443359 C37.6341998 21.94332054 43.09824887 25.09683264 48.5625 28.25 C50.72915311 29.5000235 52.89581979 30.75002347 55.0625 32 C139.5625 80.75 139.5625 80.75 224.0625 129.5 C225.13612793 130.11939453 226.20975586 130.73878906 227.31591797 131.37695312 C229.47121311 132.6204051 231.62648673 133.86389436 233.78173828 135.10742188 C238.78587674 137.99462875 243.7902052 140.8815043 248.79534912 143.76696777 C250.54591241 144.77619104 252.29640411 145.78553836 254.046875 146.79492188 C256.22642165 148.0516766 258.40609832 149.30820586 260.5859375 150.56445312 C261.58625 151.14130859 262.5865625 151.71816406 263.6171875 152.3125 C264.59268555 152.87066406 265.56818359 153.42882812 266.57324219 154.00390625 C268.67123741 155.22939317 270.74860405 156.49055699 272.80957031 157.77734375 C274.3927002 158.75380859 274.3927002 158.75380859 276.0078125 159.75 C276.95414551 160.348125 277.90047852 160.94625 278.87548828 161.5625 C282.07124304 162.97483428 283.2965986 162.86991513 286.5625 161.75 C288.85683005 160.71378216 288.85683005 160.71378216 291.1328125 159.37109375 C292.01477295 158.87053467 292.8967334 158.36997559 293.80541992 157.85424805 C294.75650635 157.30422119 295.70759277 156.75419434 296.6875 156.1875 C297.69594971 155.61104736 298.70439941 155.03459473 299.7434082 154.44067383 C308.60078534 149.35617196 317.37865781 144.13794881 326.15209961 138.91040039 C334.30170014 134.05981506 342.50689094 129.31472885 350.75 124.625 C360.40890084 119.1293984 370.03409387 113.58058567 379.62573242 107.96826172 C387.9996195 103.07070766 396.4007757 98.22146653 404.80810547 93.3815918 C410.32463598 90.20332836 415.83328401 87.01251563 421.328125 83.796875 C422.41738281 83.15943359 423.50664062 82.52199219 424.62890625 81.86523438 C426.69502156 80.65471896 428.76018392 79.44257503 430.82421875 78.22851562 C448.55273915 67.8397502 448.55273915 67.8397502 459.90234375 70.24609375 C464.89823461 71.71742933 468.42487647 73.39781252 471.5625 77.75 C472.1875 80.75 472.1875 80.75 471.5625 83.75 C467.15586527 89.24879635 461.00297786 92.1706033 454.9375 95.5625 C452.57600697 96.89992691 450.21785175 98.24320056 447.859375 99.5859375 C447.25449249 99.92928635 446.64960999 100.27263519 446.02639771 100.62638855 C439.69500319 104.22649943 433.44112809 107.95425821 427.1875 111.6875 C416.80289818 117.87037039 406.34486077 123.90854861 395.84130859 129.88598633 C385.34584836 135.86024791 374.91102473 141.93492884 364.48925781 148.03662109 C347.84361526 157.78129238 331.17381835 167.48325695 314.44580078 177.0859375 C311.84945646 178.58438652 309.26459331 180.1003315 306.68359375 181.625 C295.91069325 187.94404785 287.23997836 191.45328583 274.5625 188.75 C267.68003481 186.20726265 261.34704716 182.51328395 255 178.875 C254.00186279 178.30692627 253.00372559 177.73885254 251.9753418 177.15356445 C243.9173875 172.55558678 235.9034111 167.88287129 227.89819336 163.19384766 C220.14946149 158.65967698 212.36300531 154.19417474 204.5625 149.75 C194.84115901 144.21031101 185.15354908 138.61624937 175.49560547 132.96655273 C164.97165375 126.81233258 154.40869863 120.72630004 143.84472656 114.64111328 C138.41590058 111.51319852 132.98930719 108.38141552 127.5625 105.25 C125.39584417 103.99998121 123.2291775 102.74998122 121.0625 101.5 C90.72916667 84 60.39583333 66.5 30.0625 49 C28.98967773 48.38108887 27.91685547 47.76217773 26.81152344 47.12451172 C24.64802524 45.87628966 22.48461357 44.62791761 20.32128906 43.37939453 C14.85684983 40.22594744 9.39086355 37.07523904 3.921875 33.9296875 C-1.48026654 30.82162785 -6.87804272 27.70614034 -12.27148438 24.58300781 C-14.40731202 23.34644135 -16.54405258 22.11145054 -18.68164062 20.87792969 C-21.77116873 19.09247203 -24.85506246 17.29766455 -27.9375 15.5 C-28.86981445 14.96294434 -29.80212891 14.42588867 -30.76269531 13.87255859 C-31.61444336 13.37320801 -32.46619141 12.87385742 -33.34375 12.359375 C-34.08947266 11.92592773 -34.83519531 11.49248047 -35.60351562 11.04589844 C-37.4375 9.75 -37.4375 9.75 -39.4375 6.75 C-39.9375 3.375 -39.9375 3.375 -39.4375 -0.25 C-28.4585073 -12.30011394 -12.07944956 -7.49204547 0 0 Z " fill="#4969FE" transform="translate(39.4375,217.25)"/>
<path d="M0 0 C1.09965088 0.63365479 2.19930176 1.26730957 3.33227539 1.92016602 C6.5229985 3.76388694 9.70059037 5.62836767 12.875 7.5 C14.37079657 8.37420659 15.86685051 9.24797314 17.36328125 10.12109375 C20.02869545 11.68135998 22.6876068 13.25213617 25.34375 14.828125 C30.97367855 18.16001908 36.6441917 21.42147673 42.3125 24.6875 C43.41972412 25.32550537 44.52694824 25.96351074 45.66772461 26.62084961 C47.93837068 27.92889477 50.20912358 29.23675448 52.47998047 30.54443359 C57.9466998 33.69332054 63.41074887 36.84683264 68.875 40 C71.04165311 41.2500235 73.20831979 42.50002347 75.375 43.75 C146.875 85 146.875 85 218.375 126.25 C219.4482251 126.86915283 220.5214502 127.48830566 221.62719727 128.1262207 C223.78659395 129.3720577 225.94593669 130.61798818 228.10522461 131.86401367 C233.63267597 135.05348953 239.16115121 138.24116885 244.69140625 141.42578125 C245.81144043 142.07200439 246.93147461 142.71822754 248.08544922 143.3840332 C250.29578202 144.65565875 252.5095882 145.9212685 254.72705078 147.18041992 C259.55497569 149.93348223 264.28659696 152.71879465 268.86328125 155.875 C269.61472412 156.37539795 270.36616699 156.8757959 271.14038086 157.39135742 C272.48814602 158.29927792 273.81184339 159.24472715 275.09985352 160.2355957 C277.14820035 161.59105801 278.42254653 162.23860821 280.875 162.5 C285.2260359 161.09426881 288.97132804 158.85136153 292.875 156.5 C294.27274658 155.7097644 294.27274658 155.7097644 295.69873047 154.90356445 C298.5276954 153.30152076 301.32756803 151.6564303 304.125 150 C306.23693344 148.75903676 308.34891393 147.51815359 310.4609375 146.27734375 C311.52666992 145.64940918 312.59240234 145.02147461 313.69042969 144.37451172 C318.70270283 141.42417185 323.72597321 138.49276653 328.75 135.5625 C329.73387695 134.98822266 330.71775391 134.41394531 331.73144531 133.82226562 C340.19084812 128.88875727 348.6737865 123.99653617 357.15917969 119.10791016 C368.4229725 112.61500122 379.65052764 106.06057444 390.875 99.5 C398.87099217 94.82643494 406.86996184 90.15805652 414.875 85.5 C415.44869324 85.16601196 416.02238647 84.83202393 416.61346436 84.48791504 C420.21947649 82.38893146 423.8274149 80.29331818 427.43780518 78.20187378 C429.15538003 77.20612134 430.87140668 76.20769993 432.58740234 75.20922852 C433.62719238 74.60780029 434.66698242 74.00637207 435.73828125 73.38671875 C436.65907471 72.85264404 437.57986816 72.31856934 438.52856445 71.76831055 C442.90343592 69.40357667 446.83093813 69.28522438 451.6875 69.25 C452.38681641 69.229375 453.08613281 69.20875 453.80664062 69.1875 C459.90806985 69.14183916 463.85190546 70.63252811 468.3125 74.75 C469.875 77.5 469.875 77.5 470.25 80.875 C467.04597309 89.32198003 455.0675946 93.83382987 447.52770996 98.0647583 C444.43186288 99.80230593 441.34575915 101.55705751 438.2578125 103.30859375 C437.63334229 103.66215942 437.00887207 104.0157251 436.36547852 104.38000488 C430.42375882 107.74677277 424.51949756 111.17625857 418.625 114.625 C417.65014648 115.19492676 416.67529297 115.76485352 415.67089844 116.35205078 C413.71427727 117.4964957 411.75789543 118.64134987 409.80175781 119.78662109 C395.42543686 128.20278897 381.02529945 136.5760615 366.59082031 144.89208984 C355.3270262 151.38499953 344.09957185 157.93959443 332.875 164.5 C325.74555379 168.66657382 318.61353079 172.82860758 311.47607422 176.98144531 C309.14693568 178.34123898 306.82428026 179.71126443 304.50390625 181.0859375 C303.27353973 181.80746603 302.04308066 182.52883677 300.8125 183.25 C299.81089844 183.84296875 298.80929687 184.4359375 297.77734375 185.046875 C292.71334522 187.58228207 287.77643341 188.79694153 282.125 188.875 C281.20203125 188.90335938 280.2790625 188.93171875 279.328125 188.9609375 C269.17281566 187.60536453 260.50359416 182.29697303 251.8125 177.1875 C250.58479837 176.47458132 249.3565979 175.76252108 248.12792969 175.05126953 C245.60662133 173.59017533 243.08810043 172.12444773 240.57177734 170.65478516 C236.00997909 167.99228423 231.42970225 165.36212764 226.8503418 162.72998047 C216.55867473 156.81096704 206.3019785 150.8330804 196.05371094 144.83935547 C188.35475166 140.34472573 180.62031754 135.91400101 172.875 131.5 C163.15384383 125.9599827 153.46605342 120.36625191 143.80810547 114.71655273 C133.28415375 108.56233258 122.72119863 102.47630004 112.15722656 96.39111328 C106.72840058 93.26319852 101.30180719 90.13141552 95.875 87 C93.70834417 85.74998121 91.5416775 84.49998122 89.375 83.25 C67.70833333 70.75 46.04166667 58.25 24.375 45.75 C23.3017749 45.13084717 22.2285498 44.51169434 21.12280273 43.8737793 C18.96340605 42.6279423 16.80406331 41.38201182 14.64477539 40.13598633 C9.11732403 36.94651047 3.58884879 33.75883115 -1.94140625 30.57421875 C-7.36457797 27.45114861 -12.78313314 24.32017577 -18.20019531 21.18652344 C-20.93837322 19.60761417 -23.68298719 18.04058318 -26.4296875 16.4765625 C-27.97411034 15.58880607 -29.5183926 14.70080498 -31.0625 13.8125 C-31.74836182 13.42666748 -32.43422363 13.04083496 -33.14086914 12.64331055 C-36.54584534 10.67135914 -39.15550878 8.95896307 -41.125 5.5 C-41.625 2.5625 -41.625 2.5625 -41.125 -0.5 C-37.16252027 -5.48140309 -33.57932408 -6.99220881 -27.5 -8.25 C-17.04739457 -9.28505577 -8.77378019 -5.19348207 0 0 Z " fill="#4969FE" transform="translate(41.125,323.5)"/>
<path d="M0 0 C4.25740139 1.96543752 8.2672574 4.36255872 12.3046875 6.73828125 C14.26176754 7.85506376 16.2201978 8.96948211 18.1796875 10.08203125 C23.77063145 13.27154468 29.33463847 16.50555181 34.89355469 19.75048828 C40.35306219 22.93194477 45.82941691 26.08405828 51.3046875 29.23828125 C53.47144094 30.48813083 55.63810748 31.73813108 57.8046875 32.98828125 C58.8771875 33.60703125 59.9496875 34.22578125 61.0546875 34.86328125 C226.8046875 130.48828125 226.8046875 130.48828125 230.0559082 132.36401367 C232.21847333 133.61162865 234.38107089 134.85918741 236.54370117 136.10668945 C243.13465089 139.90875949 249.72548167 143.71102883 256.31201172 147.52075195 C258.49613797 148.77963341 260.68391698 150.03220089 262.87548828 151.27807617 C268.07552849 154.24155272 273.18063668 157.27168387 278.18359375 160.55859375 C286.69104231 166.53254114 286.69104231 166.53254114 296.49609375 168.59765625 C299.13373923 167.35199722 301.27157397 165.897634 303.53759766 164.0703125 C306.41013777 161.90499351 309.53627733 160.19499469 312.65014648 158.40234375 C315.51616421 156.75095365 318.35669349 155.06128851 321.1953125 153.36328125 C327.48904725 149.6155557 333.82972135 145.95220123 340.1796875 142.30078125 C348.61008554 137.44906725 357.02986584 132.58026428 365.4296875 127.67578125 C366.41324219 127.10150391 367.39679688 126.52722656 368.41015625 125.93554688 C371.37528646 124.20361471 374.34005913 122.47107229 377.3046875 120.73828125 C390.6966408 112.91083924 404.1022517 105.10884931 417.54711914 97.37255859 C423.07942531 94.18657092 428.6010787 90.9840169 434.10546875 87.75 C435.19923828 87.10804688 436.29300781 86.46609375 437.41992188 85.8046875 C439.49980883 84.5824204 441.57802816 83.35730961 443.65429688 82.12890625 C444.58693359 81.58105469 445.51957031 81.03320312 446.48046875 80.46875 C447.29427002 79.98817139 448.10807129 79.50759277 448.9465332 79.01245117 C456.59759008 74.87839321 465.53537558 74.16637741 473.95703125 76.4609375 C477.05484606 77.88581694 479.17187564 79.58132178 481.3671875 82.17578125 C482.52349071 85.33634336 482.55559745 86.61100637 481.3046875 89.73828125 C476.86105875 95.14955008 470.9513254 97.95123662 464.8671875 101.23828125 C462.59517296 102.48743731 460.32436016 103.73878137 458.0546875 104.9921875 C456.91644531 105.62012207 455.77820313 106.24805664 454.60546875 106.89501953 C449.80977611 109.57308754 445.08419425 112.36204403 440.3671875 115.17578125 C432.48821467 119.8681314 424.56923016 124.48333232 416.6171875 129.05078125 C407.67804409 134.18802195 398.78782697 139.40016694 389.9296875 144.67578125 C380.70945429 150.16398351 371.4423242 155.55602896 362.1171875 160.86328125 C353.21889552 165.92784374 344.33677953 171.01778077 335.4921875 176.17578125 C334.50436279 176.75062256 333.51653809 177.32546387 332.4987793 177.91772461 C328.24643334 180.40015377 324.01163253 182.90056287 319.83203125 185.50390625 C309.76371485 191.77292714 300.52142075 196.39754462 288.3046875 194.73828125 C281.61519752 193.01917173 275.78447926 190.06673905 269.8046875 186.67578125 C268.93086426 186.18754883 268.05704102 185.69931641 267.15673828 185.19628906 C260.38636831 181.3960269 253.68855392 177.47719857 247.01171875 173.515625 C241.32380948 170.14744195 235.59493916 166.85060215 229.8671875 163.55078125 C228.20695557 162.59413574 228.20695557 162.59413574 226.51318359 161.61816406 C224.24213488 160.30986739 221.97097507 159.00176353 219.69970703 157.69384766 C214.2329877 154.54496071 208.76893863 151.39144861 203.3046875 148.23828125 C201.13803439 146.98825775 198.97136771 145.73825778 196.8046875 144.48828125 C140.47135417 111.98828125 84.13802083 79.48828125 27.8046875 46.98828125 C26.73081787 46.36880615 25.65694824 45.74933105 24.55053711 45.11108398 C22.39747713 43.86880319 20.24464272 42.62613137 18.09204102 41.38305664 C13.06367289 38.47992013 8.03328936 35.58049258 2.99447632 32.69552612 C1.22036205 31.67950941 -0.55301169 30.66221197 -2.32617188 29.64453125 C-4.54346564 28.37245833 -6.76212325 27.1027584 -8.98242188 25.8359375 C-24.5237596 16.90983415 -24.5237596 16.90983415 -28.6953125 12.73828125 C-29.03454483 9.73365203 -29.26445619 7.63574003 -28.6953125 4.73828125 C-26.4453125 2.36328125 -26.4453125 2.36328125 -23.6953125 0.73828125 C-22.84453125 0.21234375 -22.84453125 0.21234375 -21.9765625 -0.32421875 C-15.23986304 -3.09272538 -6.76307838 -2.30916947 0 0 Z " fill="#4969FE" transform="translate(28.6953125,159.26171875)"/>
<path d="M0 0 C1.57201172 -0.04253906 1.57201172 -0.04253906 3.17578125 -0.0859375 C11.90348441 1.05963422 19.7115843 6.48002978 27.25 10.75 C28.34062744 11.36431885 29.43125488 11.9786377 30.55493164 12.61157227 C39.95466359 17.92299278 49.28347516 23.35288111 58.59765625 28.8125 C64.90320419 32.5071331 71.23044436 36.16352681 77.5625 39.8125 C79.18273071 40.74630493 79.18273071 40.74630493 80.83569336 41.69897461 C83.02546334 42.96076826 85.21532355 44.22240534 87.40527344 45.48388672 C92.83409942 48.61180148 98.26069281 51.74358448 103.6875 54.875 C105.85415583 56.12501879 108.0208225 57.37501878 110.1875 58.625 C140.52083333 76.125 170.85416667 93.625 201.1875 111.125 C202.26016113 111.74383057 203.33282227 112.36266113 204.43798828 113.00024414 C206.60307071 114.24935518 208.76810982 115.49854129 210.93310547 116.74780273 C216.37365706 119.88702309 221.81497216 123.02490563 227.2578125 126.16015625 C237.70956149 132.182473 248.15053888 138.22161958 258.5625 144.3125 C268.8393105 150.32393737 279.16718989 156.24325315 289.51318359 162.13452148 C290.6367627 162.77462158 291.7603418 163.41472168 292.91796875 164.07421875 C293.91207764 164.63971436 294.90618652 165.20520996 295.93041992 165.7878418 C298.6875 167.375 298.6875 167.375 301.2355957 169.14379883 C303.59909109 170.58225231 303.59909109 170.58225231 306.1574707 170.25439453 C309.08766395 169.23590991 311.51359005 167.91402267 314.16796875 166.3046875 C315.77007202 165.34260376 315.77007202 165.34260376 317.40454102 164.36108398 C318.25134933 163.84588699 318.25134933 163.84588699 319.11526489 163.32028198 C322.1433953 161.47855399 325.18630641 159.66145784 328.2265625 157.83984375 C328.85009109 157.46527542 329.47361969 157.09070709 330.11604309 156.70478821 C336.28617463 153.00238962 342.51097601 149.39747207 348.75 145.8125 C350.34823608 144.89295532 350.34823608 144.89295532 351.97875977 143.95483398 C354.1338114 142.71545574 356.28916569 141.47660361 358.44482422 140.23828125 C375.23827028 130.5885613 391.99748985 120.88144345 408.71972656 111.10888672 C411.70568929 109.36437312 414.69251287 107.62134378 417.6796875 105.87890625 C418.67202393 105.30003662 419.66436035 104.72116699 420.68676758 104.12475586 C422.67588023 102.96488519 424.66529741 101.80553658 426.6550293 100.64672852 C431.85016676 97.61989241 437.03769205 94.58094989 442.21484375 91.5234375 C443.28798828 90.89179688 444.36113281 90.26015625 445.46679688 89.609375 C447.50815497 88.40753647 449.54737447 87.20205477 451.58398438 85.9921875 C461.77951959 80.0006325 469.57033256 75.89401287 481.6875 77.375 C486.30929587 78.61321752 489.6077383 80.16820751 492.8125 83.75 C493.94943885 87.16081654 493.84692864 88.96917838 492.6875 92.375 C489.50903102 95.20292806 486.15296147 97.38971378 482.4609375 99.484375 C481.44338379 100.06566162 480.42583008 100.64694824 479.37744141 101.24584961 C478.28351074 101.86596924 477.18958008 102.48608887 476.0625 103.125 C473.70153659 104.47249197 471.3427453 105.82375688 468.984375 107.17578125 C468.37949249 107.52222183 467.77460999 107.86866241 467.15139771 108.2256012 C460.83101718 111.85273499 454.57129861 115.58031128 448.3125 119.3125 C437.92755988 125.49481879 427.46987348 131.53354138 416.96630859 137.51098633 C406.47084836 143.48524791 396.03602473 149.55992884 385.61425781 155.66162109 C368.01091302 165.96694924 350.37612587 176.21667486 332.6875 186.375 C331.81899414 186.87531738 330.95048828 187.37563477 330.05566406 187.89111328 C327.81090696 189.18268554 325.56259372 190.46775408 323.3125 191.75 C322.36793945 192.29491089 322.36793945 192.29491089 321.40429688 192.85083008 C315.88661577 195.97426488 311.89668118 196.56393794 305.5625 196.6875 C304.32242187 196.72488281 303.08234375 196.76226562 301.8046875 196.80078125 C292.25474962 196.29293003 283.67998033 190.28577287 275.6875 185.5625 C273.96456644 184.5563068 272.2416266 183.55012416 270.51831055 182.54458618 C268.74278147 181.50750242 266.96893927 180.46757922 265.1953125 179.42724609 C259.70994208 176.21337483 254.19715587 173.0469852 248.6875 169.875 C246.52070854 168.62521633 244.35404217 167.37521577 242.1875 166.125 C240.57875 165.196875 240.57875 165.196875 238.9375 164.25 C227.02083333 157.375 215.10416667 150.5 203.1875 143.625 C202.11483887 143.00616943 201.04217773 142.38733887 199.93701172 141.74975586 C197.77192929 140.50064482 195.60689018 139.25145871 193.44189453 138.00219727 C188.00134294 134.86297691 182.56002784 131.72509437 177.1171875 128.58984375 C166.66543721 122.56752625 156.22456885 116.52819743 145.8125 110.4375 C135.99611542 104.69746579 126.13284506 99.04176663 116.25488281 93.40869141 C105.11597496 87.05576105 94.0081742 80.64953369 82.90527344 74.23388672 C77.50079355 71.11175395 72.09402588 67.99358796 66.6875 64.875 C64.5208225 63.62501878 62.35415583 62.37501879 60.1875 61.125 C59.115 60.50625 58.0425 59.8875 56.9375 59.25 C53.6875 57.375 50.4375 55.5 47.1875 53.625 C46.1142749 53.00584717 45.0410498 52.38669434 43.93530273 51.7487793 C41.77590605 50.5029423 39.61656331 49.25701182 37.45727539 48.01098633 C31.92982403 44.82151047 26.40134879 41.63383115 20.87109375 38.44921875 C15.44973055 35.32702482 10.03218446 32.19829464 4.61669922 29.06591797 C1.86374876 27.47674187 -0.8938302 25.89589872 -3.65234375 24.31640625 C-5.20593973 23.41963552 -6.75934087 22.52252712 -8.3125 21.625 C-9.00674072 21.23078857 -9.70098145 20.83657715 -10.41625977 20.43041992 C-13.53394787 18.6180906 -15.27675541 17.42861688 -17.3125 14.375 C-17.87746874 10.01666972 -17.87161202 8.1150012 -15.1875 4.5625 C-10.44980333 0.95773079 -5.88164998 0.07181502 0 0 Z " fill="#4969FE" transform="translate(17.3125,262.625)"/>
<path d="M0 0 C0.71897461 0.16628906 1.43794922 0.33257812 2.17871094 0.50390625 C16.90031821 4.0512815 30.46872467 10.06814093 42 20 C42.86625 20.598125 43.7325 21.19625 44.625 21.8125 C53.01643688 29.54145502 57.01884827 38.57328904 57.5 49.8125 C57.18188291 61.19130362 52.78377268 69.3274047 44.91796875 77.40234375 C31.26451709 89.55702294 13.80875663 96.63385178 -4 100 C-4.93457031 100.17732666 -5.86914062 100.35465332 -6.83203125 100.53735352 C-15.44339828 102.02305236 -23.89995216 102.36212935 -32.625 102.3125 C-33.32654205 102.31001251 -34.02808411 102.30752502 -34.75088501 102.30496216 C-62.64710935 102.15242851 -92.33049033 96.21947369 -113 76 C-121.47329313 66.14962108 -124.65336313 58.6912516 -124.34375 45.6875 C-123.33312485 34.84624835 -117.16622383 26.75248059 -109.4375 19.4375 C-80.61646129 -4.46017509 -35.17737282 -8.24647226 0 0 Z M0.375 24.0625 C-4.26755737 26.45106213 -6.93963819 26.06104361 -12 25 C-22.71598241 22.90339475 -32.12884719 23.88756718 -41.9375 28.8125 C-45.52341948 31.37387106 -46.87116871 32.72656725 -48 37 C-47.13931131 43.24883571 -43.80107088 47.88877062 -40.23046875 52.9140625 C-38.59445872 55.68748903 -38.51551104 57.85082173 -39 61 C-43.76066014 63.61068459 -47.87788701 63.15161601 -53 62 C-58.47281814 60.29231615 -61.4454732 57.64278408 -65 53.1875 C-67.49633363 50.04118267 -67.49633363 50.04118267 -71.03515625 48.53515625 C-73.19971417 48.764541 -74.96318808 49.23467703 -77 50 C-78.01900391 50.38091797 -78.01900391 50.38091797 -79.05859375 50.76953125 C-80.73158145 51.45286425 -82.370273 52.21908915 -84 53 C-82.8726615 55.76710359 -81.70847194 57.29152806 -79.5625 59.4375 C-77.16397031 61.83602969 -75.6087294 64.03655111 -74 67 C-74.78375 67.309375 -75.5675 67.61875 -76.375 67.9375 C-78.92330128 68.92875038 -78.92330128 68.92875038 -81 70 C-80.27169594 73.11490816 -80.27169594 73.11490816 -77.8125 74.6875 C-74.516001 76.2258662 -72.60070747 76.45008843 -69 76 C-68.236875 75.505 -67.47375 75.01 -66.6875 74.5 C-62.560554 72.19658828 -57.75019725 72.2439934 -53.1953125 73.49609375 C-43.52170471 75.71654821 -32.76183929 74.53572246 -24 70 C-20.72371827 67.79352455 -19.1883296 66.28249441 -17 63 C-16.14692051 58.30806279 -16.30482288 56.15812259 -18.7890625 52.01953125 C-20.23635644 49.96110082 -21.72245423 47.92928734 -23.25 45.9296875 C-25.23033855 42.61438859 -25.43995423 40.79460527 -25 37 C-23.31445405 35.31445405 -21.31295927 35.66851063 -19 35.5625 C-12.55454265 35.62094327 -8.80460401 37.86859386 -4 42 C-3.16275391 42.928125 -3.16275391 42.928125 -2.30859375 43.875 C-0.55442667 45.76865506 0.61054678 46.99295075 3 48 C7.28328464 47.28791742 11.06176999 45.79774703 15 44 C14.42424336 40.64749299 13.40693737 39.06181371 10.9375 36.75 C10.38964844 36.22921875 9.84179688 35.7084375 9.27734375 35.171875 C8.64505859 34.59179688 8.64505859 34.59179688 8 34 C9.22934015 30.31197956 10.93859378 29.27643027 14 27 C12.71186658 26.16121545 11.41936744 25.32913217 10.125 24.5 C9.04605469 23.80390625 9.04605469 23.80390625 7.9453125 23.09375 C4.67431607 21.25463554 3.39632856 22.28701808 0.375 24.0625 Z " fill="#4A69FE" transform="translate(290,99)"/>
<path d="M0 0 C2.38308492 2.82991335 2.93189741 3.87882399 3.4375 7.5625 C2.934942 11.941934 2.01745629 13.69560048 -1 16.796875 C-9.03322802 23.13559399 -19.26391592 23.33084807 -29.05712891 22.61132812 C-36.23501179 21.73822048 -42.88834005 18.33529448 -47.375 12.625 C-48.37720013 9.01707955 -48.25496509 5.85803146 -47 2.375 C-42.67570014 -3.06996348 -36.57153043 -5.75033949 -29.9375 -7.375 C-18.84829462 -8.07907653 -8.61104097 -7.53466085 0 0 Z " fill="#4969FE" transform="translate(372,194.625)"/>
<path d="M0 0 C2.88731294 2.88731294 3.78777868 4.80625507 4.5 8.8125 C3.76486325 13.49899676 1.5525414 15.95707473 -2 19 C-10.16041758 24.54040621 -21.03422376 24.93470829 -30.5 23.25 C-37.06302125 21.62804221 -41.45323835 19.06639155 -46 14 C-47.60127074 10.79745853 -47.40701607 8.54685436 -47 5 C-44.60437443 0.28729395 -40.96929002 -2.36733481 -36.1875 -4.4375 C-23.81018968 -8.34345448 -10.80836056 -7.20557371 0 0 Z " fill="#4969FE" transform="translate(185,86)"/>
</svg>
