<?xml version="1.0" encoding="UTF-8"?>
<svg version="1.1" xmlns="http://www.w3.org/2000/svg" width="512" height="512">
<path d="M0 0 C46.2 0 92.4 0 140 0 C140.25 49.6875 140.25 49.6875 140.29785156 65.36987305 C140.33107622 70.01348703 140.33107622 70.01348703 140.36956787 74.65705872 C140.38417109 76.72346704 140.39095292 78.7899397 140.39154053 80.85639954 C140.39395566 83.98892567 140.42127457 87.12035012 140.45410156 90.25268555 C140.44656546 91.6309541 140.44656546 91.6309541 140.43887711 93.03706646 C140.5075545 97.21771011 140.6437779 99.43151547 142.90911865 103.04670715 C145.32597495 105.30452447 146.43128571 105.9074186 149.6875 106.4375 C158.10698581 105.32549244 163.12510409 96.2400391 167.96484375 89.9296875 C171.12928546 85.80667024 174.39960104 81.77485005 177.6875 77.75 C178.77882469 76.41160415 179.86997508 75.07306616 180.9609375 73.734375 C181.47624023 73.10208984 181.99154297 72.46980469 182.52246094 71.81835938 C185.70700362 67.89924604 188.85584887 63.95156154 192 60 C195.98995704 61.32998568 197.55548771 63.95012632 200 67.1875 C200.99072967 68.47407828 201.98161944 69.76053329 202.97265625 71.046875 C203.47684082 71.70623047 203.98102539 72.36558594 204.50048828 73.04492188 C208.1349602 77.78358211 211.84868422 82.46093925 215.546875 87.14990234 C217.11175281 89.14228206 218.6650629 91.14341572 220.21875 93.14453125 C221.2913627 94.51325909 222.36427244 95.88175422 223.4375 97.25 C224.18181274 98.21667603 224.18181274 98.21667603 224.94116211 99.20288086 C228.27884598 103.53562945 228.27884598 103.53562945 233 106 C236.96005316 105.85856953 239.23689804 105.60244891 242.375 103.125 C244.69086874 100.09655627 245.12505147 97.61925726 245.15821838 93.91877747 C245.17287942 92.6782888 245.17287942 92.6782888 245.18783665 91.41273975 C245.1936069 90.50543456 245.19937716 89.59812937 245.20532227 88.66333008 C245.21535499 87.69157428 245.22538771 86.71981848 245.23572445 85.71861553 C245.26713965 82.56894513 245.29189313 79.41926215 245.31640625 76.26953125 C245.3348069 74.32661526 245.35364343 72.38370335 245.3729248 70.4407959 C245.44140466 63.23141222 245.50143682 56.02195031 245.5625 48.8125 C245.706875 32.704375 245.85125 16.59625 246 0 C292.2 0 338.4 0 386 0 C386 42.9 386 85.8 386 130 C381.84361116 128.33744446 378.36044689 126.5253012 374.5 124.3125 C344.26497019 107.68495172 306.07169537 104.09227654 273.08984375 113.6640625 C250.3779093 120.64269998 231.18228426 131.57264914 214 148 C213.33871094 148.598125 212.67742187 149.19625 211.99609375 149.8125 C187.67819352 172.60746103 174.04876003 208.07235902 172.78125 240.89453125 C172.33184832 259.12764265 175.14531954 275.78376142 181 293 C181.67351895 295.33136465 182.3411147 297.66445744 183 300 C162.85014644 300.09359032 142.70033721 300.1640511 122.55031109 300.20724869 C113.19354152 300.22784241 103.83690729 300.25590179 94.48022461 300.30175781 C86.32152026 300.3417235 78.16291397 300.36745598 70.00411445 300.37635398 C65.68715095 300.38155231 61.37046789 300.39370316 57.05359459 300.42292023 C52.9832294 300.45024347 48.91325788 300.45841119 44.84280968 300.45243073 C43.35579279 300.45352346 41.86876156 300.46137627 40.38182449 300.4768219 C27.41933809 300.60476834 17.7068504 298.63539561 8.16796875 289.4453125 C2.85226506 283.44958185 -0.12671777 277.25848354 -0.12304783 269.22864914 C-0.12503888 268.26623456 -0.12702993 267.30381998 -0.12908131 266.31224132 C-0.12616847 265.25777285 -0.12325563 264.20330438 -0.12025452 263.11688232 C-0.12110894 261.99457128 -0.12196337 260.87226023 -0.12284368 259.71593976 C-0.1244955 255.94179535 -0.11898193 252.16769503 -0.11352539 248.39355469 C-0.11324343 245.6934906 -0.11335736 242.99342924 -0.1139679 240.29336548 C-0.11449244 234.47337128 -0.11135286 228.65338829 -0.10573006 222.83339691 C-0.09760571 214.41864964 -0.09499887 206.00390779 -0.09374207 197.58915702 C-0.09155302 183.9370391 -0.08489692 170.28492717 -0.07543945 156.6328125 C-0.06626153 143.37044301 -0.05919402 130.10807515 -0.05493164 116.84570312 C-0.05466364 116.01997929 -0.05439565 115.19425545 -0.05411953 114.34350967 C-0.05204013 107.88588145 -0.05008319 101.4282532 -0.04816496 94.97062492 C-0.03872996 63.31374447 -0.01861196 31.65687896 0 0 Z " fill="#4969FE" transform="translate(54,117)"/>
<path d="M0 0 C0.72832031 0.61488281 1.45664062 1.22976563 2.20703125 1.86328125 C3.00753906 2.52972656 3.80804688 3.19617188 4.6328125 3.8828125 C26.72668435 22.95295072 40.05236338 49.94057861 43.20703125 78.86328125 C45.07116563 116.63789313 35.92463641 147.18089891 10.8125 175.5703125 C-10.15163204 197.64696896 -39.57949007 210.44843983 -69.90820312 211.265625 C-103.74393988 211.63054008 -132.41062158 197.83576481 -156.79296875 174.86328125 C-157.4684375 174.25226563 -158.14390625 173.64125 -158.83984375 173.01171875 C-179.11693902 153.95124919 -191.05132952 125.35630058 -192.79296875 97.86328125 C-192.84710938 97.01894531 -192.90125 96.17460937 -192.95703125 95.3046875 C-193.92959649 64.13839225 -181.67683999 34.30329258 -160.765625 11.53125 C-119.59373256 -32.00865773 -46.9904325 -38.18501812 0 0 Z M-135.60546875 33.67578125 C-141.03452811 41.58669631 -143.87023921 49.68192153 -142.23046875 59.30078125 C-139.83608237 68.37090714 -134.79276613 75.08233725 -126.79296875 79.86328125 C-125.76171875 80.48203125 -124.73046875 81.10078125 -123.66796875 81.73828125 C-116.40268147 84.51471826 -107.38131626 83.82161122 -100.23046875 81.11328125 C-92.08812246 77.27455682 -86.9803605 71.35788988 -83.6484375 62.98828125 C-81.05304234 53.50738569 -82.1966852 44.91329347 -87.02734375 36.42578125 C-91.92890702 29.31200801 -98.84276021 25.14702703 -107.2734375 23.328125 C-118.88064426 21.76250176 -127.40146276 25.47177526 -135.60546875 33.67578125 Z M-59.79296875 31.86328125 C-61.7272045 35.08619189 -63.10907646 38.51960644 -64.54296875 41.98828125 C-65.00630615 43.07447754 -65.46964355 44.16067383 -65.94702148 45.27978516 C-67.28326449 48.42893131 -68.60290204 51.58405134 -69.91351318 54.74389648 C-70.82983293 56.95211961 -71.74977162 59.15880855 -72.67041016 61.36523438 C-75.46076864 68.05654762 -78.24384751 74.75080289 -81.00708008 81.45336914 C-84.90651353 90.91192014 -88.83414624 100.35722878 -92.81640625 109.78125 C-93.64579307 111.74754125 -94.47513921 113.71384966 -95.30444336 115.68017578 C-96.50661503 118.53005929 -97.71061507 121.37908903 -98.92092896 124.2255249 C-100.03836238 126.85393914 -101.14870199 129.48525268 -102.2578125 132.1171875 C-102.58723846 132.88628952 -102.91666443 133.65539154 -103.256073 134.44779968 C-107.14584747 143.11264355 -107.14584747 143.11264355 -106.73046875 152.17578125 C-104.5641775 155.18063685 -103.2503452 156.52747671 -99.79296875 157.86328125 C-95.80997067 157.86328125 -93.59943572 157.4754029 -90.41015625 155.0546875 C-86.40352142 150.80499758 -84.59571539 145.12218361 -82.41796875 139.80078125 C-81.89764605 138.55472413 -81.37621139 137.30913085 -80.85375977 136.06396484 C-79.73447632 133.39008255 -78.62288811 130.71317822 -77.51708984 128.03369141 C-75.80704245 123.89138801 -74.07702054 119.75762903 -72.34375 115.625 C-69.54226527 108.94014519 -66.76224643 102.24657932 -63.98869324 95.5500946 C-61.66006059 89.93480263 -59.30909236 84.32918926 -56.94950867 78.72683716 C-55.17921768 74.51906303 -53.41772157 70.30763743 -51.65750122 66.09564209 C-50.79393856 64.03470978 -49.92668512 61.97531982 -49.05563354 59.9175415 C-47.83451151 57.03108216 -46.62681047 54.13934016 -45.421875 51.24609375 C-45.05389801 50.38516113 -44.68592102 49.52422852 -44.30679321 48.63720703 C-42.48967249 44.23486736 -41.22053222 40.71684635 -41.79296875 35.86328125 C-43.06985721 33.05412664 -44.10396692 31.36221361 -46.60546875 29.55078125 C-51.7994549 27.9183856 -55.58446101 28.44978397 -59.79296875 31.86328125 Z M-59.48046875 113.67578125 C-65.25812546 120.53754573 -67.37997525 127.91143218 -66.79296875 136.86328125 C-65.22597436 145.53206675 -61.43216117 152.46596495 -54.25390625 157.72265625 C-46.38564969 162.59679748 -40.04558665 163.6628902 -30.79296875 162.86328125 C-22.66398738 160.9300278 -15.93055166 156.48380136 -11.22265625 149.55078125 C-6.66529591 141.63399528 -5.36082087 133.97650675 -7.4765625 124.9453125 C-10.52510581 115.77438344 -14.94136607 110.2532724 -23.5625 105.86328125 C-36.73992432 99.95536422 -49.80699637 103.2364923 -59.48046875 113.67578125 Z " fill="#4969FE" transform="translate(438.79296875,270.13671875)"/>
<path d="M0 0 C1.23259048 -0.00137466 2.46518097 -0.00274933 3.73512268 -0.00416565 C5.10322595 -0.00062652 6.47132898 0.00300829 7.83943176 0.00672913 C9.2782796 0.00701116 10.71712759 0.00685294 12.15597534 0.00628662 C16.06477651 0.00599928 19.9735471 0.01188578 23.88234115 0.01886058 C27.96628779 0.02510466 32.05023511 0.02569875 36.13418579 0.02688599 C43.86893992 0.02999618 51.60367993 0.03820539 59.33842784 0.04823548 C69.78953902 0.06149433 80.24065404 0.06689904 90.69177151 0.07273769 C107.16002885 0.08214548 123.62825643 0.10206648 140.09651184 0.12025452 C140.09651184 21.57025452 140.09651184 43.02025452 140.09651184 65.12025452 C86.96651184 65.12025452 33.83651184 65.12025452 -20.90348816 65.12025452 C-20.90348816 11.16631978 -20.90348816 11.16631978 -14.86833191 5.06166077 C-14.19930847 4.6066217 -13.53028503 4.15158264 -12.84098816 3.68275452 C-12.1693866 3.20966858 -11.49778503 2.73658264 -10.80583191 2.24916077 C-7.15694943 0.08380751 -4.15037425 -0.00356255 0 0 Z " fill="#4969FE" transform="translate(53.90348815917969,31.879745483398438)"/>
<path d="M0 0 C36.29064326 -0.20151517 36.29064326 -0.20151517 51.5078125 -0.24414062 C62.01151751 -0.2737994 72.51502185 -0.30865021 83.01855469 -0.37719727 C90.66853155 -0.42709786 98.31834549 -0.45930654 105.96848059 -0.47044247 C110.01771055 -0.47695005 114.06647449 -0.49219947 118.11555481 -0.52865028 C121.9307185 -0.56271543 125.74522646 -0.57303208 129.5605278 -0.56553841 C130.95690353 -0.5669083 132.35330232 -0.57677877 133.74954605 -0.59602737 C142.8684898 -0.71552143 148.82551474 0.05567843 155.5100174 6.44285107 C168.68626299 20.87077223 161 53.06602245 161 65 C107.87 65 54.74 65 0 65 C0 43.55 0 22.1 0 0 Z " fill="#4A69FE" transform="translate(300,32)"/>
<path d="M0 0 C21.45 0 42.9 0 65 0 C65 50.16 65 100.32 65 152 C59.37446505 146.37446505 59.37446505 146.37446505 56.94921875 143.36328125 C56.4193335 142.7079541 55.88944824 142.05262695 55.34350586 141.37744141 C54.79702393 140.69601074 54.25054199 140.01458008 53.6875 139.3125 C53.11717041 138.60786621 52.54684082 137.90323242 51.95922852 137.17724609 C49.45029708 134.07277637 46.95613742 130.95939102 44.515625 127.80078125 C43.48695313 126.47626953 43.48695313 126.47626953 42.4375 125.125 C41.56931641 123.98417969 41.56931641 123.98417969 40.68359375 122.8203125 C38.87230693 120.86193742 37.49401356 119.92064172 35 119 C30.91866165 119.07420615 28.75275939 119.32807383 25.671875 122.078125 C22.53380906 125.50981115 19.59560174 129.06062839 16.6875 132.6875 C16.11862061 133.39140869 15.54974121 134.09531738 14.96362305 134.82055664 C12.44104652 137.94560358 9.93082511 141.0797632 7.4453125 144.234375 C6.74148437 145.12640625 6.03765625 146.0184375 5.3125 146.9375 C4.71050781 147.70964844 4.10851562 148.48179687 3.48828125 149.27734375 C2 151 2 151 0 152 C0 101.84 0 51.68 0 0 Z " fill="#4A69FE" transform="translate(214,32)"/>
<path d="M0 0 C2.86830829 2.01391859 4.61592935 3.45434983 5.48046875 6.93359375 C5.75669245 10.88284615 5.25523948 12.63647711 2.9375 15.9375 C-0.57823396 18.40599406 -2.71383323 19 -7 19 C-10.57387602 17.41161066 -11.81089572 16.28365642 -14 13 C-14.34061873 9.9830912 -14.57212107 7.90592185 -14 5 C-9.52139324 -0.53932942 -6.92988354 -1.64437915 0 0 Z " fill="#4A69FE" transform="translate(330,314)"/>
<path d="M0 0 C2.80915461 1.27688846 4.50106764 2.31099817 6.3125 4.8125 C7.25846855 7.82239992 7.44072275 9.85198036 7 13 C4.65369226 16.65747972 3.16253179 18.6124894 -1 20 C-5.00304865 20 -7.46901282 19.03888416 -10.75 16.8125 C-12.73603759 13.93274549 -12.88090948 11.45362522 -13 8 C-10.34308522 1.84714471 -6.73274027 -0.82441718 0 0 Z " fill="#4968FE" transform="translate(404,393)"/>
</svg>
