<?xml version="1.0" encoding="UTF-8"?>
<svg version="1.1" xmlns="http://www.w3.org/2000/svg" width="512" height="512">
<path d="M0 0 C0.96075439 0.465271 0.96075439 0.465271 1.94091797 0.93994141 C43.16926531 20.98694702 75.03029481 57.90401088 90.28515625 100.90625 C97.17720999 121.08331832 100.60428176 140.91488635 100.4375 162.25 C100.43412628 163.09617889 100.43075256 163.94235779 100.42727661 164.81417847 C100.34844509 178.52618756 99.50218324 191.68208786 96 205 C95.76925781 205.89315918 95.53851563 206.78631836 95.30078125 207.70654297 C82.90558458 254.01637499 51.61618381 293.97794563 10.28833008 318.0612793 C-11.34335103 330.22124043 -34.42639941 337.73002733 -59 341 C-59.97839844 341.13148438 -60.95679688 341.26296875 -61.96484375 341.3984375 C-78.23637678 343.20910433 -96.00511116 342.60860297 -112 339 C-110.96721512 335.69508839 -109.53300595 333.33223012 -107.375 330.6875 C-98.8366908 319.5396831 -94.45902354 306.43697608 -91 293 C-90.28682617 292.9906543 -89.57365234 292.98130859 -88.83886719 292.97167969 C-53.81509507 292.39825677 -22.31939592 284.92614171 5 262 C5.91265625 261.25105469 6.8253125 260.50210937 7.765625 259.73046875 C12.81045145 255.76333715 12.81045145 255.76333715 15 250 C12.70268637 249.1561082 12.70268637 249.1561082 10 249 C7.90635744 250.51411051 7.90635744 250.51411051 6.0625 252.8125 C-11.88551935 271.88411858 -41.07722922 285.1788548 -67.23046875 286.11572266 C-74.82239127 286.24413389 -82.40931873 286.16943485 -90 286 C-89.96519531 284.8140625 -89.93039063 283.628125 -89.89453125 282.40625 C-89.35293783 256.09520403 -96.44804423 231.46925666 -114.91723633 212.07421875 C-116.26390344 210.70201019 -117.63155514 209.3504915 -119 208 C-119.73992187 207.26136719 -120.47984375 206.52273438 -121.2421875 205.76171875 C-136.02793954 191.8154508 -157.73672335 181.74968746 -178.234375 181.9375 C-178.91300598 181.94128662 -179.59163696 181.94507324 -180.29083252 181.94897461 C-182.4439549 181.96112828 -184.59693925 181.97977442 -186.75 182 C-189.59895432 182.0265019 -192.44784455 182.04651284 -195.296875 182.0625 C-197.18937988 182.07990234 -197.18937988 182.07990234 -199.12011719 182.09765625 C-202 182 -202 182 -203 181 C-209.00993275 150.00591823 -199.9085865 117.11238169 -182.6875 91.25 C-177.95515027 84.66550649 -172.61064144 78.82967549 -167 73 C-166.05253906 71.94039062 -166.05253906 71.94039062 -165.0859375 70.859375 C-146.10240101 50.28690814 -115.02354573 38.32500252 -87.62084961 36.87402344 C-51.37511082 35.72116451 -19.12376704 46.96444151 7.63305664 71.70703125 C28.7668657 91.84307699 44.14828812 121.91999492 45.11328125 151.46875 C45.12326139 154.31641522 45.09230206 157.15401987 45 160 C38.79449461 154.85713671 33.23947694 149.23867282 27.69726562 143.39453125 C27.01986328 142.69972656 26.34246094 142.00492188 25.64453125 141.2890625 C24.73731323 140.34087646 24.73731323 140.34087646 23.81176758 139.37353516 C21.84767174 137.59724492 21.84767174 137.59724492 18 138 C17.67 138.99 17.34 139.98 17 141 C18.04305216 142.75497952 18.04305216 142.75497952 19.73828125 144.47265625 C20.38748535 145.17664551 21.03668945 145.88063477 21.70556641 146.60595703 C22.46272949 147.39599121 23.21989258 148.18602539 24 149 C24.85126465 149.88929199 25.7025293 150.77858398 26.57958984 151.69482422 C28.93958855 154.12954584 31.31499661 156.54567743 33.70776367 158.94799805 C35.2023951 160.4524934 36.68603289 161.96733929 38.16992188 163.48242188 C39.12694737 164.4459653 40.08460663 165.40887975 41.04296875 166.37109375 C41.89914795 167.23661865 42.75532715 168.10214355 43.63745117 168.99389648 C45.99355934 170.99453107 46.99369799 171.68739819 50 172 C51.72151654 171.03669121 51.72151654 171.03669121 53.22387695 169.4230957 C53.82742508 168.83530838 54.43097321 168.24752106 55.05281067 167.641922 C55.69151596 166.99309555 56.33022125 166.3442691 56.98828125 165.67578125 C57.65087448 165.01797165 58.31346771 164.36016205 58.99613953 163.68241882 C60.39494303 162.28702077 61.78744002 160.88527671 63.17407227 159.4777832 C65.30421309 157.32089098 67.45966159 155.19192529 69.61914062 153.06445312 C70.97296029 151.70732948 72.32522814 150.34865566 73.67578125 148.98828125 C74.3246077 148.34957596 74.97343414 147.71087067 75.641922 147.05281067 C76.22970932 146.44926254 76.81749664 145.84571442 77.4230957 145.22387695 C78.20774956 144.43325615 78.20774956 144.43325615 79.008255 143.62666321 C80.24156918 141.99685437 80.24156918 141.99685437 79.66105652 139.79850769 C79.44290787 139.20500015 79.22475922 138.61149261 79 138 C74.8247741 138.51001101 72.93789671 140.74358514 70.0859375 143.69140625 C69.63022369 144.15610825 69.17450989 144.62081024 68.70498657 145.09959412 C67.25429058 146.58025057 65.81393731 148.07042012 64.375 149.5625 C62.47212868 151.52819007 60.56218814 153.48622665 58.6484375 155.44140625 C57.80458496 156.31482666 56.96073242 157.18824707 56.09130859 158.08813477 C54 160 54 160 52 160 C51.91363281 158.87207031 51.82726562 157.74414062 51.73828125 156.58203125 C48.50494153 118.76619137 33.45288745 85.33379728 4.26220703 60.52294922 C-23.93498747 37.54078708 -59.90891481 27.81236505 -95.91796875 31.42578125 C-128.84755204 35.54369782 -160.30573403 52.95261916 -180.875 79.0625 C-195.3694897 98.0132743 -204.77001953 118.4492979 -209 142 C-209.28230469 143.57007813 -209.28230469 143.57007813 -209.5703125 145.171875 C-210.1542832 150.37452304 -210.14451823 155.51911506 -210.125 160.75 C-210.12886719 161.7709375 -210.13273437 162.791875 -210.13671875 163.84375 C-210.12812686 170.61416118 -209.73025997 177.26963131 -209 184 C-209.70382813 184.27972656 -210.40765625 184.55945313 -211.1328125 184.84765625 C-225.17804951 190.55009582 -239.03468361 196.73248194 -249.73828125 207.796875 C-251 209 -251 209 -253 209 C-266.43473495 161.84799334 -258.65678758 114.70819907 -235.32421875 72.046875 C-212.32263977 31.202408 -172.7443778 0.54368866 -127.86035156 -12.23925781 C-85.44157487 -23.52100143 -39.35757832 -19.65476133 0 0 Z M-81 81 C-83.85021424 83.85021424 -83.3259733 86.6707896 -83.35400391 90.49145508 C-83.3671463 91.26400131 -83.3802887 92.03654755 -83.39382935 92.83250427 C-83.43332283 95.39485034 -83.45662527 97.9569619 -83.4765625 100.51953125 C-83.48471355 101.39406134 -83.49286461 102.26859142 -83.50126266 103.16962242 C-83.54299585 107.79837477 -83.57159375 112.42700834 -83.59033203 117.0559082 C-83.61246613 121.8383959 -83.68126044 126.61902337 -83.76067543 131.40085316 C-83.81295886 135.07691411 -83.82971075 138.75253021 -83.83689499 142.42893028 C-83.84664027 144.19168349 -83.86990847 145.95441593 -83.90697098 147.71680641 C-84.49387028 156.87065218 -84.49387028 156.87065218 -81.43267822 165.07196045 C-79.32555353 166.43034173 -77.37528197 167.21371759 -75 168 C-73.71836515 168.6721221 -72.44763562 169.36550499 -71.18945312 170.08056641 C-69.88865396 170.75796098 -68.58585228 171.43152162 -67.28125 172.1015625 C-66.57907349 172.46470551 -65.87689697 172.82784851 -65.15344238 173.20199585 C-63.68212708 173.96159212 -62.2099079 174.71944001 -60.73681641 175.47558594 C-58.50247248 176.62372949 -56.27261326 177.78026203 -54.04296875 178.9375 C-52.60182539 179.68019783 -51.16042752 180.42240208 -49.71875 181.1640625 C-49.063302 181.50474762 -48.407854 181.84543274 -47.73254395 182.19644165 C-43.25138995 184.48547317 -38.81889491 186.52346723 -34 188 C-33.01 187.34 -32.02 186.68 -31 186 C-31.37215703 183.53002069 -31.63116258 182.31574724 -33.56118774 180.66352844 C-34.21855927 180.28383408 -34.87593079 179.90413971 -35.55322266 179.51293945 C-36.27777649 179.0909024 -37.00233032 178.66886536 -37.74884033 178.23403931 C-41.18356647 176.35119327 -44.64091654 174.53653014 -48.1484375 172.79296875 C-48.8870401 172.42271072 -49.6256427 172.0524527 -50.3866272 171.67097473 C-51.93011002 170.89855889 -53.47458542 170.12812344 -55.02001953 169.35961914 C-57.39269999 168.17869038 -59.76093425 166.98916519 -62.12890625 165.79882812 C-63.63516006 165.04636111 -65.14166156 164.29438968 -66.6484375 163.54296875 C-67.35672699 163.18679977 -68.06501648 162.8306308 -68.79476929 162.46366882 C-72.23142829 160.62683365 -72.23142829 160.62683365 -76 160 C-75.99333817 158.55966904 -75.99333817 158.55966904 -75.98654175 157.09024048 C-75.9460545 148.05516568 -75.91604396 139.0201092 -75.89637566 129.98496437 C-75.88592418 125.33954726 -75.87174021 120.69420319 -75.84912109 116.04882812 C-75.8274412 111.56846775 -75.81544166 107.08817778 -75.81024551 102.60776901 C-75.80654101 100.89568345 -75.79930734 99.18360188 -75.78853989 97.47154617 C-75.77408932 95.07941514 -75.77201933 92.68757758 -75.77294922 90.29541016 C-75.76575867 89.58259384 -75.75856812 88.86977753 -75.75115967 88.13536072 C-75.65610973 84.12073876 -75.65610973 84.12073876 -78 81 C-78.99 81 -79.98 81 -81 81 Z " fill="#4969FE" transform="translate(342,83)"/>
<path d="M0 0 C1.70269643 1.31387172 3.39120418 2.64641058 5.0625 4 C5.82820312 4.60199219 6.59390625 5.20398438 7.3828125 5.82421875 C24.08290388 19.70216926 34.610029 40.54660879 37.0625 62 C38.59967566 87.57848274 32.38215703 110.52041953 15.5 130.33984375 C-0.16679603 147.43774134 -21.14260469 158.97793853 -44.55859375 160.31640625 C-70.44688449 161.22005172 -92.53437594 153.63378271 -112.26953125 137.0390625 C-128.37836093 121.97873653 -138.35916381 98.62783854 -139.140625 76.72265625 C-139.58790571 50.10802978 -131.61736889 27.26518513 -113.0625 7.8125 C-82.34244092 -21.78076155 -34.37793008 -24.32310373 0 0 Z M-11.9375 35 C-18.46786934 41.95025772 -24.81739339 48.94685825 -30.79296875 56.38671875 C-32.93624956 58.99847623 -35.1613033 61.50365302 -37.4375 64 C-40.53305196 67.39598682 -43.48901207 70.86171531 -46.375 74.4375 C-50.38888284 79.40706923 -54.62154653 84.10922906 -58.96875 88.78515625 C-60.96421788 90.83679121 -60.96421788 90.83679121 -61.9375 93 C-65.84959308 91.40584497 -68.30968086 88.86106668 -71.25 85.875 C-71.7349292 85.38362549 -72.2198584 84.89225098 -72.71948242 84.38598633 C-77.19454827 79.81565881 -81.37642151 75.01005768 -85.51953125 70.140625 C-87.19212557 68.21963705 -87.19212557 68.21963705 -89.9375 66 C-92.75166116 65.95902218 -92.75166116 65.95902218 -94.9375 67 C-94.56208581 72.06809161 -91.82445118 74.77222093 -88.4375 78.25 C-87.89649658 78.82065186 -87.35549316 79.39130371 -86.7980957 79.97924805 C-82.93144597 84.0377174 -78.97206015 88.00224721 -74.96875 91.92578125 C-72.31778743 94.63282188 -69.91535735 97.51644419 -67.54296875 100.46875 C-65.57578413 102.34499421 -64.68480923 103.04062564 -61.9375 103 C-59.35659845 100.86866625 -59.35659845 100.86866625 -56.9375 98 C-56.15890625 97.17242187 -55.3803125 96.34484375 -54.578125 95.4921875 C-49.60438355 90.0470784 -44.84894139 84.48882877 -40.21875 78.75 C-37.87031032 75.91900422 -35.42840098 73.20616402 -32.9375 70.5 C-28.83184795 66.03899013 -24.98110555 61.42872855 -21.17578125 56.7109375 C-18.1924196 53.0975815 -15.05347088 49.64049162 -11.8828125 46.19140625 C-10.10115618 44.18435967 -8.41453934 42.24151338 -6.9375 40 C-7.15467352 37.79199472 -7.15467352 37.79199472 -7.9375 36 C-9.2575 35.67 -10.5775 35.34 -11.9375 35 Z " fill="#4969FE" transform="translate(208.9375,287)"/>
</svg>
