<?xml version="1.0" encoding="UTF-8"?>
<svg version="1.1" xmlns="http://www.w3.org/2000/svg" width="512" height="512">
<path d="M0 0 C24.42 0 48.84 0 74 0 C82.58264518 22.06965903 82.58264518 22.06965903 85.35546875 33.17578125 C86.65464925 37.4112262 87.76295114 40.15304221 91.48754883 42.703125 C94.27180434 44.00638412 97.07285427 45.14886809 99.95556641 46.21472168 C102.99451179 47.38199751 105.9476905 48.72793955 108.91723633 50.06011963 C112.22662264 51.53841206 115.55601631 52.96838841 118.88647461 54.3984375 C120.60295042 55.13963176 122.31613898 55.88848058 124.02612305 56.64453125 C126.52939147 57.75023448 129.04228453 58.83061625 131.55859375 59.90625 C132.31804794 60.24773071 133.07750214 60.58921143 133.85997009 60.94104004 C137.33717893 62.39856002 139.27931348 63.13547476 143.05078125 62.42651367 C144.02402344 61.95576416 144.99726563 61.48501465 146 61 C146.57750504 60.72979034 147.15501007 60.45958069 147.75001526 60.18118286 C149.72709686 59.24276713 151.67754629 58.26025169 153.62890625 57.26953125 C155.09019809 56.54172168 156.55179592 55.81452623 158.01367188 55.08789062 C160.29681074 53.94841446 162.57755232 52.80486555 164.85327148 51.65063477 C167.06408257 50.53179361 169.28301278 49.43069207 171.50390625 48.33203125 C172.18111221 47.9831636 172.85831818 47.63429596 173.55604553 47.27485657 C177.550593 45.31820711 179.77077062 44.5906873 184 46 C186.4682312 47.94683838 186.4682312 47.94683838 189.08154297 50.53222656 C189.56180435 51.00226608 190.04206573 51.4723056 190.53688049 51.95658875 C192.11576112 53.50774783 193.67942102 55.07324389 195.2421875 56.640625 C196.33559007 57.72625204 197.4294382 58.8114305 198.52371216 59.8961792 C200.81173862 62.1692982 203.09187915 64.44999342 205.3671875 66.73583984 C208.28603985 69.66630445 211.22704003 72.57335933 214.17477226 75.47473526 C216.43798945 77.7085196 218.68723307 79.95597165 220.93265152 82.20763397 C222.01167572 83.28563042 223.09544468 84.35889894 224.18395615 85.42731476 C225.70231579 86.9210462 227.20041304 88.43255635 228.69482422 89.95019531 C229.55244354 90.80655579 230.41006287 91.66291626 231.29367065 92.54522705 C233 95 233 95 232.86697388 97.58903503 C231.60646245 101.09438735 230.05942347 104.43692739 228.4375 107.78515625 C228.0861499 108.52326035 227.7347998 109.26136444 227.37280273 110.02183533 C226.25381077 112.37128668 225.12754351 114.71714209 224 117.0625 C222.87313662 119.4117359 221.74796399 121.76172536 220.62719727 124.11387634 C219.93088381 125.57477143 219.23099331 127.03396831 218.52709961 128.4912262 C215.24970649 134.89161204 215.24970649 134.89161204 216.26000977 141.62841797 C216.8920473 143.08815668 217.53674038 144.5424561 218.19140625 145.9921875 C218.53372787 146.77457794 218.8760495 147.55696838 219.22874451 148.36306763 C220.32928073 150.87192442 221.44547681 153.37344645 222.5625 155.875 C223.64688913 158.33369081 224.72810353 160.79372608 225.80639648 163.25509644 C226.52265847 164.87432869 227.25027275 166.48858572 227.98901367 168.09768677 C229.63433067 171.70569414 231.12400915 175.17787336 232.11523438 179.02294922 C233.5050645 183.7353814 234.71529484 187.53076853 239.01260376 190.29425049 C245.21657022 193.39373528 251.75921731 195.34623975 258.375 197.375 C265.18125 199.56125 271.9875 201.7475 279 204 C279 228.42 279 252.84 279 278 C269.161875 280.413125 269.161875 280.413125 259.125 282.875 C247.82432838 286.30322074 237.98802997 289.81272976 231.72839355 300.35354614 C226.40009409 310.66644662 222.82204211 321.72790355 219.68240356 332.87426758 C219.02800986 334.91274741 218.20813658 336.72812059 217.26538086 338.64648438 C215.31671886 343.81083343 216.31936394 347.32251621 218.35107422 352.32983398 C218.9132666 353.45719971 219.47545898 354.58456543 220.0546875 355.74609375 C220.35690216 356.36090103 220.65911682 356.97570831 220.9704895 357.60914612 C221.92950287 359.5566256 222.90138584 361.4972848 223.875 363.4375 C224.83932489 365.37511011 225.80070822 367.31409048 226.75808716 369.25514221 C227.62969169 371.01986792 228.50966367 372.78045376 229.39013672 374.54077148 C231.14360024 378.30856412 232.58578256 382.09367178 234 386 C227.47474059 392.68739038 220.93079092 399.35574856 214.36215019 406.00053501 C211.31269132 409.08653877 208.27008768 412.17871768 205.2421875 415.28588867 C202.32026816 418.28382001 199.38161636 421.26436446 196.43054581 424.23359489 C195.30724523 425.36983799 194.19012858 426.51222884 193.07937241 427.66073799 C191.52307112 429.26780163 189.94627014 430.85165581 188.36279297 432.43188477 C187.47010712 433.3401149 186.57742126 434.24834503 185.65768433 435.18409729 C183 437 183 437 179.88879395 436.88539124 C176.2066003 435.75682961 172.87679915 434.1442765 169.4765625 432.3671875 C168.028993 431.63603101 166.58106502 430.90558391 165.1328125 430.17578125 C162.87512627 429.02729754 160.62102979 427.87293828 158.37304688 426.70556641 C156.1870291 425.57478512 153.98947507 424.46963511 151.7890625 423.3671875 C151.12734039 423.0151828 150.46561829 422.6631781 149.78384399 422.30050659 C144.70681538 419.78716955 141.5440007 419.76981718 136 421 C132.9020274 422.0389205 132.9020274 422.0389205 129.98046875 423.44140625 C128.33618896 424.18680664 128.33618896 424.18680664 126.65869141 424.94726562 C125.51319824 425.48029297 124.36770508 426.01332031 123.1875 426.5625 C109.29579594 432.96796191 109.29579594 432.96796191 103.18359375 435.15234375 C102.32032471 435.47066162 101.45705566 435.78897949 100.56762695 436.11694336 C98.99935326 436.68390447 97.41852247 437.21784495 95.82495117 437.70922852 C92.32615657 439.00839116 90.50418458 440.1485842 88.57421875 443.40771484 C87.22209425 446.56530466 86.09268514 449.74360472 85 453 C84.12056316 455.40913594 83.24033521 457.81798321 82.359375 460.2265625 C81.48630435 462.69154941 80.6165357 465.15770823 79.75 467.625 C78.87152806 470.11780675 77.99071741 472.60976713 77.109375 475.1015625 C76.72749023 476.18775879 76.34560547 477.27395508 75.95214844 478.39306641 C75 481 75 481 74 483 C49.58 483 25.16 483 0 483 C-1.464375 476.503125 -2.92875 470.00625 -4.4375 463.3125 C-8.03020976 451.09945024 -12.14170228 441.75876433 -23.46022034 435.1509552 C-28.85273696 432.36877343 -34.34151645 429.99813595 -40 427.8125 C-41.11551239 427.38039215 -42.23102478 426.9482843 -43.38034058 426.50308228 C-58.62282745 420.23495442 -58.62282745 420.23495442 -74.32983398 422.35107422 C-75.45719971 422.9132666 -76.58456543 423.47545898 -77.74609375 424.0546875 C-78.36090103 424.35690216 -78.97570831 424.65911682 -79.60914612 424.9704895 C-81.5566256 425.92950287 -83.4972848 426.90138584 -85.4375 427.875 C-87.37511011 428.83932489 -89.31409048 429.80070822 -91.25514221 430.75808716 C-93.01986792 431.62969169 -94.78045376 432.50966367 -96.54077148 433.39013672 C-100.30856412 435.14360024 -104.09367178 436.58578256 -108 438 C-114.68739038 431.47474059 -121.35574856 424.93079092 -128.00053501 418.36215019 C-131.08653877 415.31269132 -134.17871768 412.27008768 -137.28588867 409.2421875 C-140.28382001 406.32026816 -143.26436446 403.38161636 -146.23359489 400.43054581 C-147.36983799 399.30724523 -148.51222884 398.19012858 -149.66073799 397.07937241 C-151.26780163 395.52307112 -152.85165581 393.94627014 -154.43188477 392.36279297 C-155.3401149 391.47010712 -156.24834503 390.57742126 -157.18409729 389.65768433 C-159 387 -159 387 -158.87767029 383.87731934 C-157.80645242 380.36548133 -156.32923517 377.16799652 -154.65625 373.9140625 C-153.98027975 372.55738582 -153.30450455 371.20061194 -152.62890625 369.84375 C-151.56632483 367.73329757 -150.49993895 365.62487991 -149.42919922 363.51855469 C-148.39043573 361.46787161 -147.36653752 359.4102494 -146.34375 357.3515625 C-146.02394165 356.73358795 -145.7041333 356.1156134 -145.37463379 355.47891235 C-142.57406178 349.81499952 -141.19041903 344.85520935 -142.95288086 338.6394043 C-143.45182861 337.54539307 -143.95077637 336.45138184 -144.46484375 335.32421875 C-144.73583389 334.71471878 -145.00682404 334.10521881 -145.286026 333.47724915 C-146.1522846 331.53882675 -147.04369333 329.61335091 -147.9375 327.6875 C-148.78762566 325.81067849 -149.63225203 323.9315177 -150.47381592 322.05084229 C-151.05627823 320.76346469 -151.65014486 319.48119238 -152.25469971 318.20404053 C-153.96657088 314.54327333 -155.36630921 310.94276891 -156.52832031 307.06933594 C-159.67758782 297.03095497 -159.67758782 297.03095497 -167.2565918 290.19702148 C-172.304471 287.89756754 -177.54658299 286.37457426 -182.875 284.875 C-184.70268307 284.30242978 -186.52824482 283.72304179 -188.3515625 283.13671875 C-191.66323202 282.0807505 -194.98142725 281.06524207 -198.31982422 280.09716797 C-202 279 -202 279 -204 278 C-204 253.58 -204 229.16 -204 204 C-181.93034097 195.41735482 -181.93034097 195.41735482 -170.82421875 192.64453125 C-166.5887738 191.34535075 -163.84695779 190.23704886 -161.296875 186.51245117 C-159.99361588 183.72819566 -158.85113191 180.92714573 -157.78527832 178.04443359 C-156.61800249 175.00548821 -155.27206045 172.0523095 -153.93988037 169.08276367 C-152.46158794 165.77337736 -151.03161159 162.44398369 -149.6015625 159.11352539 C-148.86036824 157.39704958 -148.11151942 155.68386102 -147.35546875 153.97387695 C-146.24976552 151.47060853 -145.16938375 148.95771547 -144.09375 146.44140625 C-143.75226929 145.68195206 -143.41078857 144.92249786 -143.05895996 144.14002991 C-141.60487221 140.67100936 -140.86272399 138.72647002 -141.57348633 134.96508789 C-142.04423584 133.98660889 -142.51498535 133.00812988 -143 132 C-143.27020966 131.40741898 -143.54041931 130.81483795 -143.81881714 130.20429993 C-144.7585553 128.15919624 -145.74084518 126.13859143 -146.73046875 124.1171875 C-147.4581714 122.60570414 -148.18537022 121.09397811 -148.91210938 119.58203125 C-150.05259835 117.21823414 -151.1966058 114.85637511 -152.34936523 112.49853516 C-153.46623123 110.20973134 -154.5681551 107.9142234 -155.66796875 105.6171875 C-156.0168364 104.91294647 -156.36570404 104.20870544 -156.72514343 103.48312378 C-159.04271816 98.60338914 -159.04271816 98.60338914 -158.86499023 96.09300232 C-157.63315831 93.11235932 -155.74236678 91.32910187 -153.48364258 89.03198242 C-153.01520935 88.55186707 -152.54677612 88.07175171 -152.06414795 87.5770874 C-150.51566631 85.99505414 -148.95602861 84.42465017 -147.39453125 82.85546875 C-146.31159067 81.76034773 -145.22880371 80.66507477 -144.14616394 79.56965637 C-141.87596532 77.27699123 -139.59939834 74.99086138 -137.3190918 72.70825195 C-134.39762583 69.78149532 -131.49989944 66.83238539 -128.60739613 63.87703991 C-126.37930538 61.60810628 -124.13560268 59.35512083 -121.88724327 57.106287 C-120.81182344 56.02547833 -119.74215017 54.93892012 -118.6784153 53.84660912 C-117.1894432 52.32100417 -115.67994873 50.81909953 -114.16333008 49.32104492 C-113.30919022 48.46040939 -112.45505035 47.59977386 -111.57502747 46.71305847 C-109 45 -109 45 -105.88128662 45.14450073 C-102.46846437 46.15782128 -99.43953481 47.51334053 -96.24609375 49.08984375 C-95.6227565 49.39443008 -94.99941925 49.69901642 -94.35719299 50.01283264 C-92.38029405 50.98045742 -90.40878381 51.9584942 -88.4375 52.9375 C-86.46167326 53.91081961 -84.48478252 54.88192221 -82.50709534 55.85145569 C-80.71429893 56.73158686 -78.92432901 57.61746863 -77.13452148 58.50366211 C-75.58293335 59.24434937 -75.58293335 59.24434937 -74 60 C-73.18281494 60.41709229 -72.36562988 60.83418457 -71.52368164 61.26391602 C-64.57864736 63.28957901 -57.821947 59.496404 -51.54296875 56.78125 C-50.06670769 56.15434265 -50.06670769 56.15434265 -48.56062317 55.51477051 C-45.43286641 54.18428978 -42.31021693 52.84226054 -39.1875 51.5 C-37.06867878 50.59690649 -34.94954129 49.69455464 -32.83007812 48.79296875 C-21.30937583 45.05399261 -21.30937583 45.05399261 -13.50366211 37.33813477 C-12.92084601 35.7085113 -12.34596568 34.07603659 -11.77734375 32.44140625 C-11.31902916 31.15217506 -11.31902916 31.15217506 -10.85145569 29.8368988 C-9.87328841 27.08113502 -8.90512852 24.3219799 -7.9375 21.5625 C-6.96426157 18.80735004 -5.98901582 16.05292072 -5.01283264 13.29881287 C-4.40522479 11.58234505 -3.79972973 9.86512763 -3.19651794 8.14710999 C-2.92275833 7.36967941 -2.64899872 6.59224884 -2.36694336 5.79125977 C-2.00626015 4.76319969 -2.00626015 4.76319969 -1.63829041 3.71437073 C-1 2 -1 2 0 0 Z M-27 128 C-27.59474121 128.33870117 -28.18948242 128.67740234 -28.80224609 129.02636719 C-58.86993734 146.47540487 -79.63474025 175.14304967 -88.81640625 208.42578125 C-97.81946275 242.55687516 -91.78897413 277.64419255 -74.17675781 307.92529297 C-56.03610912 337.9573848 -26.84718672 358.94145526 7.04931641 367.51855469 C41.12454755 375.58222246 76.20914926 368.93243947 106 351 C113.62864552 346.04187131 120.40119749 340.24324105 127 334 C127.82371094 333.24074219 128.64742187 332.48148438 129.49609375 331.69921875 C154.1689463 308.18110188 166.11541536 274.79462122 166.99609375 241.234375 C167.31210644 209.90889883 155.56775761 179.44940491 135 156 C134.31550781 155.17113281 133.63101563 154.34226563 132.92578125 153.48828125 C110.76417972 127.39412196 77.39222875 114.04977649 44 111 C19.55181924 109.13925051 -5.8669993 115.88725072 -27 128 Z " fill="#4969FE" transform="translate(219,15)"/>
<path d="M0 0 C2.87261601 1.39933374 5.71097103 2.84022376 8.53515625 4.3359375 C25.34871207 12.99220405 42.80040466 13.80687126 60.97265625 8.9609375 C66.4556022 7.07676363 71.71356468 5.03089934 76.41015625 1.5859375 C78.97265625 -0.0390625 78.97265625 -0.0390625 81.23828125 0.1015625 C87.13297494 1.95418052 92.05054962 6.30982552 96.97265625 9.9609375 C97.71128906 10.50878906 98.44992187 11.05664062 99.2109375 11.62109375 C111.13112621 21.27077032 120.21499387 35.54286687 124.984375 50.03515625 C124.96758924 54.22600034 122.87334375 56.34059628 120.16015625 59.2734375 C119.65460205 59.84030273 119.14904785 60.40716797 118.62817383 60.99121094 C100.26898912 81.25318437 75.32955977 94.54636511 47.74072266 96.08544922 C16.64967665 97.13595466 -10.63975954 87.67937437 -33.5859375 66.390625 C-42.35902445 57.65964887 -42.35902445 57.65964887 -45.02734375 52.9609375 C-44.95779813 47.891062 -42.71981554 43.65076181 -40.46484375 39.2109375 C-40.11059326 38.50791504 -39.75634277 37.80489258 -39.39135742 37.08056641 C-36.2784383 31.09381354 -32.49780371 26.01139726 -28.02734375 20.9609375 C-27.26550781 19.99671875 -26.50367188 19.0325 -25.71875 18.0390625 C-22.89685643 14.6454899 -19.64177962 12.01546092 -16.15234375 9.3359375 C-15.56582031 8.871875 -14.97929687 8.4078125 -14.375 7.9296875 C-4.08180116 -0.07864742 -4.08180116 -0.07864742 0 0 Z " fill="#4969FE" transform="translate(216.02734375,254.0390625)"/>
<path d="M0 0 C9.1874294 6.4419671 16.55332224 15.53017139 18.6875 26.71484375 C19.62682884 40.52759733 17.66709493 51.65804131 8.6875 62.71484375 C2.20340196 69.70874803 -6.72426998 74.37700229 -16.25390625 74.953125 C-29.86656258 75.28218975 -40.10868893 73.43643313 -50.3125 63.71484375 C-58.90137005 54.87085875 -61.94526354 44.77705857 -61.78540039 32.58569336 C-61.24131036 20.31933844 -55.69900196 11.73577949 -47.0625 3.46484375 C-34.00681132 -7.77939574 -14.79722725 -8.22345906 0 0 Z " fill="#4969FE" transform="translate(277.3125,167.28515625)"/>
</svg>
