<?xml version="1.0" encoding="UTF-8"?>
<svg version="1.1" xmlns="http://www.w3.org/2000/svg" width="512" height="512">
<path d="M0 0 C1.48583652 -0.00461004 2.97166849 -0.01096366 4.45749092 -0.01890898 C8.53704195 -0.03561142 12.61621882 -0.0273519 16.69577122 -0.0149641 C21.09666546 -0.00591964 25.49749504 -0.01988033 29.89837646 -0.03088379 C38.51834416 -0.04868006 47.13817263 -0.0448241 55.75814581 -0.03323323 C62.76311226 -0.02420354 69.76803966 -0.02297289 76.77301025 -0.02732849 C78.26788741 -0.02824789 78.26788741 -0.02824789 79.7929641 -0.02918586 C81.81744052 -0.03046475 83.84191693 -0.0317616 85.86639333 -0.03307623 C104.85460345 -0.04448527 123.84273635 -0.03136323 142.83093381 -0.00987476 C159.1273995 0.00799651 175.42375121 0.00489249 191.72021484 -0.0135498 C210.63998987 -0.03495078 229.55969721 -0.0433866 248.47948265 -0.03110075 C250.49655532 -0.02982654 252.513628 -0.02856906 254.53070068 -0.02732849 C255.52316618 -0.02671139 256.51563168 -0.02609429 257.53817189 -0.02545848 C264.53557593 -0.02200327 271.53293707 -0.02783763 278.53033447 -0.0372467 C287.05662813 -0.04845947 295.58277447 -0.04544184 304.10905123 -0.02412373 C308.46019125 -0.01360358 312.81108555 -0.00950785 317.16222382 -0.02272034 C321.14458072 -0.0346302 325.1264639 -0.02810524 329.10877776 -0.00681013 C330.55014443 -0.00233806 331.99155104 -0.00462396 333.43289208 -0.01431328 C344.30289696 -0.08178676 344.30289696 -0.08178676 349.2986145 2.10218048 C354.42595094 7.34393463 356.15155083 11.72750304 356.15522003 19.00271606 C356.16103379 19.72794299 356.16684756 20.45316991 356.1728375 21.20037341 C356.1874123 23.62566345 356.17356479 26.04993741 356.15979004 28.47521973 C356.16439996 30.23344247 356.1707535 31.99166137 356.17869902 33.74987221 C356.19540287 38.57771786 356.18714113 43.4052474 356.17475414 48.23309422 C356.16571033 53.44108285 356.17967007 58.64901682 356.19067383 63.85699463 C356.20847075 74.05799008 356.20461382 84.25886787 356.19302326 94.45986795 C356.18399385 102.74960198 356.18276282 111.039303 356.18711853 119.32904053 C356.18773146 120.50837493 356.18834439 121.68770932 356.1889759 122.90278113 C356.19025479 125.29849228 356.19155164 127.69420343 356.19286627 130.08991456 C356.2042755 152.56042747 356.19115295 175.03087513 356.1696648 197.50137734 C356.15179352 216.78679889 356.15489753 236.07212414 356.17333984 255.35754395 C356.19474046 277.74703495 356.20317683 300.13646875 356.19089079 322.52596855 C356.18961658 324.9129219 356.18835909 327.29987525 356.18711853 329.68682861 C356.18619288 331.44852023 356.18619288 331.44852023 356.18524852 333.24580157 C356.1817932 341.52665429 356.1876279 349.80747076 356.19703674 358.08831787 C356.2082491 368.17837429 356.20523268 378.26830623 356.18391377 388.35834837 C356.17339315 393.50756146 356.16929885 398.6565669 356.18251038 403.8057785 C356.19441901 408.5184214 356.18789688 413.23066393 356.16660017 417.94327044 C356.16212763 419.64909238 356.16441497 421.35494805 356.17410332 423.06074834 C356.18625977 425.37869812 356.17380124 427.69527498 356.15522003 430.01315308 C356.15457062 431.30078741 356.15392121 432.58842175 356.15325212 433.9150753 C355.38838899 439.395857 353.14694743 443.0502199 349.15185547 446.94543457 C344.03455215 449.22994498 339.13713097 449.71820888 333.65185547 448.50793457 C327.27566977 445.01290657 321.59295087 440.25258517 315.90185547 435.75793457 C314.32132451 434.51940034 312.74059413 433.28112056 311.15966797 432.04309082 C310.39299805 431.44125977 309.62632812 430.83942871 308.83642578 430.21936035 C299.8677799 423.19318605 290.78383142 416.31989501 281.65185547 409.50793457 C272.21416382 416.53994011 262.89767694 423.72607796 253.65185547 431.00793457 C251.31956158 432.84259416 248.98626748 434.6759708 246.65185547 436.50793457 C246.05211914 436.97860352 245.45238281 437.44927246 244.83447266 437.9342041 C243.06836366 439.31697529 241.29826593 440.69446426 239.52685547 442.07043457 C237.97611328 443.27893066 237.97611328 443.27893066 236.39404297 444.51184082 C230.27475195 448.96619653 225.17169893 449.5411955 217.65185547 448.50793457 C214.16330236 447.08354264 211.54012782 444.90210123 208.65185547 442.50793457 C207.55592877 441.63466586 206.45812336 440.76375191 205.35888672 439.89465332 C202.81636658 437.87704057 200.28790411 435.84314359 197.76513672 433.80090332 C193.51446106 430.37637779 189.18486831 427.06081355 184.83935547 423.75793457 C178.70497181 419.09295139 172.63139172 414.37089894 166.65185547 409.50793457 C161.76990653 412.21044202 157.52083183 415.62745877 153.15185547 419.07043457 C151.53357986 420.33763496 149.91508904 421.60456056 148.29638672 422.87121582 C147.10843506 423.80248291 147.10843506 423.80248291 145.89648438 424.75256348 C141.87141457 427.9002959 137.81664829 431.00884211 133.76123047 434.11730957 C131.53589795 435.82824362 129.317531 437.5462807 127.10498047 439.27355957 C126.51692627 439.73085449 125.92887207 440.18814941 125.32299805 440.65930176 C124.20089928 441.53220326 123.08080486 442.40769001 121.96313477 443.28625488 C116.28822245 447.6903409 112.29441445 449.33585087 105.05419922 449.19543457 C98.125806 447.79543778 92.98698988 442.89221034 87.65185547 438.50793457 C86.44532535 437.54603299 85.23698537 436.58639722 84.02685547 435.62902832 C81.54255159 433.6571699 79.07055655 431.67111549 76.60498047 429.67590332 C72.31672978 426.22075503 67.96153953 422.85594364 63.58935547 419.50793457 C62.88705811 418.96805908 62.18476074 418.42818359 61.46118164 417.87194824 C57.61129665 414.93238088 53.71521794 412.14499977 49.65185547 409.50793457 C49.17466064 409.87966797 48.69746582 410.25140137 48.20581055 410.63439941 C39.40388917 417.48960999 30.60059843 424.3424365 21.74560547 431.12902832 C19.57189384 432.80048082 17.40548264 434.4790032 15.24560547 436.16809082 C-1.84507987 449.50793457 -1.84507987 449.50793457 -9.34814453 449.50793457 C-14.20099733 448.62788355 -18.07114635 447.30584287 -21.34814453 443.50793457 C-24.36640381 438.98054566 -24.47494633 435.85295728 -24.48236561 430.50534439 C-24.48471784 429.78473284 -24.48707007 429.0641213 -24.48949358 428.32167304 C-24.49619147 425.8883229 -24.49572512 423.45502607 -24.49531555 421.02166748 C-24.49861368 419.26690138 -24.50233914 417.51213603 -24.50645703 415.75737166 C-24.51649085 410.92059242 -24.52019604 406.08382559 -24.52284634 401.24703741 C-24.52674526 396.03626825 -24.53632382 390.82550896 -24.5450592 385.61474609 C-24.56483446 373.02408717 -24.5748908 360.43342744 -24.58378699 347.84275687 C-24.58816783 341.91728324 -24.59353514 335.99181051 -24.59877586 330.06633759 C-24.61578859 310.37546601 -24.63028382 290.68459499 -24.6375246 270.99371719 C-24.63943457 265.88224537 -24.6413549 260.77077356 -24.64331055 255.65930176 C-24.64379429 254.38883254 -24.64427803 253.11836333 -24.64477643 251.80939505 C-24.65308068 231.21840018 -24.67842407 210.62746333 -24.71089122 190.03649381 C-24.74393424 168.908522 -24.76197084 147.78057972 -24.76516885 126.65258193 C-24.76733641 114.78495547 -24.77612118 102.91741364 -24.80163002 91.04981232 C-24.82329929 80.94503787 -24.83140602 70.8403686 -24.82166324 60.73557356 C-24.8171077 55.57827467 -24.81907752 50.42119297 -24.83842468 45.26392365 C-24.85597954 40.54374061 -24.85512129 35.82393443 -24.83952739 31.10374781 C-24.83713962 29.39510597 -24.84153511 27.68643855 -24.85335604 25.97783592 C-24.86842571 23.6560613 -24.858838 21.33563056 -24.84312916 19.01388931 C-24.84410597 17.72408669 -24.84508278 16.43428406 -24.84608918 15.10539651 C-24.09481864 9.67775073 -21.85306319 6.04643584 -17.99490356 2.10218048 C-12.16276193 -0.4474445 -6.27605432 -0.04219036 0 0 Z M153.90185547 70.57043457 C150.81216099 74.60420237 150.29711344 78.54811581 149.65185547 83.50793457 C148.78044922 83.61234863 147.90904297 83.7167627 147.01123047 83.82434082 C135.81094998 86.10346766 126.34469378 95.00471251 119.83935547 104.01965332 C110.72512742 118.53406149 107.58203266 133.8272025 111.37060547 150.71105957 C116.26562301 166.8308587 125.93070402 178.7190024 140.49951172 187.03527832 C148.8542473 190.93829606 156.99932775 192.28105241 166.09912109 193.32434082 C173.99121111 194.32159838 179.3170251 196.33076257 184.65185547 202.50793457 C189.25846458 208.90600278 190.37663188 215.33531976 189.28076172 223.15637207 C187.69592743 229.55477138 184.64100688 234.21086006 179.65185547 238.50793457 C172.50990144 242.53339957 165.5692998 243.25842271 157.75341797 241.23059082 C152.17222902 239.31140875 147.68373995 235.5538566 144.65185547 230.50793457 C142.65946034 225.54412256 141.62248939 220.44851958 140.71435547 215.19543457 C139.90686044 211.00696442 138.87974715 208.46683528 135.65185547 205.50793457 C130.84505473 202.26613873 126.29796106 201.60577407 120.65185547 202.50793457 C115.81380082 204.88131987 113.09251008 207.71701997 110.65185547 212.50793457 C107.6682117 222.23543069 111.151875 233.94206068 115.33935547 242.82043457 C122.214642 255.37457297 131.12709685 263.6774433 144.21435547 269.50793457 C149.34152814 271.92964933 149.34152814 271.92964933 150.71044922 274.48059082 C151.13067787 276.47016893 151.39569369 278.49066059 151.65185547 280.50793457 C154.28959314 284.74715583 156.96512188 286.79547422 161.65185547 288.50793457 C167.03025812 289.10553486 170.5515233 288.733378 175.11669922 285.76965332 C178.74403249 282.78840995 180.44858351 279.63424019 181.27294922 275.06652832 C182.93845723 270.76829093 184.20581346 270.13580028 188.22216797 268.29309082 C189.30111328 267.84256348 189.30111328 267.84256348 190.40185547 267.38293457 C203.21087224 261.77605727 211.44963536 252.46663983 217.39404297 239.76574707 C223.14379493 224.87353236 223.09281612 209.14460477 216.65185547 194.50793457 C209.39771047 179.71213272 197.24607918 168.90593509 181.65185547 163.50793457 C176.32682567 162.044433 171.15654907 161.46326857 165.65185547 161.19543457 C158.37043191 160.66058774 152.40859459 158.26467369 147.21435547 153.07043457 C146.69873047 152.22480957 146.18310547 151.37918457 145.65185547 150.50793457 C145.09498047 149.64168457 144.53810547 148.77543457 143.96435547 147.88293457 C141.09511162 140.50487896 140.94275586 133.26290208 143.58544922 125.79699707 C146.49174277 119.5585794 150.67867655 115.66417082 157.09716797 113.16809082 C164.48822499 111.25816936 171.87553863 111.65208687 178.68310547 115.19152832 C185.53536433 119.77329664 187.94361955 125.65706949 189.65185547 133.50793457 C189.94561123 135.25758511 190.23732316 137.00758018 190.52685547 138.75793457 C191.45267208 143.66476261 193.0413762 146.06938289 196.65185547 149.50793457 C201.1109788 152.22462736 205.57169239 152.1740539 210.65185547 151.50793457 C214.09347017 149.85404315 214.09347017 149.85404315 216.65185547 147.50793457 C217.51810547 146.82730957 217.51810547 146.82730957 218.40185547 146.13293457 C222.39866598 140.93708091 221.79261642 135.09616845 221.19091797 128.95324707 C218.57433544 112.2298718 209.40070961 98.98076843 195.92529297 88.98059082 C191.51608252 86.12445278 186.97822635 83.50793457 181.65185547 83.50793457 C181.60029297 82.86727051 181.54873047 82.22660645 181.49560547 81.56652832 C180.82545142 76.45660369 179.88292162 73.06553746 176.08935547 69.44543457 C168.20779294 63.39479764 161.48714379 64.88146833 153.90185547 70.57043457 Z M79.71435547 314.88293457 C77.40534186 320.58755643 77.19265934 325.02153592 79.56201172 330.64465332 C81.91367774 334.66524362 85.23746732 337.03647185 89.65185547 338.50793457 C91.67804532 338.60779296 93.70738895 338.64728865 95.73602295 338.65510559 C97.00898224 338.66226089 98.28194153 338.6694162 99.59347534 338.67678833 C101.00714087 338.67962857 102.42080666 338.6823403 103.83447266 338.68493652 C105.32107705 338.69120202 106.80767989 338.6978489 108.29428101 338.70484924 C113.17908642 338.72588207 118.06389211 338.73625101 122.94873047 338.74621582 C124.63101467 338.75026369 126.31329871 338.75438062 127.99558258 338.7585659 C135.89943793 338.777616 143.80328395 338.79184731 151.70715785 338.80017787 C160.82746902 338.80994951 169.94753745 338.83626777 179.06776309 338.87667876 C186.11925675 338.90684996 193.17068087 338.9216477 200.22223783 338.92495888 C204.43282164 338.92730827 208.64314607 338.93625404 212.85366058 338.96142006 C216.81655419 338.98472346 220.77901803 338.9889251 224.74196243 338.97865868 C226.19356593 338.97816375 227.64519075 338.9844716 229.09672928 338.99821472 C239.60905561 339.18822176 239.60905561 339.18822176 248.65185547 334.50793457 C252.16709235 330.34515406 253.55776771 326.96502464 253.65185547 321.50793457 C252.73187084 317.16853806 251.40852515 314.24520246 248.21435547 311.13293457 C243.68329957 308.25958205 240.91093928 307.2567075 235.4541626 307.23377991 C234.1812738 307.22380478 232.90838501 307.21382965 231.59692383 307.20355225 C230.18847669 307.20265647 228.78002938 307.20199289 227.37158203 307.20153809 C225.88645003 307.19391545 224.40132197 307.18548777 222.91619873 307.17631531 C218.8829616 307.15437074 214.84980029 307.14557122 210.8165102 307.14048886 C208.29506088 307.13684455 205.77363139 307.13060403 203.25218964 307.12348747 C194.4508324 307.09899093 185.64953411 307.08594111 176.84814453 307.08239746 C168.65241589 307.07876435 160.45706223 307.0488858 152.26144814 307.00699288 C145.21924951 306.9722617 138.17717495 306.95684852 131.13489127 306.95615143 C126.93150906 306.95535942 122.72850865 306.94665683 118.52521515 306.91815376 C114.56878119 306.89192506 110.61304422 306.88979413 106.65656281 306.9058094 C105.20860267 306.90762025 103.76060202 306.900966 102.31272888 306.88499069 C92.89903819 306.78749909 85.91210616 307.28569179 79.71435547 314.88293457 Z " fill="#4A67FE" transform="translate(90.34814453125,31.4920654296875)"/>
</svg>
