<?xml version="1.0" encoding="UTF-8"?>
<svg version="1.1" xmlns="http://www.w3.org/2000/svg" width="512" height="512">
<path d="M0 0 C0.99422974 0.00215515 1.98845947 0.0043103 3.01281738 0.00653076 C17.48109955 0.05686686 31.66189071 0.35398296 45.875 3.3125 C46.85130371 3.51117676 47.82760742 3.70985352 48.83349609 3.91455078 C97.21339984 14.03634541 141.2005519 35.95291013 176.875 70.3125 C177.8640332 71.26068604 177.8640332 71.26068604 178.87304688 72.22802734 C188.36130305 81.37247479 197.1012044 90.66984009 204.875 101.3125 C205.73306152 102.46355017 206.59113451 103.61459177 207.44921875 104.765625 C213.48736829 112.95680614 218.84595521 121.47054105 223.875 130.3125 C224.23948242 130.94430176 224.60396484 131.57610352 224.97949219 132.22705078 C246.4740329 169.78084014 256.35126533 212.44304389 256.1875 255.4375 C256.18476578 256.9278476 256.18476578 256.9278476 256.18197632 258.44830322 C256.13719978 272.942192 255.67610213 287.05386097 252.875 301.3125 C252.71402832 302.20807617 252.55305664 303.10365234 252.38720703 304.02636719 C244.49797508 347.63313051 224.80850867 388.77106217 195.875 422.3125 C195.24078125 423.05757813 194.6065625 423.80265625 193.953125 424.5703125 C182.14198485 438.07529833 169.39139772 450.74668743 154.875 461.3125 C153.72505169 462.16899066 152.57531411 463.02576433 151.42578125 463.8828125 C143.23410474 469.9234414 134.71854922 475.28255071 125.875 480.3125 C125.24319824 480.67698242 124.61139648 481.04146484 123.96044922 481.41699219 C97.93166464 496.31500327 68.51361377 505.96041257 38.875 510.3125 C37.67254639 510.48910156 36.47009277 510.66570312 35.23120117 510.84765625 C23.51493596 512.45161689 11.87584274 512.71324553 0.0625 512.6875 C-0.92433777 512.68662384 -1.91117554 512.68574768 -2.92791748 512.68484497 C-67.88219852 512.49532667 -130.29571624 487.41579016 -177.125 442.3125 C-177.78435547 441.68037598 -178.44371094 441.04825195 -179.12304688 440.39697266 C-188.61130305 431.25252521 -197.3512044 421.95515991 -205.125 411.3125 C-205.98306152 410.16144983 -206.84113451 409.01040823 -207.69921875 407.859375 C-213.73736829 399.66819386 -219.09595521 391.15445895 -224.125 382.3125 C-224.48948242 381.68069824 -224.85396484 381.04889648 -225.22949219 380.39794922 C-240.15973018 354.31285999 -249.63885054 324.97664886 -254.125 295.3125 C-254.38990234 293.62882324 -254.38990234 293.62882324 -254.66015625 291.91113281 C-256.3170586 280.29802257 -256.52373513 268.78070055 -256.5 257.0625 C-256.49945618 256.05048523 -256.49891235 255.03847046 -256.49835205 253.99578857 C-256.4576051 237.46132605 -255.53386907 221.54185136 -252.125 205.3125 C-251.91601074 204.29720215 -251.70702148 203.2819043 -251.49169922 202.23583984 C-242.71380189 160.92383315 -223.71113066 122.2919774 -196.125 90.3125 C-195.49078125 89.56742187 -194.8565625 88.82234375 -194.203125 88.0546875 C-182.39198485 74.54970167 -169.64139772 61.87831257 -155.125 51.3125 C-153.97505169 50.45600934 -152.82531411 49.59923567 -151.67578125 48.7421875 C-143.48410474 42.7015586 -134.96854922 37.34244929 -126.125 32.3125 C-125.49319824 31.94801758 -124.86139648 31.58353516 -124.21044922 31.20800781 C-98.17975097 16.30890142 -68.76448404 6.66904478 -39.125 2.3125 C-37.32675781 2.04651001 -37.32675781 2.04651001 -35.4921875 1.77514648 C-23.66616559 0.14661384 -11.92341476 -0.04652724 0 0 Z M-27.70703125 133.3828125 C-33.48248226 141.67360591 -36.25713227 149.03614771 -36.23852539 159.21411133 C-36.23867142 159.88783783 -36.23881744 160.56156433 -36.2389679 161.25570679 C-36.23827472 163.46868174 -36.23051036 165.68157111 -36.22265625 167.89453125 C-36.22078995 169.43438165 -36.21936705 170.97423265 -36.21836853 172.51408386 C-36.21456002 176.55660659 -36.20474402 180.59909309 -36.19366455 184.64160156 C-36.18341455 188.77082835 -36.17886323 192.90006102 -36.17382812 197.02929688 C-36.1631202 205.1237145 -36.14606386 213.21810273 -36.125 221.3125 C-36.9443956 221.30805878 -37.7637912 221.30361755 -38.60801697 221.29904175 C-46.36061462 221.25883302 -54.11316113 221.22844883 -61.86583614 221.20887566 C-65.85078853 221.19847436 -69.83565416 221.18438259 -73.82055664 221.16162109 C-77.67201646 221.13976151 -81.52339325 221.12790394 -85.37491035 221.12274551 C-86.83838773 221.11907316 -88.30186099 221.11190246 -89.76530266 221.10103989 C-104.021673 220.99950639 -115.03481522 222.46807616 -125.875 232.375 C-133.28654537 240.26680312 -135.85586106 248.81051707 -135.64697266 259.51416016 C-135.11634275 269.49048261 -131.02505591 277.1942605 -124.125 284.3125 C-113.67509861 293.20851271 -102.24368746 293.74843464 -89.0546875 293.60546875 C-87.52198709 293.59986188 -85.98928124 293.59559695 -84.45657349 293.59260559 C-80.45508543 293.58124251 -76.45393275 293.55185082 -72.45257568 293.51849365 C-68.35645075 293.48760681 -64.26027074 293.47406079 -60.1640625 293.45898438 C-52.15088909 293.42697128 -44.13798646 293.37588069 -36.125 293.3125 C-36.13388245 294.14806931 -36.14276489 294.98363861 -36.1519165 295.8445282 C-36.23252605 303.77242309 -36.29319774 311.70017761 -36.33224869 319.62839031 C-36.35300111 323.70304228 -36.38108837 327.77735172 -36.42675781 331.85180664 C-36.4706622 335.79408377 -36.49422956 339.73603436 -36.50450897 343.67853737 C-36.51182134 345.17224064 -36.52609716 346.66592885 -36.54792023 348.15949059 C-36.72192708 360.57802872 -35.5928321 372.55664752 -27.1640625 382.3125 C-19.26468297 390.06055042 -11.16161097 393.51804392 -0.25 394.75 C9.68585226 394.26034814 18.93452858 390.3885275 25.875 383.3125 C35.58379557 372.20048007 36.32264908 360.3626613 36.16796875 346.14453125 C36.16236027 344.61326009 36.15809611 343.08198347 36.15510559 341.55070496 C36.14375514 337.55745074 36.11437493 333.56453382 36.08099365 329.57141113 C36.05007897 325.4818986 36.03655495 321.39233055 36.02148438 317.30273438 C35.98949369 309.30583632 35.93841916 301.30921034 35.875 293.3125 C36.71278992 293.32138245 37.55057983 293.33026489 38.41375732 293.3394165 C46.35668007 293.41997408 54.29946319 293.48067185 62.24270248 293.51974869 C66.32522942 293.54051478 70.40741534 293.56862795 74.48974609 293.61425781 C78.43850242 293.65811226 82.38693331 293.68171937 86.33591461 293.69200897 C87.83323531 293.69933008 89.33054069 293.71362391 90.82772064 293.73542023 C103.20271924 293.90821172 114.16851038 292.55278467 123.90625 284.296875 C127.20069911 280.97627947 129.63477892 277.40521158 131.875 273.3125 C132.2153125 272.72210938 132.555625 272.13171875 132.90625 271.5234375 C136.63251146 263.69138795 136.21651763 251.99410158 133.4375 243.9375 C128.79733135 234.21446109 120.78004349 227.60061595 111.25 223.0625 C106.21090579 221.47120709 101.30123645 221.18905427 96.04345703 221.19897461 C95.38909164 221.19882858 94.73472626 221.19868256 94.06053162 221.1985321 C91.91792374 221.19922353 89.77540501 221.20697948 87.6328125 221.21484375 C86.13923185 221.21671067 84.64565058 221.21813328 83.15206909 221.21913147 C79.23614793 221.22293506 75.32026432 221.23274676 71.40435791 221.24383545 C67.40238961 221.25409612 63.40041519 221.25863904 59.3984375 221.26367188 C51.5572745 221.2743711 43.71614193 221.2914214 35.875 221.3125 C35.88166183 220.47026886 35.88832367 219.62803772 35.89518738 218.76028442 C35.95552838 210.78728032 36.00109059 202.81435394 36.03043652 194.84117317 C36.04603121 190.74297394 36.06715479 186.64496484 36.10131836 182.546875 C36.13413478 178.58517487 36.1518995 174.62365657 36.15963173 170.6618309 C36.16513556 169.15729794 36.17588221 167.65277389 36.19219017 166.14831924 C36.33288079 152.61986543 34.7045913 141.82505043 25.375 131.5625 C24.55 130.82 23.725 130.0775 22.875 129.3125 C22.153125 128.631875 21.43125 127.95125 20.6875 127.25 C5.88103798 117.04999283 -16.34809033 118.51802561 -27.70703125 133.3828125 Z " fill="#4969FE" transform="translate(256.125,-0.3125)"/>
</svg>
