<?xml version="1.0" encoding="UTF-8"?>
<svg version="1.1" xmlns="http://www.w3.org/2000/svg" width="512" height="512">
<path d="M0 0 C0.73920181 -0.00705963 1.47840363 -0.01411926 2.24000549 -0.02139282 C32.68623133 -0.24627393 32.68623133 -0.24627393 45.9765625 3.203125 C46.80075684 3.40711914 47.62495117 3.61111328 48.47412109 3.82128906 C60.4970781 6.8418674 71.85352184 10.73112031 82.9765625 16.203125 C83.60755859 16.50976074 84.23855469 16.81639648 84.88867188 17.13232422 C97.76743223 23.46339678 109.26559183 31.32971736 119.7578125 41.140625 C121.73393343 42.97758249 123.76610871 44.68123665 125.8515625 46.390625 C154.06735641 71.13633135 171.24864471 110.4182366 174.9765625 147.203125 C175.08664388 149.8861084 175.16255339 152.54389877 175.1796875 155.2265625 C175.18674713 155.96576431 175.19380676 156.70496613 175.20108032 157.46656799 C175.42596143 187.91279383 175.42596143 187.91279383 171.9765625 201.203125 C171.67057129 202.4394165 171.67057129 202.4394165 171.35839844 203.70068359 C168.3378201 215.7236406 164.44856719 227.08008434 158.9765625 238.203125 C158.66992676 238.83412109 158.36329102 239.46511719 158.04736328 240.11523438 C151.51759678 253.39818085 143.35248647 265.02768719 133.21875 275.80859375 C131.3476335 277.80684186 129.58663144 279.83821664 127.8515625 281.953125 C104.12222457 309.75786169 63.5811072 326.60900235 27.9765625 330.203125 C25.2935791 330.31320638 22.63578873 330.38911589 19.953125 330.40625 C19.21392319 330.41330963 18.47472137 330.42036926 17.71311951 330.42764282 C-12.73310633 330.65252393 -12.73310633 330.65252393 -26.0234375 327.203125 C-27.259729 326.89713379 -27.259729 326.89713379 -28.52099609 326.58496094 C-40.54741826 323.56351203 -51.89323361 319.66541085 -63.0234375 314.203125 C-63.64911621 313.90180664 -64.27479492 313.60048828 -64.91943359 313.29003906 C-78.23934066 306.81008427 -90.00625972 298.34973824 -100.828125 288.2421875 C-102.85870371 286.35613396 -104.95151706 284.59425329 -107.0859375 282.828125 C-112.04726595 278.49443448 -115.99053344 273.38730252 -120.0234375 268.203125 C-120.76722656 267.275 -121.51101562 266.346875 -122.27734375 265.390625 C-128.4645731 257.47097143 -133.39412386 249.09348681 -138.0234375 240.203125 C-138.34586426 239.58566406 -138.66829102 238.96820313 -139.00048828 238.33203125 C-148.911057 219.03987236 -155.08768424 196.92366865 -155.2265625 175.1796875 C-155.23362213 174.44048569 -155.24068176 173.70128387 -155.24795532 172.93968201 C-155.47283643 142.49345617 -155.47283643 142.49345617 -152.0234375 129.203125 C-151.81944336 128.37893066 -151.61544922 127.55473633 -151.40527344 126.70556641 C-148.3846951 114.6826094 -144.49544219 103.32616566 -139.0234375 92.203125 C-138.71680176 91.57212891 -138.41016602 90.94113281 -138.09423828 90.29101562 C-131.76316572 77.41225527 -123.89684514 65.91409567 -114.0859375 55.421875 C-112.24898001 53.44575407 -110.54532585 51.41357879 -108.8359375 49.328125 C-82.84749591 19.69532723 -39.16694818 0.25015831 0 0 Z M-5.0234375 60.203125 C-5.0234375 71.423125 -5.0234375 82.643125 -5.0234375 94.203125 C-7.4984375 94.698125 -7.4984375 94.698125 -10.0234375 95.203125 C-21.25335795 101.3585137 -28.64422159 110.26835202 -33.0234375 122.203125 C-36.40012286 134.09453316 -34.47075307 146.85051045 -28.7734375 157.55078125 C-22.90123037 167.2766243 -13.97399751 174.97559152 -3.0234375 178.203125 C1.07417221 179.00654319 5.19441208 179.62811568 9.33959961 180.12841797 C13.85467011 180.70015701 17.34223478 181.23933745 20.9765625 184.203125 C23.81134677 187.8673003 24.38668447 190.61385485 24.3515625 195.203125 C24.36316406 196.7190625 24.36316406 196.7190625 24.375 198.265625 C23.76616935 202.75425882 22.23650008 205.228376 18.6640625 207.9921875 C15.56459521 209.3887498 13.3660503 209.60406496 9.9765625 209.578125 C8.9659375 209.58585938 7.9553125 209.59359375 6.9140625 209.6015625 C3.56662848 209.14752225 1.69527346 208.17561634 -1.0234375 206.203125 C-3.95183478 202.33345716 -4.17503572 200.29353567 -5.0234375 195.203125 C-14.5934375 195.203125 -24.1634375 195.203125 -34.0234375 195.203125 C-34.0234375 207.66387142 -30.67524195 217.38138394 -21.8828125 226.3984375 C-14.45385932 233.46111316 -14.45385932 233.46111316 -5.0234375 236.203125 C-5.0234375 247.423125 -5.0234375 258.643125 -5.0234375 270.203125 C4.8765625 270.203125 14.7765625 270.203125 24.9765625 270.203125 C24.9765625 258.983125 24.9765625 247.763125 24.9765625 236.203125 C26.6265625 235.873125 28.2765625 235.543125 29.9765625 235.203125 C41.3755004 228.88056298 49.86959856 218.92181067 53.53442383 206.27856445 C56.20822655 193.72748941 53.89692634 181.41888387 47.3515625 170.578125 C40.07115969 160.39650903 30.64335822 153.42191503 18.23046875 151.34375 C15.6942969 150.94805585 13.16191882 150.58540969 10.61352539 150.27783203 C6.09845489 149.70609299 2.61089022 149.16691255 -1.0234375 146.203125 C-3.85822177 142.5389497 -4.43355947 139.79239515 -4.3984375 135.203125 C-4.40617187 134.1925 -4.41390625 133.181875 -4.421875 132.140625 C-3.81304435 127.65199118 -2.28337508 125.177874 1.2890625 122.4140625 C4.38852979 121.0175002 6.5870747 120.80218504 9.9765625 120.828125 C10.9871875 120.82039063 11.9978125 120.81265625 13.0390625 120.8046875 C16.38649652 121.25872775 18.25785154 122.23063366 20.9765625 124.203125 C23.90495978 128.07279284 24.12816072 130.11271433 24.9765625 135.203125 C34.5465625 135.203125 44.1165625 135.203125 53.9765625 135.203125 C53.9765625 122.11685098 50.18071173 112.60581378 40.9921875 103.1640625 C33.88743865 96.65638709 33.88743865 96.65638709 24.9765625 94.203125 C24.9765625 82.983125 24.9765625 71.763125 24.9765625 60.203125 C15.0765625 60.203125 5.1765625 60.203125 -5.0234375 60.203125 Z " fill="#4969FE" transform="translate(337.0234375,181.796875)"/>
<path d="M0 0 C1.55809891 -0.00855011 1.55809891 -0.00855011 3.14767456 -0.01727295 C5.34111533 -0.02667004 7.53456987 -0.03323572 9.72802734 -0.03710938 C12.99734013 -0.04670665 16.26599336 -0.07773635 19.53515625 -0.109375 C38.76961398 -0.20697313 57.72613846 1.5562652 76.4921875 5.890625 C78.161604 6.27081787 78.161604 6.27081787 79.86474609 6.65869141 C109.50115782 13.67928233 137.12588861 25.64569672 158.9296875 47.203125 C159.95835937 48.12351562 159.95835937 48.12351562 161.0078125 49.0625 C170.35305144 57.56582552 178.19614827 71.47336566 179.07055664 84.26367188 C179.88695799 103.92278009 175.63138076 119.17057485 162.1171875 133.953125 C130.22950546 167.67030656 78.00628751 181.00330301 33.06689453 182.41455078 C10.03875461 182.97811583 -13.34751999 183.45029916 -36.0703125 179.203125 C-37.06482422 179.02620117 -38.05933594 178.84927734 -39.08398438 178.66699219 C-76.45579465 171.90925385 -119.86615233 157.78419846 -142.91015625 125.4765625 C-152.63593531 110.73840182 -155.32005024 95.81546223 -152.453125 78.46875 C-146.29812026 56.13643191 -127.29293169 39.25810891 -107.83447266 28.18701172 C-81.0056703 13.22436662 -51.54357437 4.70754712 -21.0703125 1.203125 C-19.96904022 1.07383102 -19.96904022 1.07383102 -18.84552002 0.94192505 C-12.5515851 0.25318711 -6.32876604 0.02782049 0 0 Z " fill="#4969FE" transform="translate(153.0703125,-0.203125)"/>
<path d="M0 0 C4.31278031 3.20021185 8.56737534 6.42800163 12.6875 9.875 C18.45910289 14.50284012 24.60651205 18.29468312 31 22 C32.0725 22.63679688 33.145 23.27359375 34.25 23.9296875 C79.99554463 49.81750708 136.59896371 56.26067803 188.27783203 53.16162109 C191.06874745 52.99591831 193.86011825 52.84884475 196.65234375 52.70703125 C201.10212923 52.48100274 205.55116413 52.24398516 210 52 C207.16686146 55.31998878 204.32778308 58.63087042 201.4296875 61.89453125 C187.87305258 77.37894453 178.16300175 94.64343133 169 113 C168.67 113.66 168.34 114.32 168 115 C116.78991137 116.22512174 58.42423098 105.63765301 19.52978516 69.51367188 C9.34761051 59.43874644 0.14950136 45.56346022 -0.22705078 30.87890625 C-0.22674033 29.44006531 -0.2158167 28.00119487 -0.1953125 26.5625 C-0.1924826 25.79695801 -0.18965271 25.03141602 -0.18673706 24.24267578 C-0.17565648 21.82828276 -0.15057601 19.41427846 -0.125 17 C-0.11495448 15.35026582 -0.1058314 13.70052576 -0.09765625 12.05078125 C-0.07575712 8.03370732 -0.04131325 4.01691927 0 0 Z " fill="#4969FE" transform="translate(0,157)"/>
<path d="M0 0 C4.31278031 3.20021185 8.56737534 6.42800163 12.6875 9.875 C52.65263973 41.87144368 108.38805551 51.34057969 158 54 C158.17539307 54.57741943 158.35078613 55.15483887 158.53149414 55.74975586 C164.16872305 74.18807794 170.66448346 91.28663382 180.05786133 108.14160156 C181.18989265 110.37456928 182.09694013 112.66632297 183 115 C137.53592964 115.64284633 137.53592964 115.64284633 117 112 C115.48865479 111.73461426 115.48865479 111.73461426 113.94677734 111.46386719 C76.58975265 104.69929571 33.19439581 90.56738385 10.16015625 58.2734375 C3.52797288 48.22322111 -0.36717066 38.62107445 -0.1953125 26.5625 C-0.1924826 25.79695801 -0.18965271 25.03141602 -0.18673706 24.24267578 C-0.17565648 21.82828276 -0.15057601 19.41427846 -0.125 17 C-0.11495448 15.35026582 -0.1058314 13.70052576 -0.09765625 12.05078125 C-0.07575712 8.03370732 -0.04131325 4.01691927 0 0 Z " fill="#4969FE" transform="translate(0,337)"/>
<path d="M0 0 C4.31278031 3.20021185 8.56737534 6.42800163 12.6875 9.875 C52.65263973 41.87144368 108.38805551 51.34057969 158 54 C157.87882813 54.77601563 157.75765625 55.55203125 157.6328125 56.3515625 C157.38144531 57.97191406 157.38144531 57.97191406 157.125 59.625 C156.96257812 60.66914063 156.80015625 61.71328125 156.6328125 62.7890625 C156.49286865 63.73289795 156.49286865 63.73289795 156.35009766 64.69580078 C156.08330935 66.45169205 155.79842978 68.20484472 155.50537109 69.95654297 C153.97556687 79.6128231 153.57455072 89.11572242 153.375 98.875 C153.33669107 100.44923727 153.29763261 102.02345648 153.2578125 103.59765625 C153.16326796 107.39828566 153.0787471 111.19901182 153 115 C115.60549189 112.77827581 79.22390204 105.95763726 46 88 C44.91976562 87.42378906 43.83953125 86.84757812 42.7265625 86.25390625 C24.02155029 75.84353313 7.10784837 59.98063168 1 39 C0.82275391 38.45698242 0.64550781 37.91396484 0.46289062 37.35449219 C-0.21661377 33.89819452 -0.1219566 30.46043671 -0.09765625 26.953125 C-0.0962413 26.18192322 -0.09482635 25.41072144 -0.09336853 24.6161499 C-0.08778534 22.16072662 -0.07523595 19.70539558 -0.0625 17.25 C-0.05748283 15.58203257 -0.0529203 13.91406371 -0.04882812 12.24609375 C-0.03782141 8.16402713 -0.02056836 4.08202919 0 0 Z " fill="#4A69FE" transform="translate(0,247)"/>
</svg>
