<?xml version="1.0" encoding="UTF-8"?>
<svg version="1.1" xmlns="http://www.w3.org/2000/svg" width="512" height="512">
<path d="M0 0 C95.7 0 191.4 0 290 0 C290.33 29.37 290.66 58.74 291 89 C314.1 89.33 337.2 89.66 361 90 C361 138.84 361 187.68 361 238 C354.73 238.99 348.46 239.98 342 241 C329.46296143 244.49392878 316.36302171 249.49810861 306.37249756 258.10235596 C301.67031334 261.64313928 297.81741417 261.84039144 292.06738281 261.74121094 C291.10703629 261.74862808 290.14668976 261.75604523 289.15724182 261.76368713 C286.0052711 261.78149185 282.85503484 261.75779926 279.703125 261.734375 C277.50452698 261.74055169 275.3059354 261.74964938 273.10736084 261.76153564 C267.33511545 261.78622567 261.56345017 261.77704884 255.79119873 261.75897217 C246.53877936 261.73552975 237.28639639 261.76272009 228.03401947 261.79169464 C224.80326956 261.79681533 221.57282797 261.78696074 218.34210205 261.77484131 C216.36641433 261.77502984 214.39072661 261.77552193 212.41503906 261.77636719 C211.51626541 261.7691011 210.61749176 261.76183502 209.69148254 261.75434875 C208.86454391 261.75684128 208.03760529 261.7593338 207.18560791 261.76190186 C206.46962559 261.7596397 205.75364326 261.75737755 205.01596451 261.75504684 C202.63141267 262.04478582 201.03856226 262.74234586 199 264 C198.00469206 265.89768759 198.00469206 265.89768759 198 268 C199.72226496 271.24849977 199.72226496 271.24849977 203 272 C205.75250978 272.12011554 208.48160667 272.18534733 211.23510742 272.20532227 C212.07435257 272.21522186 212.91359772 272.22512146 213.77827454 272.23532104 C216.55397718 272.26692396 219.32969695 272.29168874 222.10546875 272.31640625 C224.02932685 272.33697682 225.95318043 272.35797332 227.87702942 272.37937927 C232.94209136 272.43458932 238.00719402 272.48400334 243.07232666 272.53222656 C248.24031195 272.58244935 253.40823808 272.63813136 258.57617188 272.69335938 C268.71739738 272.80092791 278.85867424 272.90237582 289 273 C288.03990569 274.44194111 287.07957346 275.88372381 286.11914062 277.32543945 C285.5843811 278.12834915 285.04962158 278.93125885 284.49865723 279.75849915 C283.37262945 281.44266826 282.23582573 283.11964058 281.09375 284.79296875 C275.85041566 292.67082157 271.99361506 301.01915482 269 310 C268.18202942 310.00808685 267.36405884 310.01617371 266.52130127 310.02450562 C258.81114668 310.10245964 251.10118111 310.18975266 243.39125443 310.28752708 C239.42753853 310.33746426 235.46384895 310.38379444 231.5 310.421875 C227.6743701 310.45876052 223.84896174 310.50512918 220.02352142 310.55806351 C218.56433754 310.57659013 217.1051062 310.59170451 215.64585114 310.60334396 C213.60123529 310.62023638 211.5571249 310.64927753 209.51269531 310.68115234 C207.76729462 310.70113785 207.76729462 310.70113785 205.9866333 310.7215271 C203.09055615 310.99155657 201.40100313 311.39534366 199 313 C198.00469206 314.89768759 198.00469206 314.89768759 198 317 C199.72226496 320.24849977 199.72226496 320.24849977 203 321 C205.00841665 321.11706233 207.02035989 321.17675967 209.03198242 321.20532227 C210.27304245 321.22526749 211.51410248 321.24521271 212.79277039 321.26576233 C214.1470019 321.28274527 215.50123473 321.29962413 216.85546875 321.31640625 C218.24124259 321.33698228 219.62701025 321.35797892 221.01277161 321.37937927 C224.65740953 321.43453301 228.30210346 321.48397174 231.94683838 321.53222656 C235.66708341 321.58249056 239.38724826 321.6380989 243.10742188 321.69335938 C250.40488643 321.8013643 257.70239575 321.90043907 265 322 C265 334.21 265 346.42 265 359 C260.57078125 359.04898437 256.1415625 359.09796875 251.578125 359.1484375 C248.04467105 359.19298006 244.5112548 359.23947546 240.97784424 359.28729248 C237.24893826 359.33721917 233.52006212 359.38371075 229.79101562 359.421875 C226.19879587 359.45877163 222.60681157 359.50514317 219.0147934 359.55806351 C217.64492679 359.57658426 216.27500976 359.59170081 214.90506744 359.60334396 C212.98511344 359.62024532 211.06529014 359.65041426 209.14550781 359.68115234 C208.05296692 359.69447601 206.96042603 359.70779968 205.83477783 359.7215271 C203.01978279 359.99805665 201.34780569 360.452452 199 362 C198.00469206 363.89768759 198.00469206 363.89768759 198 366 C199.72226496 369.24849977 199.72226496 369.24849977 203 370 C205.13091056 370.11762201 207.26520525 370.1768694 209.39916992 370.20532227 C210.04334366 370.21522186 210.6875174 370.22512146 211.35121155 370.23532104 C213.4775934 370.26687467 215.60399758 370.29166905 217.73046875 370.31640625 C219.20592322 370.33698109 220.68137186 370.3579777 222.15681458 370.37937927 C226.03819051 370.43454526 229.91961915 370.48397862 233.80108643 370.53222656 C237.76262091 370.58248158 241.72407894 370.63814676 245.68554688 370.69335938 C253.45696649 370.80087399 261.22844972 370.90233377 269 371 C269.58986694 372.51327881 269.58986694 372.51327881 270.19165039 374.05712891 C270.72261005 375.40535575 271.25379047 376.75349567 271.78515625 378.1015625 C272.17121033 379.09458374 272.17121033 379.09458374 272.56506348 380.10766602 C276.25284934 389.42869499 281.36722508 397.61276906 287.71484375 405.35546875 C289 407 289 407 289 408 C287.91893982 408.00364563 286.83787964 408.00729126 285.72406006 408.01104736 C275.54155354 408.04797094 265.35935018 408.10571464 255.17707443 408.18390274 C249.94209276 408.22343056 244.70728063 408.255593 239.47216797 408.27099609 C234.42100213 408.28612774 229.37030225 408.32051105 224.31934357 408.36830902 C222.39125872 408.38315891 220.46310736 408.39104308 218.53496552 408.39188385 C215.83628013 408.39424443 213.13889202 408.42124988 210.44042969 408.45410156 C209.64129654 408.4490712 208.84216339 408.44404083 208.01881409 408.43885803 C204.33023581 408.50843959 202.39268878 408.6839695 199.47247314 411.03411865 C198.98655701 411.6828595 198.50064087 412.33160034 198 413 C198.66 414.65 199.32 416.3 200 418 C201.24090897 417.99476318 202.48181793 417.98952637 203.7603302 417.98413086 C215.48587842 417.93988057 227.21078436 417.93787564 238.93636036 417.97665405 C244.96393534 417.99524615 250.990766 417.99923574 257.01831055 417.96923828 C262.84129713 417.94080633 268.66304398 417.95153616 274.48596764 417.98880005 C276.7013696 417.99621545 278.91686475 417.98979764 281.13218117 417.96896362 C302.13594747 417.7877581 302.13594747 417.7877581 310.03440857 425.05513 C310.68305374 425.6969371 311.33169891 426.3387442 312 427 C326.89762602 436.97913785 343.52501569 440.68630455 361 443 C361 448.28 361 453.56 361 459 C241.87 459 122.74 459 0 459 C0 307.53 0 156.06 0 0 Z M115.86328125 77.8984375 C100.23855254 95.52129713 92.63855398 118.60788209 94 142 C96.6797838 167.04129072 108.26405076 187.31730547 127 204 C130.52212625 206.63402565 134.15567781 208.86902475 138 211 C138.94617188 211.53367188 139.89234375 212.06734375 140.8671875 212.6171875 C160.46502577 223.06590233 183.7010352 225.07883968 205 219 C228.35511843 211.44891508 247.04609589 196.13348306 258.3125 174.125 C268.21312753 154.01344831 270.33599699 130.32004221 263.31591797 108.9140625 C254.90732702 84.88641898 238.28490503 67.32989417 215.5625 56.1875 C180.16515212 41.05461015 142.18097334 50.57866896 115.86328125 77.8984375 Z M34 264 C33.11341534 266.59122743 33.11341534 266.59122743 33 269 C35.21248624 271.45609396 37.0782009 272.85505924 40.38287544 273.37467575 C43.46511624 273.50725737 46.52655269 273.51715599 49.61157227 273.48583984 C50.78605927 273.48963654 51.96054626 273.49343323 53.17062378 273.49734497 C56.3835563 273.50347705 59.59580788 273.49176431 62.80866361 273.47143888 C66.17402563 273.45383655 69.53937123 273.45739356 72.9047699 273.4581604 C78.55469061 273.45628905 84.20439611 273.43894665 89.85424805 273.41162109 C96.38391581 273.38015676 102.9133481 273.36962553 109.44308621 273.3710922 C116.39972101 273.37244367 123.3562652 273.35855981 130.31287265 273.34019899 C132.31565175 273.3359391 134.3184162 273.33451702 136.32119942 273.33372116 C140.05352757 273.32939389 143.7855579 273.31190512 147.51782227 273.29052734 C149.18162682 273.2918869 149.18162682 273.2918869 150.87904358 273.29327393 C151.89542908 273.28474396 152.91181458 273.27621399 153.95899963 273.26742554 C154.84111398 273.26407385 155.72322832 273.26072216 156.6320734 273.25726891 C159.22759698 272.9752722 160.83251287 272.45061734 163 271 C164.08223366 268.08995097 164.08223366 268.08995097 164 265 C162.21220342 262.40769496 161.03997185 262.01332395 158 261 C156.38722226 260.90424668 154.77079016 260.86509301 153.15518188 260.85955811 C152.15699936 260.85384796 151.15881683 260.84813782 150.13038635 260.84225464 C149.03628952 260.84113678 147.94219269 260.84001892 146.81494141 260.83886719 C145.66185989 260.83390228 144.50877838 260.82893738 143.320755 260.82382202 C139.49768482 260.80918987 135.67465611 260.80239698 131.8515625 260.796875 C129.86976312 260.79257761 127.88796373 260.7882797 125.90616453 260.7839005 C120.3841946 260.77209061 114.86223474 260.76455245 109.34025347 260.7611053 C102.20146628 260.75662416 95.06287051 260.73907213 87.92414153 260.7101047 C82.40387474 260.688483 76.88366181 260.67840078 71.36335313 260.67706418 C68.06723975 260.67601657 64.77134739 260.66867179 61.47526932 260.65224457 C57.79798044 260.63522422 54.12115974 260.6370547 50.44384766 260.64355469 C49.35379929 260.6343399 48.26375092 260.62512512 47.14067078 260.6156311 C40.02543906 260.53867445 40.02543906 260.53867445 34 264 Z M34 313 C32.84525388 315.43810155 32.84525388 315.43810155 33 318 C34.81317149 320.53844009 35.98467075 320.99489025 39 322 C40.61283354 322.09372146 42.22926681 322.13059466 43.84481812 322.13371277 C44.84300064 322.13797775 45.84118317 322.14224274 46.86961365 322.14663696 C48.5107589 322.14595718 48.5107589 322.14595718 50.18505859 322.14526367 C51.91468086 322.15030159 51.91468086 322.15030159 53.679245 322.15544128 C57.50232003 322.1649633 61.32535133 322.16689503 65.1484375 322.16796875 C67.13023693 322.17036905 69.11203637 322.17277097 71.09383547 322.17542917 C77.32720866 322.18357244 83.56056741 322.18601354 89.79394531 322.18530273 C96.22128477 322.18470211 102.64854026 322.19525116 109.07585847 322.2110464 C114.59612528 322.22412849 120.11636467 322.22948634 125.63664687 322.22884732 C128.93270922 322.22859251 132.22868017 322.23235459 135.52473068 322.24202538 C139.20194244 322.25180402 142.87893722 322.24895547 146.55615234 322.24291992 C147.64620071 322.24853943 148.73624908 322.25415894 149.85932922 322.25994873 C150.8631514 322.25575424 151.86697357 322.25155975 152.9012146 322.24723816 C154.20477685 322.24805531 154.20477685 322.24805531 155.53467369 322.24888897 C158.37273996 321.96236974 160.4710479 321.31887478 163 320 C164.08223366 317.08995097 164.08223366 317.08995097 164 314 C162.38372756 310.94183692 162.38372756 310.94183692 160.18531704 310.32127762 C157.77234543 309.96653103 155.47468579 309.86792535 153.03492737 309.85955811 C152.03537018 309.85384796 151.03581299 309.84813782 150.00596619 309.84225464 C148.91546463 309.84113678 147.82496307 309.84001892 146.70141602 309.83886719 C145.54818848 309.83390228 144.39496094 309.82893738 143.20678711 309.82382202 C139.38915411 309.80920801 135.57156263 309.80240044 131.75390625 309.796875 C129.77329612 309.79257717 127.79268599 309.78827881 125.81207603 309.7839005 C120.29518598 309.77209725 114.77830597 309.76455461 109.26140457 309.7611053 C102.13111746 309.75662233 95.00102182 309.73905915 87.87079293 309.7101047 C82.35475223 309.6884839 76.83876541 309.67840087 71.3226828 309.67706418 C68.02993768 309.67601673 64.73741381 309.66867415 61.44470406 309.65224457 C57.77231368 309.63522512 54.10039212 309.63705433 50.42797852 309.64355469 C49.33950119 309.6343399 48.25102386 309.62512512 47.12956238 309.6156311 C40.02781816 309.55013917 40.02781816 309.55013917 34 313 Z M33 363 C33.24825956 366.06186785 33.51092189 367.56224455 35.83752441 369.6446991 C40.64262955 371.70396032 45.23737337 371.40870611 50.41210938 371.37231445 C52.14216972 371.37779045 52.14216972 371.37779045 53.90718079 371.38337708 C57.71952032 371.39148268 61.53143485 371.37787178 65.34375 371.36328125 C67.99264116 371.36276265 70.64151622 371.36322802 73.29040527 371.36479187 C78.84192985 371.36567403 84.39333213 371.35461091 89.94482422 371.33618164 C96.35745179 371.31501516 102.76990025 371.3115046 109.18255568 371.3177436 C115.3586103 371.32344413 121.53460203 371.31778349 127.71064758 371.30657005 C130.33571621 371.30271868 132.96079023 371.30156958 135.58586121 371.3031559 C139.25330896 371.30352642 142.92048383 371.29090954 146.58789062 371.2746582 C148.21825005 371.27837433 148.21825005 371.27837433 149.88154602 371.28216553 C150.88247787 371.27508072 151.88340973 371.26799591 152.91467285 371.26069641 C153.78111671 371.25864354 154.64756058 371.25659067 155.54026031 371.25447559 C158.37266786 370.96144516 160.47477205 370.31549032 163 369 C164.08223366 366.08995097 164.08223366 366.08995097 164 363 C162.27773504 359.75150023 162.27773504 359.75150023 159 359 C157.36194322 358.90206075 155.72021699 358.86077047 154.07925415 358.85282898 C153.06424332 358.84567368 152.04923248 358.83851837 151.00346375 358.83114624 C149.89066544 358.82845734 148.77786713 358.82576843 147.63134766 358.82299805 C146.458759 358.81642685 145.28617035 358.80985565 144.07804871 358.80308533 C140.19005993 358.78334201 136.30208464 358.77168712 132.4140625 358.76171875 C131.07472081 358.75767046 129.73537933 358.75355352 128.39603806 358.74936867 C122.10467427 358.73032492 115.81332217 358.71609093 109.52193511 358.7077567 C102.26197274 358.69798013 95.00231493 358.67164667 87.74245989 358.63125581 C82.12877698 358.601096 76.5151814 358.58628806 70.90141904 358.58297569 C67.5493622 358.58062544 64.19763103 358.57166884 60.84566116 358.54651451 C57.10600555 358.5222545 53.36715106 358.52306432 49.62744141 358.5300293 C48.51869156 358.51721924 47.40994171 358.50440918 46.26759338 358.49121094 C38.81788982 358.53034666 38.81788982 358.53034666 33 363 Z M33 412 C33.57452746 415.93075644 33.57452746 415.93075644 36 419 C38.28201249 419.30705549 38.28201249 419.30705549 40.96580505 419.26069641 C42.01598816 419.26778122 43.06617126 419.27486603 44.1481781 419.28216553 C45.30511673 419.27968811 46.46205536 419.27721069 47.65405273 419.2746582 C48.86872223 419.27976913 50.08339172 419.28488007 51.33486938 419.29014587 C54.67170454 419.30168842 58.00829181 419.30411159 61.34512973 419.30158257 C64.12852427 419.30051461 66.91189576 419.30539177 69.69528538 419.310188 C76.26082294 419.32129257 82.82630329 419.32171535 89.3918457 419.31567383 C96.16972897 419.30963289 102.94740471 419.32194577 109.72525257 419.3432439 C115.54016713 419.36084572 121.35501556 419.36686349 127.16995579 419.36360615 C130.64484455 419.36179077 134.1195853 419.36445453 137.59445 419.37832069 C141.46856747 419.39320081 145.34241961 419.38394131 149.21655273 419.37231445 C150.37146713 419.37995819 151.52638153 419.38760193 152.71629333 419.39547729 C153.76929626 419.38846298 154.82229919 419.38144867 155.9072113 419.3742218 C156.82364127 419.37438954 157.74007124 419.37455729 158.68427181 419.37473011 C161.05571738 419.17063099 161.05571738 419.17063099 162.82220554 417.66801739 C164.30141571 415.92321376 164.30141571 415.92321376 163.9375 412.9375 C163.32077702 409.95272469 163.32077702 409.95272469 161.25646877 408.83312035 C158.67904563 407.88149909 156.70486445 407.74300767 153.95899963 407.73257446 C152.43442139 407.71977951 152.43442139 407.71977951 150.87904358 407.70672607 C149.76984055 407.70763245 148.66063751 407.70853882 147.51782227 407.70947266 C145.75872025 407.69939682 145.75872025 407.69939682 143.96408081 407.68911743 C140.7512341 407.67337673 137.53854256 407.66676258 134.3256619 407.66548586 C132.31748363 407.66406326 130.30933237 407.65979166 128.30116081 407.65449142 C121.29279742 407.63599599 114.28451004 407.62782035 107.27612305 407.62939453 C100.74698115 407.63059636 94.21816959 407.60948505 87.68911129 407.5779072 C82.0796413 407.55174533 76.47027923 407.54102716 70.86074871 407.54230535 C67.51207957 407.54281495 64.16370418 407.53713348 60.8150959 407.51594925 C57.08030753 407.49639388 53.34637386 407.50208689 49.61157227 407.51416016 C48.50439346 407.50292114 47.39721466 407.49168213 46.25648499 407.48010254 C38.81354005 407.53224752 38.81354005 407.53224752 33 412 Z " fill="#4969FE" transform="translate(27,27)"/>
<path d="M0 0 C1.40442215 1.36478498 2.79101584 2.7478437 4.17675781 4.1315918 C4.91796875 4.86120117 5.65917969 5.59081055 6.42285156 6.3425293 C23.17781151 23.91400776 29.7063789 48.44340806 29.39160156 72.13549805 C28.61209638 97.35563786 16.56851739 119.49182984 -1.27636719 136.82299805 C-19.7209832 153.54196747 -44.29403911 161.00289597 -68.88574219 160.0065918 C-89.39143041 158.19965491 -106.91608668 151.26009354 -122.82324219 138.1315918 C-124.40105469 136.9559668 -124.40105469 136.9559668 -126.01074219 135.7565918 C-143.18392348 119.72828925 -154.14633434 97.07520902 -155.10449219 73.6003418 C-155.7685627 45.67248753 -147.48170899 22.22598568 -128.30029297 1.65600586 C-94.2652082 -33.47045187 -34.94368031 -33.09710897 0 0 Z M-27.87207031 24.72631836 C-28.41943848 25.27310242 -28.96680664 25.81988647 -29.53076172 26.38323975 C-31.31500219 28.1702389 -33.08469674 29.97092072 -34.85449219 31.7722168 C-36.09771316 33.02290802 -37.3418276 34.27271169 -38.58679199 35.52166748 C-41.84416119 38.79423105 -45.08933241 42.07863067 -48.33203125 45.36572266 C-51.64988261 48.7246607 -54.97923838 52.07215342 -58.30761719 55.4206543 C-64.82407594 61.97987446 -71.32769376 68.55166821 -77.82324219 75.1315918 C-81.67790316 73.34302325 -84.0404642 71.0874315 -86.99902344 68.01049805 C-88.00199445 66.98222597 -89.00525899 65.95424014 -90.00878906 64.92651367 C-91.57270223 63.31310803 -93.13323395 61.69670811 -94.68823242 60.07470703 C-96.19947018 58.50258832 -97.72329761 56.94354267 -99.24902344 55.38549805 C-100.15048096 54.45036377 -101.05193848 53.51522949 -101.98071289 52.55175781 C-106.07286954 49.06764299 -109.86451222 47.3808847 -115.26074219 46.6940918 C-121.08842059 47.4097716 -125.75073108 49.59466762 -129.69824219 54.0065918 C-133.24899927 59.22829338 -134.44892155 63.50239799 -133.47634888 69.72662354 C-131.43949975 77.22701753 -123.9630806 83.31150341 -118.64355469 88.6472168 C-117.87196014 89.42546814 -117.1003656 90.20371948 -116.3053894 91.0055542 C-114.68261548 92.63839371 -113.05717524 94.26858728 -111.42919922 95.89624023 C-108.9518098 98.37801786 -106.49088139 100.87537625 -104.03027344 103.3737793 C-102.44401549 104.96590375 -100.85680745 106.5570823 -99.26855469 108.1472168 C-98.54121124 108.88893127 -97.8138678 109.63064575 -97.06448364 110.39483643 C-91.81288523 115.60032251 -86.86589165 119.55407044 -79.32324219 120.6315918 C-71.17792435 119.46797496 -65.84978793 114.74077395 -60.24560547 109.03979492 C-59.53563919 108.33362534 -58.82567291 107.62745575 -58.0941925 106.89988708 C-55.76744753 104.58050707 -53.45534319 102.24712199 -51.14355469 99.9128418 C-49.52383241 98.29073336 -47.90336796 96.66936569 -46.28219604 95.04870605 C-42.89543181 91.65882111 -39.51547084 88.26234557 -36.140625 84.8605957 C-31.81308668 80.49899754 -27.47241765 76.15076254 -23.12706184 71.80692291 C-19.78422617 68.4635438 -16.44662507 65.11498098 -13.11077499 61.76463318 C-11.5115641 60.15905723 -9.91113838 58.55469036 -8.30948257 56.95155334 C-6.0760755 54.71381494 -3.84937459 52.46961812 -1.62451172 50.22338867 C-0.96166672 49.56145004 -0.29882172 48.89951141 0.3841095 48.21751404 C0.98953079 47.60356277 1.59495209 46.98961151 2.21871948 46.35705566 C2.74481245 45.82761101 3.27090542 45.29816635 3.8129406 44.75267792 C7.47336857 40.40175104 7.60339455 36.40092866 7.49316406 30.8894043 C6.88765676 25.61177275 4.59409462 22.47624466 0.73925781 18.8190918 C-10.22137709 11.60111271 -19.55903061 16.17170315 -27.87207031 24.72631836 Z " fill="#4969FE" transform="translate(456.8232421875,299.868408203125)"/>
<path d="M0 0 C15.90245577 12.82377912 27.24973778 28.54881113 30.71484375 49.0703125 C32.60579791 68.49792378 29.5921095 84.99825536 20 102 C19.01 102 18.02 102 17 102 C16.39800781 101.14019531 15.79601562 100.28039062 15.17578125 99.39453125 C11.3805901 94.5664806 5.63389297 92.7504974 0.09936523 90.4753418 C-1.80551115 89.69037997 -3.6966789 88.87780384 -5.58789062 88.06054688 C-14.50275053 84.24633688 -14.50275053 84.24633688 -24 83 C-26.00139292 83.81365328 -26.00139292 83.81365328 -27.375 85.3125 C-34.16141575 90.79971454 -42.61469029 90.36539588 -50.9375 89.55078125 C-56.42489609 88.56388986 -60.3851766 86.07654893 -65 83 C-72.41545716 83.51779303 -78.82029435 86.46559587 -85.625 89.25 C-86.83929688 89.72824219 -88.05359375 90.20648438 -89.3046875 90.69921875 C-91.06039062 91.41271484 -91.06039062 91.41271484 -92.8515625 92.140625 C-93.91197754 92.56891602 -94.97239258 92.99720703 -96.06494141 93.43847656 C-100.49062761 95.79305059 -103.24154849 98.86232273 -106 103 C-106.66 103 -107.32 103 -108 103 C-112.88582435 93.8550366 -117.14924015 85.30681781 -119 75 C-119.3403125 73.2984375 -119.3403125 73.2984375 -119.6875 71.5625 C-121.56256643 50.18674264 -116.76697066 30.43039054 -103.234375 13.60546875 C-102.49703125 12.74566406 -101.7596875 11.88585937 -101 11 C-100.38640625 10.27425781 -99.7728125 9.54851562 -99.140625 8.80078125 C-73.87629917 -18.67687227 -29.81094346 -21.068311 0 0 Z M-70.93359375 19.2578125 C-76.9640929 27.25668663 -80.24330264 35.91543417 -79 46 C-76.93310708 56.88563602 -71.10814589 65.68807125 -62 72 C-53.56733934 77.04467134 -43.56128554 77.57188267 -34.09765625 75.3046875 C-24.4325575 71.76032155 -17.94922144 65.95793663 -13 57 C-12.48759766 56.07767578 -12.48759766 56.07767578 -11.96484375 55.13671875 C-8.40012574 47.39381963 -8.71706209 37.50928354 -11.625 29.625 C-16.14966858 20.02578993 -22.77431241 12.7989614 -32.84375 8.8984375 C-46.83284798 4.7862576 -61.26903631 7.97273331 -70.93359375 19.2578125 Z " fill="#4969FE" transform="translate(252,101)"/>
<path d="M0 0 C10.89812069 4.45387268 22.45282353 3.55541312 33.5 0 C34.33402344 -0.55171875 35.16804688 -1.1034375 36.02734375 -1.671875 C39.44560758 -3.50790929 40.7587104 -3.05291195 44.5 -2 C48.27884971 -0.69863501 51.98253148 0.75250455 55.6875 2.25 C56.68458984 2.63285156 57.68167969 3.01570312 58.70898438 3.41015625 C60.14274414 3.98830078 60.14274414 3.98830078 61.60546875 4.578125 C62.90713989 5.09487793 62.90713989 5.09487793 64.23510742 5.62207031 C67.94873712 7.88139186 69.16452262 10.98698986 70.49609375 15.0078125 C70.5 18 70.5 18 68.53515625 20.4921875 C57.53393902 29.3105088 45.49553746 36.27739545 31.5 39 C30.5925 39.18046875 29.685 39.3609375 28.75 39.546875 C12.6102992 41.79712175 -4.04252275 39.80158206 -18.5 32 C-19.30695313 31.56945312 -20.11390625 31.13890625 -20.9453125 30.6953125 C-26.95432069 27.29572071 -33.24242039 23.53174578 -37.5 18 C-38.30847415 14.60564287 -37.76094454 13.43893965 -36.5 10 C-32.16502847 5.66502847 -26.60966018 3.56814027 -21.0625 1.1875 C-20.13373047 0.76791016 -19.20496094 0.34832031 -18.24804688 -0.08398438 C-11.12912596 -3.15956088 -7.06102486 -3.38133585 0 0 Z " fill="#4969FE" transform="translate(191.5,198)"/>
<path d="M0 0 C2 2 2 2 2.52540588 5.66188049 C2.36350073 11.12147981 -0.65064271 13.76529109 -4.40649414 17.40991211 C-5.0877536 18.10197754 -5.76901306 18.79404297 -6.47091675 19.50708008 C-8.72295855 21.78408926 -11.00269487 24.03085914 -13.28515625 26.27734375 C-14.86154001 27.85403751 -16.43659004 29.43206578 -18.01036072 31.0113678 C-21.31102841 34.31480313 -24.62519997 37.60386568 -27.94995117 40.88305664 C-32.20871488 45.0850504 -36.43563414 49.31744505 -40.6533289 53.56061459 C-43.90121659 56.82241934 -47.16368884 60.0693065 -50.43093681 63.31170845 C-51.99514571 64.86689167 -53.55519957 66.4262657 -55.11097908 67.98988152 C-57.28889264 70.17362313 -59.48524554 72.33694363 -61.68774414 74.49584961 C-62.32647964 75.14358841 -62.96521515 75.79132721 -63.62330627 76.45869446 C-66.67343063 79.40928343 -68.56019282 80.87042218 -72.7089386 82.09274292 C-76.41869186 81.98820116 -77.39659383 81.599476 -79.96923828 79.02026367 C-80.63940979 78.36923676 -81.3095813 77.71820984 -82.00006104 77.04745483 C-82.66004089 76.37179474 -83.32002075 75.69613464 -84 75 C-85.24026084 73.80721818 -86.48097517 72.61490771 -87.72216797 71.4230957 C-88.98159313 70.17676566 -90.23818667 68.92756887 -91.4921875 67.67578125 C-92.5002092 66.67275215 -92.5002092 66.67275215 -93.52859497 65.64945984 C-94.93312375 64.24995052 -96.33634094 62.84912376 -97.73828125 61.44702148 C-99.88522669 59.30228382 -102.04007692 57.16569982 -104.1953125 55.02929688 C-105.56559253 53.66194757 -106.93540127 52.29412577 -108.3046875 50.92578125 C-108.94735565 50.29029861 -109.5900238 49.65481598 -110.25216675 49.00007629 C-110.84683746 48.40232895 -111.44150818 47.8045816 -112.05419922 47.1887207 C-112.57634003 46.66800491 -113.09848083 46.14728912 -113.63644409 45.61079407 C-116.09377118 42.70790767 -117.03138445 40.76891915 -116.875 36.9375 C-116 34 -116 34 -114.375 32.0625 C-110.82306051 30.47347444 -108.75248465 31.03744513 -105 32 C-102.41078883 33.85597994 -100.33631968 36.10368467 -98.18359375 38.44140625 C-97.56404312 39.08367661 -96.94449249 39.72594696 -96.3061676 40.38768005 C-94.33480696 42.43209029 -92.38411818 44.49453419 -90.4375 46.5625 C-87.87020138 49.28940371 -85.28369702 51.99580635 -82.68359375 54.69140625 C-81.81147499 55.63821007 -81.81147499 55.63821007 -80.92173767 56.60414124 C-80.36418289 57.18151535 -79.80662811 57.75888947 -79.23217773 58.35375977 C-78.75143295 58.86592545 -78.27068817 59.37809113 -77.77537537 59.90577698 C-74.9678393 61.63615505 -73.23815338 61.52237528 -70 61 C-67.64685926 59.20310776 -65.77867036 57.52994938 -63.75097656 55.41625977 C-63.15834518 54.82289825 -62.56571381 54.22953674 -61.9551239 53.61819458 C-60.00252909 51.65633265 -58.07193433 49.67420667 -56.140625 47.69140625 C-54.78774419 46.32479175 -53.43345514 44.95957003 -52.07781982 43.59568787 C-48.51439128 40.00369613 -44.96891151 36.39450125 -41.42730713 32.78100586 C-37.11601285 28.38813382 -32.78559872 24.01412704 -28.4562645 19.63904476 C-25.08933888 16.23630897 -21.7260109 12.83027083 -18.37310791 9.41371155 C-17.75698135 8.78763504 -17.1408548 8.16155853 -16.50605774 7.51651001 C-15.35310342 6.34486868 -14.20208051 5.17132247 -13.05332947 3.99555969 C-8.31925357 -0.80659894 -6.70790909 -1.317625 0 0 Z " fill="#4A6AFE" transform="translate(451,327)"/>
<path d="M0 0 C5.63344051 5.63344051 5.63344051 5.63344051 7.875 8.390625 C8.37829834 9.0086499 8.88159668 9.6266748 9.40014648 10.26342773 C9.92809814 10.91899658 10.4560498 11.57456543 11 12.25 C11.56468994 12.94746338 12.12937988 13.64492676 12.71118164 14.36352539 C17.26298913 20.0155896 21.66506723 25.77392813 26.04394531 31.56030273 C29.9909513 36.74920342 34.08173571 41.80012988 38.25 46.8125 C54 65.75638881 54 65.75638881 54 68 C36.18 68 18.36 68 0 68 C0 45.56 0 23.12 0 0 Z " fill="#4A69FE" transform="translate(328,38)"/>
<path d="M0 0 C6.30182335 6.6939368 8.48479738 12.8541623 8.31640625 21.9921875 C7.60298514 28.77409188 4.23639979 33.7156729 -1 38 C-7.45338774 42.68638872 -14.2366531 42.94248392 -22 42 C-28.24132365 40.28490456 -32.50286084 36.34920663 -36 31 C-39.11039957 25.14305892 -39.97154509 19.48136114 -38.56640625 13 C-36.41598159 6.16138245 -31.92958034 0.81633981 -25.875 -2.9375 C-17.25045079 -6.1248334 -7.56257024 -5.68004203 0 0 Z " fill="#4969FE" transform="translate(223,124)"/>
</svg>
