<?xml version="1.0" encoding="UTF-8"?>
<svg version="1.1" xmlns="http://www.w3.org/2000/svg" width="512" height="512">
<path d="M0 0 C5.4521357 2.53134872 6.4759981 4.71399714 10 10 C10 17.26 10 24.52 10 32 C62.8 32 115.6 32 170 32 C170 24.74 170 17.48 170 10 C175.17241379 2.24137931 175.17241379 2.24137931 180 0 C185.5997712 -0.75381535 190.33499991 -0.77303575 195.5 1.625 C199.06513686 5.01188002 201.69639119 7.58455122 202.3203125 12.54833984 C202.39313609 15.50022395 202.3490024 18.42396697 202.25 21.375 C202.23195313 22.39722656 202.21390625 23.41945313 202.1953125 24.47265625 C202.14839491 26.98274749 202.08276729 29.49087764 202 32 C203.19898926 31.97381592 204.39797852 31.94763184 205.63330078 31.9206543 C210.14710295 31.82910311 214.66082589 31.77237533 219.17529297 31.7253418 C221.11684031 31.70043368 223.05829624 31.6664941 224.99951172 31.62280273 C239.84326051 31.29744981 253.12913146 31.86275626 264.9765625 42.05859375 C274.09350491 50.80593039 281.85886934 61.03516166 282.24609566 74.18783474 C282.25441945 75.76789744 282.25189577 77.34804173 282.24050903 78.92808533 C282.24307231 80.24175177 282.24307231 80.24175177 282.24568737 81.58195692 C282.24897028 84.5038597 282.23799832 87.42553064 282.22705078 90.34741211 C282.22648641 92.44694005 282.22680374 94.54646838 282.22793579 96.64599609 C282.22850929 102.33758348 282.21675541 108.02908646 282.20278788 113.72065425 C282.19028005 119.67172107 282.18910997 125.62278986 282.18673706 131.5738678 C282.18052246 142.83947252 282.16411187 154.10503841 282.14403808 165.37062603 C282.1216785 178.19762475 282.1106855 191.02462532 282.10064721 203.85163867 C282.07974565 230.23444731 282.04457002 256.61722148 282 283 C280.73931558 282.06844561 279.48058617 281.13424522 278.22265625 280.19897461 C277.52148682 279.67903427 276.82031738 279.15909393 276.09790039 278.62339783 C272.87775302 276.13158255 269.94579987 273.36826184 267 270.5625 C265.7768262 269.41192581 264.55287417 268.26217836 263.328125 267.11328125 C262.75126953 266.5713916 262.17441406 266.02950195 261.58007812 265.47119141 C259.07980681 263.14321938 256.5075038 260.90391354 253.921875 258.671875 C251.58894926 256.64241927 249.29488755 254.572353 247 252.5 C244.01937279 249.81016569 241.02754767 247.13689636 238 244.5 C234.97245233 241.86310364 231.98062721 239.18983431 229 236.5 C225.44099558 233.29203547 221.8820701 230.08678067 218.25390625 226.95703125 C216.47212397 225.4099378 214.71622805 223.84265727 212.96484375 222.26171875 C203.30925575 213.6552778 195.81957615 209.19046988 182.40625 209.61328125 C174.74724508 210.48282424 168.35767348 213.3987959 163 219 C154.84586006 229.81991646 154.7028861 241.31815342 154.68115234 254.4675293 C154.6718328 255.88785866 154.66166118 257.30818264 154.65071106 258.72850037 C154.6236251 262.55002984 154.60832589 266.3715229 154.59528303 270.19312263 C154.57955784 274.19965735 154.55279802 278.20611873 154.5272522 282.21260071 C154.4806295 289.78414038 154.44380597 297.35569411 154.41057932 304.92730314 C154.37224065 313.55379999 154.3228616 322.18022288 154.27259517 330.8066572 C154.16952113 348.53771719 154.08018166 366.26882244 154 384 C125.81817219 384.11695305 97.63638091 384.20504694 69.45435905 384.25906086 C56.36809029 384.28481034 43.28197258 384.31989878 30.19580078 384.37719727 C18.78600718 384.4271317 7.376323 384.45931466 -4.03357685 384.47044247 C-10.0715451 384.47694416 -16.10920037 384.4921574 -22.14706802 384.52865028 C-27.83848702 384.56276821 -33.52946622 384.57302105 -39.22097778 384.56553841 C-41.30177074 384.5669059 -43.38257949 384.57674344 -45.46328354 384.59602737 C-62.90966744 384.74969158 -76.18781946 382.55661991 -89.1484375 369.90234375 C-98.94288895 359.57993859 -102.30637255 348.70114052 -102.27415466 334.7743988 C-102.27939134 333.6512353 -102.28462802 332.5280718 -102.29002339 331.37087303 C-102.30501301 327.61106347 -102.30572833 323.85139012 -102.30639648 320.09155273 C-102.31401877 317.39405246 -102.32239791 314.69656356 -102.33161926 311.99906921 C-102.35443012 304.67233165 -102.36238592 297.34562312 -102.36744571 290.01885486 C-102.37070783 285.43882045 -102.37723348 280.8587944 -102.3844471 276.27876472 C-102.40400932 263.58339809 -102.42041528 250.8880392 -102.42332363 238.19265652 C-102.4235112 237.38086353 -102.42369877 236.56907054 -102.42389202 235.73267776 C-102.42425826 234.08715856 -102.42462196 232.44163936 -102.42498314 230.79612016 C-102.42516595 229.97934533 -102.42534876 229.1625705 -102.42553711 228.32104492 C-102.42571766 227.5032661 -102.42589821 226.68548728 -102.42608423 225.84292728 C-102.42962311 212.60284439 -102.45662923 199.36292441 -102.494035 186.12289798 C-102.53218317 172.51047069 -102.55148159 158.8981241 -102.55178314 145.28564221 C-102.55236631 137.65045952 -102.56076709 130.01547112 -102.58978081 122.38033867 C-102.61438221 115.87667026 -102.62151907 109.37326697 -102.60653328 102.86956453 C-102.59939911 99.55615853 -102.60282871 96.24369787 -102.62294388 92.93028259 C-102.73205271 73.78297691 -101.88041475 59.16802256 -87.90234375 44.8515625 C-78.10261128 35.55305091 -67.45171277 31.64886342 -54.12890625 31.8046875 C-52.74541237 31.80893234 -52.74541237 31.80893234 -51.33396912 31.81326294 C-48.41000987 31.82439026 -45.48636549 31.84948088 -42.5625 31.875 C-40.57096799 31.88503943 -38.57943114 31.8941636 -36.58789062 31.90234375 C-31.7251405 31.92430517 -26.8626235 31.95878327 -22 32 C-22.0314209 31.04746338 -22.0314209 31.04746338 -22.06347656 30.07568359 C-22.14704581 27.17561924 -22.19878774 24.27580884 -22.25 21.375 C-22.28351563 20.37597656 -22.31703125 19.37695312 -22.3515625 18.34765625 C-22.43315123 12.18770715 -22.1132688 8.68372214 -18 4 C-12.72867143 -1.00776214 -6.89190982 -0.92775709 0 0 Z M-65.9375 69.75 C-76.12328537 85.80032846 -70 114.76339026 -70 128 C35.6 128 141.2 128 250 128 C253.61800232 100.3614229 253.61800232 100.3614229 244.25 68.0625 C238.47744813 64.39914977 233.06186252 63.75050713 226.31640625 63.8046875 C225.61603745 63.8075174 224.91566864 63.81034729 224.19407654 63.81326294 C221.9833683 63.82435115 219.77308329 63.84943297 217.5625 63.875 C216.05274028 63.88504454 214.54297412 63.8941678 213.03320312 63.90234375 C209.35533403 63.92425286 205.6777084 63.95870242 202 64 C201.98598145 64.95253662 201.98598145 64.95253662 201.97167969 65.92431641 C201.91771267 68.825308 201.83411873 71.72473244 201.75 74.625 C201.73582031 75.62402344 201.72164063 76.62304688 201.70703125 77.65234375 C201.51234004 83.5320184 201.14032476 87.47419673 197 92 C191.77740143 96.05630398 186.34659858 95.77397544 180 95 C174.93805921 92.60223857 173.97785351 90.96308918 171 86 C170.67 78.74 170.34 71.48 170 64 C117.2 64 64.4 64 10 64 C9.67 71.26 9.34 78.52 9 86 C4.24385102 93.13422347 4.24385102 93.13422347 0 95 C-5.54808604 95.82885269 -10.47140883 95.7240695 -15.5625 93.3125 C-20.6670698 88.46970301 -21.37081672 84.58042915 -21.61914062 77.74023438 C-21.65297852 76.22913086 -21.65297852 76.22913086 -21.6875 74.6875 C-21.72166016 73.66076172 -21.75582031 72.63402344 -21.79101562 71.57617188 C-21.87323409 69.05089037 -21.94246936 66.5259446 -22 64 C-26.3924631 63.92517425 -30.78457672 63.87108317 -35.17749023 63.83520508 C-36.66811598 63.82022958 -38.15869851 63.79984181 -39.64916992 63.77368164 C-53.96481803 63.08455027 -53.96481803 63.08455027 -65.9375 69.75 Z M-16.61328125 212.46484375 C-20.70232185 217.17587926 -21.35578775 220.41203334 -21.27734375 226.4609375 C-20.86623556 230.22460402 -19.5171364 232.21790187 -17 235 C-8.9897547 241.30593779 0.2826205 240.51698374 10 240 C15.06635988 239.18662522 18.60111674 237.85339649 22 233.9375 C25.4271582 228.9038614 25.6576866 225.02107448 25 219 C22.65207342 214.1235371 19.71239146 211.59662386 15 209 C5.88911409 206.56505527 -9.22027187 205.75206283 -16.61328125 212.46484375 Z M79.38671875 212.46484375 C75.29767815 217.17587926 74.64421225 220.41203334 74.72265625 226.4609375 C75.13376444 230.22460402 76.4828636 232.21790187 79 235 C87.0102453 241.30593779 96.2826205 240.51698374 106 240 C111.06635988 239.18662522 114.60111674 237.85339649 118 233.9375 C121.4271582 228.9038614 121.6576866 225.02107448 121 219 C118.65207342 214.1235371 115.71239146 211.59662386 111 209 C101.88911409 206.56505527 86.77972813 205.75206283 79.38671875 212.46484375 Z M-16.61328125 276.46484375 C-20.70232185 281.17587926 -21.35578775 284.41203334 -21.27734375 290.4609375 C-20.86623556 294.22460402 -19.5171364 296.21790187 -17 299 C-8.9897547 305.30593779 0.2826205 304.51698374 10 304 C15.06635988 303.18662522 18.60111674 301.85339649 22 297.9375 C25.4271582 292.9038614 25.6576866 289.02107448 25 283 C22.65207342 278.1235371 19.71239146 275.59662386 15 273 C5.88911409 270.56505527 -9.22027187 269.75206283 -16.61328125 276.46484375 Z M79.38671875 276.46484375 C75.29767815 281.17587926 74.64421225 284.41203334 74.72265625 290.4609375 C75.13376444 294.22460402 76.4828636 296.21790187 79 299 C87.0102453 305.30593779 96.2826205 304.51698374 106 304 C111.06635988 303.18662522 114.60111674 301.85339649 118 297.9375 C121.4271582 292.9038614 121.6576866 289.02107448 121 283 C118.65207342 278.1235371 115.71239146 275.59662386 111 273 C101.88911409 270.56505527 86.77972813 269.75206283 79.38671875 276.46484375 Z " fill="#4969FE" transform="translate(134,32)"/>
<path d="M0 0 C0.515625 0.4738916 1.03125 0.9477832 1.5625 1.43603516 C2.13226563 1.95762207 2.70203125 2.47920898 3.2890625 3.01660156 C6.32252878 5.80302419 9.33708582 8.60875695 12.33984375 11.42822266 C15.38044331 14.27829086 18.48598424 17.04092326 21.640625 19.76416016 C23.97355074 21.79361588 26.26761245 23.86368216 28.5625 25.93603516 C31.54312721 28.62586946 34.53495233 31.2991388 37.5625 33.93603516 C41.45762811 37.32856609 45.29032763 40.78797716 49.125 44.24853516 C51.25667481 46.16157665 53.4026911 48.05491128 55.5625 49.93603516 C59.45762811 53.32856609 63.29032763 56.78797716 67.125 60.24853516 C69.25667481 62.16157665 71.4026911 64.05491128 73.5625 65.93603516 C77.45762811 69.32856609 81.29032763 72.78797716 85.125 76.24853516 C87.25667481 78.16157665 89.4026911 80.05491128 91.5625 81.93603516 C95.45762811 85.32856609 99.29032763 88.78797716 103.125 92.24853516 C105.25667481 94.16157665 107.4026911 96.05491128 109.5625 97.93603516 C112.59004767 100.57293152 115.58187279 103.24620085 118.5625 105.93603516 C121.5650731 108.64522706 124.57809045 111.33930396 127.625 113.99853516 C128.25792969 114.55283203 128.89085937 115.10712891 129.54296875 115.67822266 C131.01797522 116.96207742 132.50086346 118.23689286 133.98828125 119.50634766 C134.79652344 120.20501953 135.60476563 120.90369141 136.4375 121.62353516 C137.54738281 122.57292969 137.54738281 122.57292969 138.6796875 123.54150391 C142.31333445 127.19776692 142.87268923 130.2169085 142.9375 135.31103516 C142.82305934 140.54351633 142.33773169 143.56642267 138.5625 147.43603516 C133.24124544 151.23831526 127.49538543 153.9959368 121.51953125 156.59619141 C120.65497818 156.97839844 119.79042511 157.36060547 118.89967346 157.75439453 C116.06056006 159.00807114 113.21779994 160.25324361 110.375 161.49853516 C108.36185892 162.38583279 106.34900586 163.27378415 104.33642578 164.16235352 C100.15620586 166.00738065 95.9747622 167.84959308 91.79248047 169.68994141 C83.08855334 173.52286344 74.40157141 177.39377017 65.71359253 181.26266479 C47.6077702 189.32307667 29.48372152 197.34215244 11.35302734 205.34643555 C10.49274933 205.72623062 9.63247131 206.1060257 8.74612427 206.49732971 C7.16063426 207.19720531 5.57508877 207.89695528 3.98947144 208.59654236 C3.27268219 208.91289139 2.55589294 209.22924042 1.81738281 209.55517578 C1.12336868 209.86048218 0.42935455 210.16578857 -0.28569031 210.48034668 C-1.81524179 211.1596701 -3.34038192 211.84896428 -4.86238098 212.54504395 C-5.65875473 212.90739136 -6.45512848 213.26973877 -7.27563477 213.64306641 C-7.99421158 213.97346924 -8.71278839 214.30387207 -9.45314026 214.64428711 C-13.98404999 216.45209386 -18.68839123 216.09996192 -23.4375 215.43603516 C-28.40688909 213.1288188 -30.80252559 210.18219404 -33.4375 205.43603516 C-33.81603654 202.49756761 -33.97930205 199.94113437 -33.94543457 197.01025391 C-33.95167453 196.17631607 -33.9579145 195.34237823 -33.96434355 194.48316956 C-33.98026393 191.69633484 -33.96767317 188.91037594 -33.95507812 186.12353516 C-33.96049967 184.12255341 -33.96762251 182.12157566 -33.97631836 180.12060547 C-33.99455072 174.69087941 -33.98748443 169.26145744 -33.97480202 163.83172607 C-33.96467397 158.14903952 -33.97406716 152.46637898 -33.98034668 146.78369141 C-33.98762363 137.24067511 -33.97803405 127.69778265 -33.95898438 118.15478516 C-33.93721561 107.12225928 -33.94426694 96.09002909 -33.96629 85.05751038 C-33.98444256 75.58473683 -33.987003 66.11205229 -33.97653532 56.63926697 C-33.97029963 50.98179274 -33.96946693 45.32445749 -33.98268127 39.66699219 C-33.99423697 34.34812582 -33.9862189 29.02964063 -33.96310425 23.71081543 C-33.9578157 21.75891757 -33.95933342 19.80698763 -33.96815491 17.85510254 C-33.97908817 15.19024094 -33.96537389 12.52660024 -33.94543457 9.86181641 C-33.95435746 9.08963272 -33.96328034 8.31744904 -33.97247362 7.52186584 C-33.8973855 2.34711623 -32.71017203 -0.58245967 -29.4375 -4.56396484 C-18.35972916 -13.28476317 -9.45138026 -8.58102377 0 0 Z " fill="#4969FE" transform="translate(337.4375,264.56396484375)"/>
</svg>
