<svg width="512" height="512" viewBox="0 0 512 512" fill="none" xmlns="http://www.w3.org/2000/svg">
<g clip-path="url(#clip0_71_827)">
<path d="M220 35.9993C220 60.4193 220 84.8393 220 109.999C211.09 110.989 202.18 111.979 193 112.999C186.517 114.471 180.291 115.963 174 117.999C172.98 118.322 172.98 118.322 171.939 118.651C151.278 125.318 133.705 137.179 118 151.999C117.263 152.672 116.526 153.345 115.766 154.038C87.5355 180.767 76.2156 218.338 74.0002 255.999C122.18 255.999 170.36 255.999 220 255.999C220 328.599 220 401.199 220 475.999C147.4 475.999 74.8002 475.999 0.000219941 475.999C-0.160992 417.152 -0.160992 417.152 -0.195093 392.361C-0.202922 386.697 -0.211003 381.034 -0.219507 375.371C-0.220562 374.661 -0.221624 373.951 -0.222711 373.22C-0.24002 361.824 -0.271496 350.427 -0.308389 339.031C-0.346042 327.3 -0.368071 315.569 -0.376138 303.839C-0.381093 297.264 -0.393336 290.69 -0.422708 284.116C-0.450227 277.905 -0.45816 271.694 -0.452218 265.483C-0.453303 263.226 -0.461028 260.968 -0.476602 258.711C-0.71912 221.683 7.30501 185.641 25.0002 152.999C25.3467 152.343 25.6931 151.686 26.05 151.01C31.5154 140.656 37.8062 131.229 45.0002 121.999C45.7517 121.034 46.5033 120.068 47.2776 119.074C85.3587 71.4893 139.227 43.5257 199.5 36.597C206.39 35.9421 213.031 35.9993 220 35.9993Z" fill="#4A68FE"/>
<path d="M512 36C512 60.42 512 84.84 512 110C503.42 110.99 494.84 111.98 486 113C448.976 120.199 416.017 140.165 394 171C393.603 171.554 393.207 172.108 392.798 172.678C374.958 198.003 369.033 225.669 366 256C414.18 256 462.36 256 512 256C512 328.6 512 401.2 512 476C439.4 476 366.8 476 292 476C291.879 418.868 291.879 418.868 291.853 394.801C291.848 389.303 291.842 383.805 291.835 378.307C291.834 377.274 291.834 377.274 291.833 376.22C291.82 365.155 291.796 354.091 291.769 343.027C291.74 331.639 291.724 320.25 291.718 308.862C291.714 302.479 291.705 296.097 291.683 289.714C291.662 283.685 291.656 277.656 291.661 271.626C291.66 269.434 291.654 267.242 291.642 265.05C291.541 245.017 292.663 224.59 297.75 205.125C298.009 204.101 298.268 203.078 298.535 202.023C308.225 164.766 326.778 131.128 353.572 103.475C354.96 102.041 356.332 100.591 357.703 99.1406C364.606 91.9957 372.066 85.9343 380 80C380.841 79.36 380.841 79.36 381.699 78.707C418.864 50.4941 465.577 36 512 36Z" fill="#4A68FE"/>
</g>
<defs>
<clipPath id="clip0_71_827">
<rect width="512" height="512" fill="white"/>
</clipPath>
</defs>
</svg>
